<svg width="17" height="17" viewBox="0 0 17 17" fill="none" xmlns="http://www.w3.org/2000/svg">
<path d="M4.65912 10.9664C3.65699 11.5632 1.02947 12.7816 2.6298 14.3062C3.41155 15.051 4.28222 15.5837 5.37687 15.5837H11.6231C12.7178 15.5837 13.5884 15.051 14.3702 14.3062C15.9705 12.7816 13.343 11.5632 12.3409 10.9664C9.99091 9.56717 7.00909 9.56717 4.65912 10.9664Z" stroke="#020202" stroke-width="1.5" stroke-linecap="round" stroke-linejoin="round"/>
<path d="M11.6875 4.60449C11.6875 6.3649 10.2604 7.79199 8.5 7.79199C6.73959 7.79199 5.3125 6.3649 5.3125 4.60449C5.3125 2.84408 6.73959 1.41699 8.5 1.41699C10.2604 1.41699 11.6875 2.84408 11.6875 4.60449Z" stroke="#020202" stroke-width="1.5"/>
</svg>
