<svg width="22" height="22" viewBox="0 0 22 22" fill="none" xmlns="http://www.w3.org/2000/svg">
<path d="M3.91224 17.2743C4.11838 18.8054 5.38653 20.0049 6.92977 20.0758C8.22833 20.1355 9.54744 20.1667 11.0001 20.1667C12.4527 20.1667 13.7718 20.1355 15.0704 20.0758C16.6136 20.0049 17.8818 18.8054 18.0879 17.2743C18.2225 16.2751 18.3334 15.2512 18.3334 14.2083C18.3334 13.1655 18.2225 12.1415 18.0879 11.1423C17.8818 9.61127 16.6136 8.41178 15.0704 8.34084C13.7718 8.28114 12.4527 8.25 11.0001 8.25C9.54744 8.25 8.22833 8.28114 6.92977 8.34084C5.38653 8.41178 4.11838 9.61127 3.91224 11.1423C3.7777 12.1415 3.66675 13.1655 3.66675 14.2083C3.66675 15.2512 3.77771 16.2751 3.91224 17.2743Z" stroke="#808080" stroke-width="1.5"/>
<path d="M6.875 8.2487V5.95703C6.875 3.67886 8.72183 1.83203 11 1.83203C13.2782 1.83203 15.125 3.67886 15.125 5.95703V8.2487" stroke="#808080" stroke-width="1.5" stroke-linecap="round" stroke-linejoin="round"/>
<path d="M10.9963 14.207H11.0046" stroke="#808080" stroke-width="2" stroke-linecap="round" stroke-linejoin="round"/>
</svg>
