<svg width="22" height="22" viewBox="0 0 22 22" fill="none" xmlns="http://www.w3.org/2000/svg">
<path d="M14.2816 11.0004C14.2816 12.8154 12.8149 14.2821 10.9999 14.2821C9.18493 14.2821 7.71826 12.8154 7.71826 11.0004C7.71826 9.18542 9.18493 7.71875 10.9999 7.71875C12.8149 7.71875 14.2816 9.18542 14.2816 11.0004Z" stroke="#808080" stroke-width="1.5" stroke-linecap="round" stroke-linejoin="round"/>
<path d="M11 18.581C14.2358 18.581 17.2517 16.6743 19.3508 13.3743C20.1758 12.0818 20.1758 9.90932 19.3508 8.61682C17.2517 5.31682 14.2358 3.41016 11 3.41016C7.76416 3.41016 4.74833 5.31682 2.64916 8.61682C1.82416 9.90932 1.82416 12.0818 2.64916 13.3743C4.74833 16.6743 7.76416 18.581 11 18.581Z" stroke="#808080" stroke-width="1.5" stroke-linecap="round" stroke-linejoin="round"/>
</svg>
