<svg width="20" height="20" viewBox="0 0 20 20" fill="none" xmlns="http://www.w3.org/2000/svg">
<path d="M7.00033 3.66667C7.00033 3.29848 6.70185 3 6.33366 3C5.96547 3 5.66699 3.29848 5.66699 3.66667V4.33333C5.66699 4.70152 5.96547 5 6.33366 5C6.70185 5 7.00033 4.70152 7.00033 4.33333V3.66667Z" fill="#808080"/>
<path d="M14.3333 3.66667C14.3333 3.29848 14.0349 3 13.6667 3C13.2985 3 13 3.29848 13 3.66667V4.33333C13 4.70152 13.2985 5 13.6667 5C14.0349 5 14.3333 4.70152 14.3333 4.33333V3.66667Z" fill="#808080"/>
<path d="M3.33301 8V15.6667C3.33301 16.403 3.93001 17 4.66634 17H15.333C16.0693 17 16.6663 16.403 16.6663 15.6667V8H3.33301ZM7.33301 14.6667C7.33301 15.035 7.03467 15.3333 6.66634 15.3333H5.99967C5.63134 15.3333 5.33301 15.035 5.33301 14.6667V14C5.33301 13.6317 5.63134 13.3333 5.99967 13.3333H6.66634C7.03467 13.3333 7.33301 13.6317 7.33301 14V14.6667ZM7.33301 11C7.33301 11.3683 7.03467 11.6667 6.66634 11.6667H5.99967C5.63134 11.6667 5.33301 11.3683 5.33301 11V10.3333C5.33301 9.965 5.63134 9.66667 5.99967 9.66667H6.66634C7.03467 9.66667 7.33301 9.965 7.33301 10.3333V11ZM10.9997 14.6667C10.9997 15.035 10.7013 15.3333 10.333 15.3333H9.66634C9.29801 15.3333 8.99967 15.035 8.99967 14.6667V14C8.99967 13.6317 9.29801 13.3333 9.66634 13.3333H10.333C10.7013 13.3333 10.9997 13.6317 10.9997 14V14.6667ZM10.9997 11C10.9997 11.3683 10.7013 11.6667 10.333 11.6667H9.66634C9.29801 11.6667 8.99967 11.3683 8.99967 11V10.3333C8.99967 9.965 9.29801 9.66667 9.66634 9.66667H10.333C10.7013 9.66667 10.9997 9.965 10.9997 10.3333V11ZM14.6663 14.6667C14.6663 15.035 14.368 15.3333 13.9997 15.3333H13.333C12.9647 15.3333 12.6663 15.035 12.6663 14.6667V14C12.6663 13.6317 12.9647 13.3333 13.333 13.3333H13.9997C14.368 13.3333 14.6663 13.6317 14.6663 14V14.6667ZM14.6663 11C14.6663 11.3683 14.368 11.6667 13.9997 11.6667H13.333C12.9647 11.6667 12.6663 11.3683 12.6663 11V10.3333C12.6663 9.965 12.9647 9.66667 13.333 9.66667H13.9997C14.368 9.66667 14.6663 9.965 14.6663 10.3333V11Z" fill="#808080"/>
<path d="M16.6663 7.33333V5.33333C16.6663 4.597 16.0693 4 15.333 4H14.9997V4.33333C14.9997 5.06867 14.4017 5.66667 13.6663 5.66667C12.931 5.66667 12.333 5.06867 12.333 4.33333V4H7.66634V4.33333C7.66634 5.06867 7.06834 5.66667 6.33301 5.66667C5.59767 5.66667 4.99967 5.06867 4.99967 4.33333V4H4.66634C3.93001 4 3.33301 4.597 3.33301 5.33333V7.33333H16.6663Z" fill="#808080"/>
</svg>
