<svg width="32" height="32" viewBox="0 0 32 32" fill="none" xmlns="http://www.w3.org/2000/svg">
<path d="M31.5 0.5V25.7979L28.7588 28.6465L25.7979 31.5H0.5V6.20703L6.20703 0.5H31.5Z" stroke="#FFC32A"/>
<path d="M13.0004 9.66667C13.0004 9.29848 12.7019 9 12.3337 9C11.9655 9 11.6671 9.29848 11.6671 9.66667V10.3333C11.6671 10.7015 11.9655 11 12.3337 11C12.7019 11 13.0004 10.7015 13.0004 10.3333V9.66667Z" fill="#808080"/>
<path d="M20.3332 9.66667C20.3332 9.29848 20.0347 9 19.6665 9C19.2984 9 18.9999 9.29848 18.9999 9.66667V10.3333C18.9999 10.7015 19.2984 11 19.6665 11C20.0347 11 20.3332 10.7015 20.3332 10.3333V9.66667Z" fill="#808080"/>
<path d="M9.33267 14V21.6667C9.33267 22.403 9.92967 23 10.666 23H21.3327C22.069 23 22.666 22.403 22.666 21.6667V14H9.33267ZM13.3327 20.6667C13.3327 21.035 13.0343 21.3333 12.666 21.3333H11.9993C11.631 21.3333 11.3327 21.035 11.3327 20.6667V20C11.3327 19.6317 11.631 19.3333 11.9993 19.3333H12.666C13.0343 19.3333 13.3327 19.6317 13.3327 20V20.6667ZM13.3327 17C13.3327 17.3683 13.0343 17.6667 12.666 17.6667H11.9993C11.631 17.6667 11.3327 17.3683 11.3327 17V16.3333C11.3327 15.965 11.631 15.6667 11.9993 15.6667H12.666C13.0343 15.6667 13.3327 15.965 13.3327 16.3333V17ZM16.9993 20.6667C16.9993 21.035 16.701 21.3333 16.3327 21.3333H15.666C15.2977 21.3333 14.9993 21.035 14.9993 20.6667V20C14.9993 19.6317 15.2977 19.3333 15.666 19.3333H16.3327C16.701 19.3333 16.9993 19.6317 16.9993 20V20.6667ZM16.9993 17C16.9993 17.3683 16.701 17.6667 16.3327 17.6667H15.666C15.2977 17.6667 14.9993 17.3683 14.9993 17V16.3333C14.9993 15.965 15.2977 15.6667 15.666 15.6667H16.3327C16.701 15.6667 16.9993 15.965 16.9993 16.3333V17ZM20.666 20.6667C20.666 21.035 20.3677 21.3333 19.9993 21.3333H19.3327C18.9643 21.3333 18.666 21.035 18.666 20.6667V20C18.666 19.6317 18.9643 19.3333 19.3327 19.3333H19.9993C20.3677 19.3333 20.666 19.6317 20.666 20V20.6667ZM20.666 17C20.666 17.3683 20.3677 17.6667 19.9993 17.6667H19.3327C18.9643 17.6667 18.666 17.3683 18.666 17V16.3333C18.666 15.965 18.9643 15.6667 19.3327 15.6667H19.9993C20.3677 15.6667 20.666 15.965 20.666 16.3333V17Z" fill="#808080"/>
<path d="M22.666 13.3333V11.3333C22.666 10.597 22.069 10 21.3327 10H20.9993V10.3333C20.9993 11.0687 20.4013 11.6667 19.666 11.6667C18.9307 11.6667 18.3327 11.0687 18.3327 10.3333V10H13.666V10.3333C13.666 11.0687 13.068 11.6667 12.3327 11.6667C11.5973 11.6667 10.9993 11.0687 10.9993 10.3333V10H10.666C9.92967 10 9.33267 10.597 9.33267 11.3333V13.3333H22.666Z" fill="#808080"/>
</svg>
