<svg width="32" height="32" viewBox="0 0 32 32" fill="none" xmlns="http://www.w3.org/2000/svg">
<path d="M31.5 0.5V25.7979L28.7588 28.6465L25.7979 31.5H0.5V6.20703L6.20703 0.5H31.5Z" stroke="#FFC32A"/>
<path d="M12.3333 18.75L10.5 25.1667M19.6667 18.75L21.5 25.1667" stroke="#808080" stroke-width="1.5" stroke-linecap="round" stroke-linejoin="round"/>
<path d="M16 15.083C14.6051 15.083 13.1302 15.3511 11.974 15.7098C11.1034 15.9799 10.4031 17.2115 10.511 18.2114C10.5509 18.5818 10.838 18.7497 11.1399 18.7497H20.8601C21.162 18.7497 21.4491 18.5818 21.489 18.2114C21.5969 17.2115 20.8965 15.9799 20.026 15.7098C18.8698 15.3511 17.3949 15.083 16 15.083Z" stroke="#808080" stroke-width="1.5" stroke-linecap="round"/>
<path d="M11.416 15.9997L12.0025 10.1348C12.1594 8.56562 12.2379 7.78102 12.7616 7.30701C13.2854 6.83301 14.0739 6.83301 15.651 6.83301H16.3477C17.9248 6.83301 18.7133 6.83301 19.237 7.30701C19.7608 7.78102 19.8393 8.56562 19.9962 10.1348L20.5827 15.9997" stroke="#808080" stroke-width="1.5" stroke-linecap="round" stroke-linejoin="round"/>
</svg>
