<svg width="22" height="22" viewBox="0 0 22 22" fill="none" xmlns="http://www.w3.org/2000/svg">
<path d="M3.66602 17.0919V7.38299C3.66602 4.76682 3.66602 3.45873 4.47147 2.64599C5.27693 1.83325 6.57329 1.83325 9.16602 1.83325H12.8327C15.4254 1.83325 16.7218 1.83325 17.5272 2.64599C18.3327 3.45873 18.3327 4.76682 18.3327 7.38299V17.0919C18.3327 18.4776 18.3327 19.1704 17.9092 19.4432C17.2172 19.8889 16.1474 18.9542 15.6094 18.6149C15.1648 18.3346 14.9425 18.1944 14.6958 18.1863C14.4293 18.1775 14.203 18.312 13.7227 18.6149L11.971 19.7196C11.4985 20.0176 11.2622 20.1666 10.9993 20.1666C10.7365 20.1666 10.5002 20.0176 10.0277 19.7196L8.27605 18.6149C7.83148 18.3346 7.6092 18.1944 7.3625 18.1863C7.09592 18.1775 6.8697 18.312 6.38932 18.6149C5.8513 18.9542 4.78148 19.8889 4.08947 19.4432C3.66602 19.1704 3.66602 18.4776 3.66602 17.0919Z" stroke="#020202" stroke-width="1.5" stroke-linecap="round" stroke-linejoin="round"/>
<path d="M10.083 10.0833H7.33301" stroke="#020202" stroke-width="1.5" stroke-linecap="round" stroke-linejoin="round"/>
<path d="M12.833 6.41675L7.33301 6.41675" stroke="#020202" stroke-width="1.5" stroke-linecap="round" stroke-linejoin="round"/>
</svg>
