<svg width="32" height="32" viewBox="0 0 32 32" fill="none" xmlns="http://www.w3.org/2000/svg">
<path d="M31.5 0.5V25.7979L28.7588 28.6465L25.7979 31.5H0.5V6.20703L6.20703 0.5H31.5Z" fill="white" stroke="#FFC32A"/>
<path d="M19.5116 10.152L20.6797 8.98386C21.3249 8.33871 22.3708 8.33871 23.016 8.98386C23.6611 9.629 23.6611 10.675 23.016 11.3201L21.8478 12.4883M19.5116 10.152L15.15 14.5135C14.2789 15.3846 13.8434 15.8202 13.5468 16.3509C13.2502 16.8817 12.9518 18.1349 12.6665 19.3333C13.8649 19.048 15.1182 18.7496 15.6489 18.453C16.1797 18.1564 16.6152 17.7209 17.4863 16.8498L21.8478 12.4883M19.5116 10.152L21.8478 12.4883" stroke="#020202" stroke-width="1.5" stroke-linecap="round" stroke-linejoin="round"/>
<path d="M23.5 16C23.5 19.5355 23.5 21.3033 22.4016 22.4016C21.3033 23.5 19.5355 23.5 16 23.5C12.4645 23.5 10.6967 23.5 9.59835 22.4016C8.5 21.3033 8.5 19.5355 8.5 16C8.5 12.4645 8.5 10.6967 9.59835 9.59835C10.6967 8.5 12.4645 8.5 16 8.5" stroke="#020202" stroke-width="1.5" stroke-linecap="round"/>
</svg>
