<svg width="22" height="22" viewBox="0 0 22 22" fill="none" xmlns="http://www.w3.org/2000/svg">
<path d="M3.20703 9.16699V13.7503C3.20703 16.343 3.20703 17.6394 4.01248 18.4449C4.81794 19.2503 6.1143 19.2503 8.70703 19.2503H13.2903C15.883 19.2503 17.1795 19.2503 17.9849 18.4449C18.7903 17.6394 18.7903 16.343 18.7903 13.7503V9.16699" stroke="#9B9B9B" stroke-width="1.5" stroke-linecap="round" stroke-linejoin="round"/>
<path d="M15.582 6.87635C15.582 8.142 14.556 9.1663 13.2903 9.1663C12.0247 9.1663 10.9987 8.14028 10.9987 6.87463C10.9987 8.14028 9.97266 9.1663 8.70704 9.1663C7.44138 9.1663 6.41537 8.14028 6.41537 6.87463C6.41537 8.14028 5.33969 9.1663 4.01278 9.1663C3.29854 9.1663 2.65709 8.86902 2.21702 8.39712C1.46042 7.58581 1.94716 6.39252 2.57862 5.48905L2.93387 5.00329C3.74222 3.89797 4.1464 3.34531 4.7332 3.04752C5.32001 2.74973 6.00469 2.74983 7.37406 2.75001L14.6242 2.75097C15.9931 2.75115 16.6776 2.75125 17.2642 3.04903C17.8508 3.3468 18.2548 3.89929 19.063 5.00427L19.4187 5.49076C20.0502 6.39423 20.537 7.58752 19.7804 8.39883C19.3403 8.87074 18.6989 9.16798 17.9846 9.16798C16.6576 9.16798 15.582 8.142 15.582 6.87635Z" stroke="#9B9B9B" stroke-width="1.5" stroke-linecap="round" stroke-linejoin="round"/>
<path d="M13.7473 15.583C13.1205 16.1396 12.1226 16.4997 10.9986 16.4997C9.87461 16.4997 8.87678 16.1396 8.25 15.583" stroke="#9B9B9B" stroke-width="1.5" stroke-linecap="round" stroke-linejoin="round"/>
</svg>
