<svg width="20" height="20" viewBox="0 0 20 20" fill="none" xmlns="http://www.w3.org/2000/svg">
<path d="M5.83398 7.08594L8.28567 8.53544C9.71498 9.38052 10.2863 9.38052 11.7157 8.53544L14.1673 7.08594" stroke="#020202" stroke-width="1.5" stroke-linecap="round" stroke-linejoin="round"/>
<path d="M1.67916 11.2271C1.73363 13.7817 1.76087 15.059 2.70348 16.0052C3.64608 16.9514 4.95796 16.9843 7.58171 17.0502C9.19877 17.0909 10.7999 17.0909 12.417 17.0502C15.0408 16.9843 16.3526 16.9514 17.2953 16.0052C18.2378 15.059 18.2651 13.7817 18.3195 11.2271C18.3371 10.4056 18.3371 9.58915 18.3195 8.76773C18.2651 6.21311 18.2378 4.93581 17.2953 3.98961C16.3526 3.04342 15.0408 3.01046 12.417 2.94454C10.7999 2.90391 9.19877 2.90391 7.5817 2.94453C4.95796 3.01045 3.64608 3.04341 2.70347 3.98961C1.76087 4.9358 1.73363 6.2131 1.67915 8.76773C1.66163 9.58915 1.66164 10.4056 1.67916 11.2271Z" stroke="#020202" stroke-width="1.5" stroke-linecap="round" stroke-linejoin="round"/>
</svg>
