<svg width="29" height="29" viewBox="0 0 29 29" fill="none" xmlns="http://www.w3.org/2000/svg">
<circle cx="14.5" cy="14.5" r="14" fill="#FDB914" stroke="white"/>
<path d="M7.83334 12.1663C7.83334 11.43 8.4303 10.833 9.16668 10.833H11.5L12.5365 9.27831C12.7219 9.00011 13.0342 8.83301 13.3685 8.83301H15.6315C15.9659 8.83301 16.2781 9.00011 16.4635 9.27831L17.5 10.833H19.8333C20.5697 10.833 21.1667 11.43 21.1667 12.1663V18.833C21.1667 19.5694 20.5697 20.1663 19.8333 20.1663H9.16668C8.4303 20.1663 7.83334 19.5694 7.83334 18.833V12.1663Z" stroke="#020202" stroke-width="1.5" stroke-linecap="round" stroke-linejoin="round"/>
<path d="M17.1667 15.1667C17.1667 16.6394 15.9727 17.8333 14.5 17.8333C13.0273 17.8333 11.8333 16.6394 11.8333 15.1667C11.8333 13.6939 13.0273 12.5 14.5 12.5C15.9727 12.5 17.1667 13.6939 17.1667 15.1667Z" stroke="#020202" stroke-width="1.5" stroke-linecap="round" stroke-linejoin="round"/>
<path d="M19.1667 12.833V12.8401" stroke="#020202" stroke-width="1.5" stroke-linecap="round" stroke-linejoin="round"/>
</svg>
