<svg width="22" height="22" viewBox="0 0 22 22" fill="none" xmlns="http://www.w3.org/2000/svg">
<path d="M3.46298 10.9459C2.59396 9.43056 2.17436 8.19322 1.92135 6.93898C1.54715 5.08398 2.40349 3.27194 3.82209 2.11572C4.42166 1.62705 5.10896 1.79401 5.4635 2.43006L6.26391 3.86603C6.89834 5.00422 7.21556 5.57331 7.15264 6.17666C7.08972 6.78 6.66192 7.2714 5.80631 8.2542L3.46298 10.9459ZM3.46298 10.9459C5.22196 14.0129 7.98235 16.7749 11.053 18.5359M11.053 18.5359C12.5683 19.4049 13.8056 19.8245 15.0599 20.0775C16.9149 20.4517 18.7269 19.5954 19.8831 18.1768C20.3718 17.5772 20.2049 16.8899 19.5688 16.5354L18.1328 15.7349C16.9946 15.1005 16.4256 14.7833 15.8222 14.8462C15.2189 14.9091 14.7275 15.3369 13.7447 16.1926L11.053 18.5359Z" stroke="#808080" stroke-width="1.5" stroke-linejoin="round"/>
</svg>
