<svg width="335" height="50" viewBox="0 0 335 50" fill="none" xmlns="http://www.w3.org/2000/svg">
<path d="M6 7L12 1H48V37L43.6699 41.5L36 49H0V13L6 7Z" fill="#EFEFEF"/>
<path d="M14.2484 30L18.3084 24.596V25.366L14.3884 20.13H16.5024L19.3444 24.064H18.7704L21.5984 20.13H23.7264L19.7924 25.366V24.596L23.8664 30H21.7384L18.7424 25.884H19.3584L16.3624 30H14.2484ZM28.1522 30.14C27.3589 30.14 26.6262 30.042 25.9542 29.846C25.2915 29.6407 24.7222 29.3607 24.2462 29.006L24.8062 27.592C25.1235 27.816 25.4549 28.0073 25.8002 28.166C26.1455 28.3153 26.5142 28.432 26.9062 28.516C27.2982 28.5907 27.7135 28.628 28.1522 28.628C28.8895 28.628 29.4215 28.5067 29.7482 28.264C30.0749 28.0213 30.2382 27.704 30.2382 27.312C30.2382 26.9667 30.1262 26.7053 29.9022 26.528C29.6782 26.3413 29.2769 26.1873 28.6982 26.066L27.1162 25.744C26.2109 25.5573 25.5342 25.2447 25.0862 24.806C24.6382 24.3673 24.4142 23.7793 24.4142 23.042C24.4142 22.426 24.5775 21.8893 24.9042 21.432C25.2309 20.9747 25.6882 20.62 26.2762 20.368C26.8642 20.116 27.5502 19.99 28.3342 19.99C29.0342 19.99 29.6829 20.0927 30.2802 20.298C30.8775 20.494 31.3769 20.7787 31.7782 21.152L31.2182 22.496C30.8169 22.16 30.3782 21.9127 29.9022 21.754C29.4262 21.586 28.8942 21.502 28.3062 21.502C27.6435 21.502 27.1255 21.6327 26.7522 21.894C26.3882 22.146 26.2062 22.496 26.2062 22.944C26.2062 23.2893 26.3182 23.5647 26.5422 23.77C26.7755 23.9753 27.1675 24.134 27.7182 24.246L29.2862 24.554C30.2195 24.7407 30.9102 25.0487 31.3582 25.478C31.8062 25.898 32.0302 26.4673 32.0302 27.186C32.0302 27.774 31.8715 28.292 31.5542 28.74C31.2369 29.1787 30.7889 29.524 30.2102 29.776C29.6315 30.0187 28.9455 30.14 28.1522 30.14Z" fill="#020202"/>
<path d="M63 7L69 1H105V37L100.67 41.5L93 49H57V13L63 7Z" fill="#EFEFEF"/>
<path d="M80.0243 30.14C79.2309 30.14 78.4983 30.042 77.8263 29.846C77.1636 29.6407 76.5943 29.3607 76.1183 29.006L76.6783 27.592C76.9956 27.816 77.3269 28.0073 77.6723 28.166C78.0176 28.3153 78.3863 28.432 78.7783 28.516C79.1703 28.5907 79.5856 28.628 80.0243 28.628C80.7616 28.628 81.2936 28.5067 81.6203 28.264C81.9469 28.0213 82.1103 27.704 82.1103 27.312C82.1103 26.9667 81.9983 26.7053 81.7743 26.528C81.5503 26.3413 81.1489 26.1873 80.5703 26.066L78.9883 25.744C78.0829 25.5573 77.4063 25.2447 76.9583 24.806C76.5103 24.3673 76.2863 23.7793 76.2863 23.042C76.2863 22.426 76.4496 21.8893 76.7763 21.432C77.1029 20.9747 77.5603 20.62 78.1483 20.368C78.7363 20.116 79.4223 19.99 80.2063 19.99C80.9063 19.99 81.5549 20.0927 82.1523 20.298C82.7496 20.494 83.2489 20.7787 83.6503 21.152L83.0903 22.496C82.6889 22.16 82.2503 21.9127 81.7743 21.754C81.2983 21.586 80.7663 21.502 80.1783 21.502C79.5156 21.502 78.9976 21.6327 78.6243 21.894C78.2603 22.146 78.0783 22.496 78.0783 22.944C78.0783 23.2893 78.1903 23.5647 78.4143 23.77C78.6476 23.9753 79.0396 24.134 79.5903 24.246L81.1583 24.554C82.0916 24.7407 82.7823 25.0487 83.2303 25.478C83.6783 25.898 83.9023 26.4673 83.9023 27.186C83.9023 27.774 83.7436 28.292 83.4263 28.74C83.1089 29.1787 82.6609 29.524 82.0823 29.776C81.5036 30.0187 80.8176 30.14 80.0243 30.14Z" fill="#020202"/>
<path d="M120 7L126 1H162V37L157.67 41.5L150 49H114V13L120 7Z" fill="#EFEFEF"/>
<path d="M132.515 30V20.13H134.097L137.723 28.292H137.289L140.915 20.13H142.483V30H140.845V22.678H141.349L138.031 30H136.953L133.635 22.678H134.153V30H132.515Z" fill="#020202"/>
<path d="M219.5 0.5V37.2012L219.36 37.3467L215.03 41.8467L215.02 41.8574L207.35 49.3574L207.204 49.5H170.5V12.793L182.793 0.5H219.5Z" fill="#FFF1D0" stroke="#FDB914"/>
<path d="M191.175 30V20.13H192.981V28.474H197.629V30H191.175Z" fill="#020202"/>
</svg>
