<svg width="22" height="22" viewBox="0 0 22 22" fill="none" xmlns="http://www.w3.org/2000/svg">
<path d="M11 20.166C10.25 20.166 9.53351 19.8633 8.10052 19.258C4.53351 17.7512 2.75 16.9978 2.75 15.7305C2.75 15.3757 2.75 9.22516 2.75 6.41602M11 20.166C11.75 20.166 12.4665 19.8633 13.8995 19.258C17.4665 17.7512 19.25 16.9978 19.25 15.7305V6.41602M11 20.166L11 10.408" stroke="#808080" stroke-width="1.5" stroke-linecap="round" stroke-linejoin="round"/>
<path d="M7.63209 8.88442L4.95432 7.58868C3.48477 6.87758 2.75 6.52203 2.75 5.95898C2.75 5.39594 3.48477 5.04039 4.95432 4.32929L7.63209 3.03355C9.28477 2.23384 10.1111 1.83398 11 1.83398C11.8889 1.83398 12.7152 2.23384 14.3679 3.03355L17.0457 4.32929C18.5152 5.04039 19.25 5.39594 19.25 5.95898C19.25 6.52203 18.5152 6.87758 17.0457 7.58868L14.3679 8.88442C12.7152 9.68413 11.8889 10.084 11 10.084C10.1111 10.084 9.28477 9.68413 7.63209 8.88442Z" stroke="#808080" stroke-width="1.5" stroke-linecap="round" stroke-linejoin="round"/>
<path d="M5.5 11L7.33333 11.9167" stroke="#808080" stroke-width="1.5" stroke-linecap="round" stroke-linejoin="round"/>
<path d="M15.5834 3.66602L6.41675 8.24935" stroke="#808080" stroke-width="1.5" stroke-linecap="round" stroke-linejoin="round"/>
</svg>
