<svg width="40" height="40" viewBox="0 0 40 40" fill="none" xmlns="http://www.w3.org/2000/svg">
<rect width="40" height="40" rx="20" fill="white"/>
<path d="M23.2096 25.5C23.2096 27.2719 21.7732 28.7083 20.0013 28.7083C18.2294 28.7083 16.793 27.2719 16.793 25.5" stroke="#020202" stroke-width="1.5" stroke-linecap="round" stroke-linejoin="round"/>
<path d="M26.6285 25.4993H13.3715C12.476 25.4993 11.75 24.7733 11.75 23.8779C11.75 23.4478 11.9208 23.0354 12.2249 22.7313L12.7779 22.1784C13.2936 21.6626 13.5833 20.9631 13.5833 20.2338V17.7077C13.5833 14.1639 16.4562 11.291 20 11.291C23.5438 11.291 26.4167 14.1638 26.4167 17.7077V20.2338C26.4167 20.9631 26.7064 21.6626 27.2221 22.1784L27.7751 22.7313C28.0791 23.0354 28.25 23.4478 28.25 23.8779C28.25 24.7733 27.524 25.4993 26.6285 25.4993Z" stroke="#020202" stroke-width="1.5" stroke-linecap="round" stroke-linejoin="round"/>
</svg>
