<svg width="375" height="347" viewBox="0 0 375 347" fill="none" xmlns="http://www.w3.org/2000/svg">
<g clip-path="url(#clip0_333_1797)">
<g opacity="0.2" clip-path="url(#clip1_333_1797)">
<path d="M48.3669 0.988858C48.5363 1.02078 48.6997 0.9091 48.7317 0.73916C48.7636 0.569624 48.6521 0.40614 48.4827 0.374223C48.3133 0.342306 48.1499 0.45399 48.1179 0.623526C48.086 0.793062 48.1975 0.956941 48.3669 0.988858Z" fill="#999999"/>
<path d="M62.2389 3.52375C62.3663 3.54775 62.4888 3.46399 62.5128 3.33654C62.5368 3.20949 62.4531 3.08687 62.3258 3.06287C62.1988 3.03896 62.0763 3.12272 62.0523 3.24977C62.0287 3.3773 62.112 3.49983 62.2389 3.52375Z" fill="#999999"/>
<path d="M76.1183 6.01357C76.1818 6.02553 76.2429 5.98342 76.2549 5.9199C76.2668 5.85637 76.2248 5.79524 76.1617 5.78335C76.0982 5.77139 76.0371 5.81351 76.0252 5.87663C76.0132 5.94056 76.0548 6.00161 76.1183 6.01357Z" fill="#999999"/>
<path d="M89.9898 8.55245C90.0109 8.55641 90.0314 8.5427 90.0355 8.52126C90.0394 8.50022 90.0253 8.47995 90.0042 8.47599C89.9832 8.47203 89.9626 8.48574 89.9587 8.50678C89.9546 8.52823 89.9684 8.54841 89.9898 8.55245Z" fill="#999999"/>
<path d="M4.10822 7.45012C4.51116 7.52604 4.89959 7.26054 4.97563 6.8569C5.05161 6.45366 4.78642 6.06504 4.38348 5.98913C3.98013 5.91313 3.5917 6.17861 3.51573 6.58185C3.43968 6.9855 3.70487 7.37413 4.10822 7.45012Z" fill="#999999"/>
<path d="M17.9855 9.93996C18.3252 10.004 18.6525 9.78027 18.7165 9.44066C18.7805 9.10104 18.557 8.77358 18.2173 8.70957C17.8779 8.64563 17.5506 8.86933 17.4866 9.20894C17.4227 9.54856 17.6457 9.87595 17.9855 9.93996Z" fill="#999999"/>
<path d="M31.8545 12.4746C32.1518 12.5306 32.4382 12.3348 32.4941 12.0378C32.5501 11.7407 32.3546 11.4542 32.0573 11.3982C31.7601 11.3422 31.4741 11.538 31.4181 11.8351C31.3622 12.1321 31.5577 12.4187 31.8545 12.4746Z" fill="#999999"/>
<path d="M45.7337 14.9727C45.9673 15.0167 46.1921 14.863 46.2362 14.6292C46.2801 14.3958 46.1267 14.1705 45.8931 14.1265C45.6598 14.0825 45.435 14.2361 45.391 14.47C45.3465 14.7037 45.5004 14.9287 45.7337 14.9727Z" fill="#999999"/>
<path d="M59.613 17.465C59.7824 17.4969 59.9458 17.3852 59.9778 17.2157C60.0097 17.0462 59.8982 16.8827 59.7288 16.8508C59.5593 16.8189 59.396 16.9305 59.364 17.1001C59.3321 17.2696 59.4436 17.4331 59.613 17.465Z" fill="#999999"/>
<path d="M73.4845 20C73.6119 20.024 73.7344 19.9402 73.7584 19.8132C73.7824 19.6857 73.6986 19.5635 73.5713 19.5395C73.4439 19.5155 73.3215 19.5989 73.2974 19.7263C73.2739 19.8534 73.3576 19.9761 73.4845 20Z" fill="#999999"/>
<path d="M87.3614 22.4945C87.4249 22.5064 87.486 22.4643 87.498 22.4008C87.5099 22.3372 87.4683 22.2758 87.4049 22.2638C87.3414 22.2519 87.2803 22.294 87.2683 22.3575C87.2559 22.4209 87.2979 22.4825 87.3614 22.4945Z" fill="#999999"/>
<path d="M101.234 25.029C101.255 25.033 101.276 25.0189 101.28 24.9978C101.284 24.9768 101.269 24.9565 101.248 24.9526C101.227 24.9486 101.207 24.9623 101.203 24.9833C101.199 25.0044 101.213 25.0251 101.234 25.029Z" fill="#999999"/>
<path d="M1.47752 21.3916C1.92298 21.4756 2.35232 21.1821 2.4363 20.7363C2.52029 20.2905 2.22676 19.8609 1.78171 19.7771C1.33584 19.6931 0.906502 19.9865 0.822514 20.4323C0.738526 20.8781 1.03165 21.3076 1.47752 21.3916Z" fill="#999999"/>
<path d="M15.3481 23.9227C15.7514 23.9987 16.1398 23.7332 16.2159 23.3296C16.2918 22.9263 16.0266 22.5377 15.6233 22.4617C15.2204 22.3858 14.8319 22.6513 14.756 23.0545C14.6795 23.4581 14.9447 23.8467 15.3481 23.9227Z" fill="#999999"/>
<path d="M29.2276 26.4208C29.5673 26.4848 29.8946 26.2611 29.9587 25.9211C30.0228 25.5811 29.7992 25.254 29.4595 25.19C29.1201 25.1261 28.7928 25.3498 28.7288 25.6894C28.6648 26.029 28.8882 26.3569 29.2276 26.4208Z" fill="#999999"/>
<path d="M43.0999 28.9559C43.3971 29.0119 43.6835 28.8162 43.7396 28.5187C43.7956 28.2213 43.6001 27.9347 43.3029 27.8787C43.0056 27.8227 42.7192 28.0185 42.6632 28.3159C42.6071 28.6134 42.8027 28.8999 43.0999 28.9559Z" fill="#999999"/>
<path d="M56.9789 31.4488C57.2125 31.4928 57.4373 31.3392 57.4813 31.1053C57.5253 30.8719 57.3719 30.647 57.1382 30.603C56.9049 30.5591 56.6802 30.7127 56.6362 30.9461C56.5922 31.1795 56.7456 31.4048 56.9789 31.4488Z" fill="#999999"/>
<path d="M70.8562 33.9416C71.0257 33.9735 71.189 33.8619 71.2209 33.6923C71.2529 33.5227 71.1414 33.3593 70.9719 33.3273C70.8024 33.2954 70.6391 33.407 70.6072 33.5766C70.5752 33.7462 70.6867 33.9096 70.8562 33.9416Z" fill="#999999"/>
<path d="M84.7282 36.4769C84.8555 36.5009 84.9781 36.4171 85.0021 36.2897C85.0261 36.1622 84.9424 36.04 84.815 36.016C84.6877 35.992 84.5656 36.0754 84.5416 36.2029C84.5176 36.3304 84.6008 36.4529 84.7282 36.4769Z" fill="#999999"/>
<path d="M98.6081 38.9703C98.6716 38.9822 98.7326 38.9405 98.7446 38.877C98.7565 38.8135 98.7145 38.7523 98.6514 38.7405C98.5875 38.7284 98.5264 38.7705 98.5145 38.8337C98.5025 38.8972 98.5446 38.9583 98.6081 38.9703Z" fill="#999999"/>
<path d="M112.479 41.506C112.5 41.51 112.52 41.4958 112.524 41.4747C112.528 41.4537 112.515 41.4331 112.494 41.4291C112.472 41.4252 112.452 41.4393 112.448 41.4603C112.444 41.4814 112.458 41.502 112.479 41.506Z" fill="#999999"/>
<path d="M-1.15712 35.3713C-0.648084 35.4672 -0.157136 35.1316 -0.0610835 34.6218C0.0349686 34.112 -0.299892 33.6213 -0.809337 33.5253C-1.31878 33.4293 -1.80925 33.7645 -1.9053 34.2743C-2.00176 34.7841 -1.66698 35.2752 -1.15712 35.3713Z" fill="#999999"/>
<path d="M12.7222 37.8681C13.1681 37.9521 13.5974 37.6587 13.6814 37.2129C13.7655 36.7667 13.4723 36.3375 13.0264 36.2535C12.581 36.1696 12.1516 36.4631 12.0676 36.9089C11.9832 37.3546 12.2768 37.7842 12.7222 37.8681Z" fill="#999999"/>
<path d="M26.5941 40.3997C26.9974 40.4757 27.3858 40.2102 27.4619 39.8065C27.5379 39.4033 27.2727 39.0143 26.8694 38.9383C26.4665 38.8624 26.078 39.1282 26.002 39.5315C25.9259 39.9351 26.1911 40.3237 26.5941 40.3997Z" fill="#999999"/>
<path d="M40.4738 42.897C40.8131 42.9609 41.1404 42.7372 41.2044 42.3976C41.2684 42.058 41.0449 41.7305 40.7056 41.6666C40.3662 41.6027 40.0389 41.8263 39.9749 42.166C39.9109 42.5056 40.134 42.833 40.4738 42.897Z" fill="#999999"/>
<path d="M54.3448 45.4316C54.642 45.4876 54.9284 45.2919 54.9844 44.9948C55.0403 44.6978 54.8448 44.4112 54.5476 44.3552C54.2503 44.2992 53.9643 44.495 53.9084 44.7921C53.8524 45.0892 54.0479 45.3757 54.3448 45.4316Z" fill="#999999"/>
<path d="M68.222 47.9293C68.4557 47.9733 68.6805 47.8197 68.7245 47.5858C68.7685 47.3524 68.615 47.1275 68.3814 47.0835C68.1481 47.0395 67.9233 47.1932 67.8794 47.4266C67.8353 47.6604 67.9888 47.8853 68.222 47.9293Z" fill="#999999"/>
<path d="M82.1013 50.422C82.2707 50.4539 82.4341 50.3423 82.4661 50.1727C82.498 50.0032 82.3864 49.8397 82.217 49.8078C82.0476 49.7759 81.8842 49.8876 81.8523 50.0571C81.8204 50.2266 81.9319 50.3901 82.1013 50.422Z" fill="#999999"/>
<path d="M95.9736 52.9578C96.101 52.9818 96.2231 52.898 96.2471 52.7705C96.2712 52.643 96.1879 52.5205 96.0605 52.4965C95.9332 52.4726 95.8106 52.5563 95.7866 52.6837C95.763 52.8113 95.8467 52.9339 95.9736 52.9578Z" fill="#999999"/>
<path d="M109.853 55.4508C109.917 55.4627 109.978 55.4206 109.99 55.3575C110.002 55.2939 109.96 55.2328 109.896 55.2209C109.833 55.2089 109.771 55.251 109.76 55.3141C109.748 55.3773 109.789 55.4387 109.853 55.4508Z" fill="#999999"/>
<path d="M123.725 57.9826C123.746 57.9865 123.766 57.9723 123.77 57.9513C123.774 57.9302 123.761 57.9096 123.74 57.9057C123.718 57.9016 123.698 57.9158 123.694 57.9369C123.69 57.9579 123.704 57.9785 123.725 57.9826Z" fill="#999999"/>
<path d="M10.088 51.8518C10.5974 51.9477 11.0879 51.6125 11.1839 51.1027C11.28 50.5929 10.9452 50.1017 10.4358 50.0058C9.92633 49.9098 9.43579 50.2454 9.33974 50.7552C9.24376 51.2646 9.57854 51.7558 10.088 51.8518Z" fill="#999999"/>
<path d="M23.9673 54.3486C24.4132 54.4326 24.8426 54.1392 24.9265 53.6934C25.0106 53.2472 24.7174 52.818 24.2715 52.734C23.8261 52.6501 23.3967 52.9435 23.3127 53.3893C23.2288 53.8351 23.5219 54.2647 23.9673 54.3486Z" fill="#999999"/>
<path d="M37.8392 56.8801C38.2425 56.9561 38.6309 56.6906 38.707 56.287C38.783 55.8833 38.5179 55.4947 38.1145 55.4187C37.7116 55.3428 37.3232 55.6083 37.2471 56.0119C37.1707 56.4155 37.4358 56.8041 37.8392 56.8801Z" fill="#999999"/>
<path d="M51.7189 59.3735C52.0582 59.4375 52.3855 59.2138 52.4495 58.8742C52.5135 58.5346 52.29 58.2071 51.9507 58.1432C51.6113 58.0792 51.284 58.3029 51.22 58.6425C51.1565 58.9822 51.3795 59.3096 51.7189 59.3735Z" fill="#999999"/>
<path d="M65.5902 61.9086C65.8875 61.9647 66.1734 61.7688 66.2294 61.4718C66.2855 61.1743 66.0899 60.8878 65.7931 60.8319C65.4962 60.7759 65.2095 60.9716 65.1534 61.2691C65.0978 61.5666 65.293 61.8526 65.5902 61.9086Z" fill="#999999"/>
<path d="M79.4685 64.4059C79.7018 64.4499 79.9265 64.2962 79.9705 64.0628C80.0146 63.829 79.8611 63.6041 79.6279 63.5601C79.3942 63.5161 79.1694 63.6697 79.1254 63.9036C79.0814 64.137 79.2348 64.3619 79.4685 64.4059Z" fill="#999999"/>
<path d="M93.3474 66.8986C93.5168 66.9305 93.6802 66.8188 93.7122 66.6493C93.7441 66.4798 93.6326 66.3163 93.4631 66.2844C93.2937 66.2525 93.1303 66.3641 93.0984 66.5337C93.0665 66.7032 93.178 66.8667 93.3474 66.8986Z" fill="#999999"/>
<path d="M107.219 69.4344C107.346 69.4583 107.468 69.3745 107.492 69.2471C107.516 69.1196 107.433 68.9971 107.306 68.9731C107.178 68.9491 107.056 69.0329 107.032 69.1603C107.008 69.2879 107.092 69.4105 107.219 69.4344Z" fill="#999999"/>
<path d="M121.098 71.9273C121.162 71.9393 121.223 71.8972 121.235 71.834C121.247 71.7705 121.205 71.7094 121.142 71.6975C121.078 71.6855 121.017 71.7276 121.005 71.7907C120.993 71.8542 121.034 71.9153 121.098 71.9273Z" fill="#999999"/>
<path d="M134.97 74.4629C134.991 74.467 135.011 74.4528 135.015 74.4317C135.019 74.4107 135.006 74.3901 134.984 74.3861C134.963 74.3821 134.943 74.3963 134.939 74.4173C134.935 74.4383 134.948 74.4589 134.97 74.4629Z" fill="#999999"/>
<path d="M7.45448 65.8345C8.02751 65.9424 8.57957 65.5651 8.68761 64.9916C8.79565 64.4182 8.41874 63.8659 7.84571 63.7579C7.27309 63.65 6.72102 64.0273 6.61298 64.6008C6.50454 65.1741 6.88146 65.7265 7.45448 65.8345Z" fill="#999999"/>
<path d="M21.3341 68.3279C21.8436 68.4239 22.3345 68.0887 22.4305 67.5789C22.5266 67.0691 22.1917 66.5784 21.6819 66.4823C21.1724 66.3863 20.6819 66.722 20.5859 67.2314C20.4899 67.7412 20.8251 68.232 21.3341 68.3279Z" fill="#999999"/>
<path d="M35.2134 70.8252C35.6589 70.9091 36.0882 70.6156 36.1722 70.1698C36.2562 69.7241 35.9631 69.2945 35.5176 69.2106C35.0718 69.1266 34.6428 69.4201 34.5588 69.8659C34.4749 70.3117 34.7676 70.7412 35.2134 70.8252Z" fill="#999999"/>
<path d="M49.0844 73.3563C49.4877 73.4323 49.8761 73.1668 49.9521 72.7636C50.0282 72.3599 49.763 71.9713 49.3596 71.8953C48.9567 71.8194 48.5683 72.0849 48.4922 72.4885C48.4162 72.8918 48.6814 73.2804 49.0844 73.3563Z" fill="#999999"/>
<path d="M62.962 75.854C63.3014 75.9179 63.6287 75.6942 63.6927 75.3546C63.7567 75.015 63.5332 74.6876 63.1938 74.6236C62.8545 74.5597 62.5272 74.7834 62.4632 75.123C62.3991 75.463 62.6227 75.7901 62.962 75.854Z" fill="#999999"/>
<path d="M76.8339 78.389C77.1312 78.445 77.4176 78.2493 77.4736 77.9518C77.5297 77.6544 77.3341 77.3683 77.0368 77.3123C76.7396 77.2563 76.4536 77.452 76.3976 77.7491C76.3417 78.0462 76.5367 78.333 76.8339 78.389Z" fill="#999999"/>
<path d="M90.7107 80.8864C90.944 80.9303 91.1687 80.7767 91.2127 80.5433C91.2568 80.3094 91.1033 80.0845 90.8701 80.0406C90.6364 79.9966 90.4116 80.1502 90.3676 80.384C90.3236 80.6175 90.4774 80.8424 90.7107 80.8864Z" fill="#999999"/>
<path d="M104.59 83.3752C104.759 83.4071 104.922 83.2955 104.954 83.1259C104.986 82.9562 104.875 82.7929 104.705 82.7609C104.536 82.729 104.373 82.8406 104.341 83.0102C104.309 83.1798 104.42 83.3432 104.59 83.3752Z" fill="#999999"/>
<path d="M118.461 85.9105C118.588 85.9344 118.71 85.8511 118.734 85.7236C118.758 85.5962 118.675 85.4736 118.548 85.4497C118.42 85.4257 118.298 85.5094 118.274 85.6369C118.25 85.7643 118.334 85.8865 118.461 85.9105Z" fill="#999999"/>
<path d="M132.338 88.4038C132.402 88.4158 132.463 88.3737 132.475 88.3106C132.487 88.2467 132.445 88.1859 132.381 88.174C132.318 88.162 132.257 88.2037 132.245 88.2673C132.233 88.3303 132.275 88.3918 132.338 88.4038Z" fill="#999999"/>
<path d="M146.21 90.9395C146.231 90.9435 146.252 90.9293 146.256 90.9083C146.26 90.8872 146.246 90.8667 146.225 90.8626C146.204 90.8587 146.183 90.8729 146.179 90.8939C146.175 90.9153 146.189 90.9355 146.21 90.9395Z" fill="#999999"/>
<path d="M4.82768 79.7799C5.44322 79.8959 6.0362 79.4906 6.15218 78.875C6.26824 78.259 5.8634 77.6657 5.24785 77.5497C4.63271 77.4338 4.03972 77.8391 3.92366 78.4551C3.8072 79.0711 4.21213 79.664 4.82768 79.7799Z" fill="#999999"/>
<path d="M18.6996 82.315C19.2726 82.4229 19.8247 82.0456 19.9327 81.4721C20.0408 80.8987 19.6639 80.3463 19.0908 80.2384C18.5178 80.1304 17.9661 80.5078 17.8581 81.0813C17.7501 81.6547 18.127 82.2071 18.6996 82.315Z" fill="#999999"/>
<path d="M32.5793 84.8045C33.0887 84.9004 33.5792 84.5652 33.6752 84.0554C33.7712 83.546 33.436 83.0548 32.927 82.9589C32.4175 82.8629 31.927 83.1985 31.831 83.7079C31.7351 84.2174 32.0698 84.7085 32.5793 84.8045Z" fill="#999999"/>
<path d="M46.4565 87.3021C46.9024 87.3861 47.3317 87.0927 47.4158 86.6465C47.4998 86.2003 47.2066 85.7711 46.7608 85.6871C46.3149 85.6031 45.886 85.8967 45.802 86.3424C45.7179 86.7886 46.0111 87.2182 46.4565 87.3021Z" fill="#999999"/>
<path d="M60.3289 89.8368C60.7323 89.9128 61.1207 89.6473 61.1967 89.2441C61.2727 88.8404 61.0075 88.4518 60.6042 88.3758C60.2008 88.2999 59.8124 88.5653 59.7364 88.969C59.6604 89.3722 59.9256 89.7608 60.3289 89.8368Z" fill="#999999"/>
<path d="M74.2081 92.3306C74.5475 92.3945 74.8748 92.1708 74.9388 91.8312C75.0028 91.4916 74.7793 91.1641 74.4399 91.1002C74.1006 91.0363 73.7733 91.26 73.7093 91.5996C73.6453 91.9392 73.8684 92.2666 74.2081 92.3306Z" fill="#999999"/>
<path d="M88.0761 94.8656C88.3734 94.9216 88.6594 94.7258 88.7154 94.4283C88.7714 94.1309 88.5758 93.8447 88.279 93.7888C87.9822 93.7329 87.6958 93.9286 87.6398 94.2257C87.5838 94.5232 87.7793 94.8097 88.0761 94.8656Z" fill="#999999"/>
<path d="M101.956 97.363C102.189 97.4069 102.414 97.2533 102.458 97.0198C102.502 96.786 102.348 96.5611 102.115 96.5172C101.882 96.4731 101.657 96.6268 101.613 96.8606C101.569 97.094 101.722 97.3189 101.956 97.363Z" fill="#999999"/>
<path d="M115.833 99.8557C116.003 99.8876 116.166 99.7759 116.198 99.6064C116.23 99.4369 116.118 99.2734 115.949 99.2415C115.779 99.2096 115.616 99.3212 115.584 99.4907C115.552 99.6602 115.663 99.8237 115.833 99.8557Z" fill="#999999"/>
<path d="M129.705 102.391C129.832 102.415 129.955 102.331 129.979 102.204C130.003 102.077 129.919 101.954 129.792 101.93C129.665 101.906 129.542 101.99 129.518 102.117C129.494 102.244 129.578 102.367 129.705 102.391Z" fill="#999999"/>
<path d="M143.584 104.885C143.648 104.897 143.709 104.855 143.721 104.792C143.733 104.728 143.691 104.666 143.628 104.655C143.564 104.643 143.503 104.685 143.491 104.748C143.479 104.812 143.521 104.873 143.584 104.885Z" fill="#999999"/>
<path d="M157.456 107.416C157.477 107.42 157.497 107.406 157.501 107.385C157.505 107.364 157.491 107.343 157.47 107.339C157.449 107.335 157.428 107.349 157.424 107.37C157.42 107.392 157.434 107.412 157.456 107.416Z" fill="#999999"/>
<path d="M2.19457 93.7588C2.8737 93.8868 3.5278 93.4397 3.65584 92.7601C3.78389 92.0804 3.33731 91.426 2.65819 91.298C1.97906 91.1701 1.32495 91.6172 1.1969 92.2968C1.06893 92.976 1.51545 93.6309 2.19457 93.7588Z" fill="#999999"/>
<path d="M16.0738 96.2565C16.6893 96.3724 17.2823 95.9672 17.3983 95.3516C17.5143 94.7356 17.1095 94.1423 16.4939 94.0263C15.8784 93.9103 15.2858 94.3157 15.1698 94.9317C15.0538 95.5473 15.4582 96.1405 16.0738 96.2565Z" fill="#999999"/>
<path d="M29.9452 98.7873C30.5182 98.8952 31.0703 98.5179 31.1782 97.9449C31.2863 97.3714 30.9094 96.8191 30.3364 96.7111C29.7637 96.6032 29.2113 96.9805 29.1032 97.5539C28.9952 98.127 29.3722 98.6793 29.9452 98.7873Z" fill="#999999"/>
<path d="M43.8194 101.285C44.3289 101.381 44.8197 101.046 44.9158 100.536C45.0118 100.027 44.6767 99.5353 44.1672 99.4394C43.6582 99.3434 43.1673 99.6786 43.0712 100.189C42.9756 100.698 43.3104 101.189 43.8194 101.285Z" fill="#999999"/>
<path d="M57.6987 103.779C58.1446 103.863 58.5736 103.569 58.6575 103.123C58.7416 102.677 58.4484 102.248 58.003 102.164C57.5571 102.08 57.1281 102.374 57.0441 102.819C56.9601 103.265 57.2528 103.695 57.6987 103.779Z" fill="#999999"/>
<path d="M71.5711 106.317C71.974 106.393 72.3629 106.128 72.4388 105.725C72.5149 105.321 72.2493 104.932 71.8464 104.856C71.443 104.78 71.0546 105.046 70.9785 105.449C70.9026 105.853 71.1678 106.241 71.5711 106.317Z" fill="#999999"/>
<path d="M85.4507 108.807C85.7901 108.871 86.1174 108.647 86.1814 108.308C86.2454 107.968 86.0219 107.641 85.6825 107.577C85.3432 107.513 85.0155 107.737 84.9515 108.076C84.8879 108.416 85.1113 108.743 85.4507 108.807Z" fill="#999999"/>
<path d="M99.3217 111.342C99.619 111.398 99.9049 111.202 99.9609 110.905C100.017 110.608 99.8218 110.321 99.5245 110.265C99.2273 110.209 98.9409 110.405 98.8849 110.702C98.829 110.999 99.0245 111.286 99.3217 111.342Z" fill="#999999"/>
<path d="M113.2 113.839C113.433 113.883 113.658 113.73 113.702 113.496C113.746 113.263 113.593 113.038 113.359 112.994C113.126 112.95 112.901 113.103 112.857 113.337C112.813 113.571 112.966 113.795 113.2 113.839Z" fill="#999999"/>
<path d="M127.078 116.333C127.248 116.365 127.411 116.253 127.443 116.083C127.475 115.914 127.363 115.75 127.194 115.718C127.024 115.686 126.861 115.798 126.829 115.968C126.797 116.138 126.908 116.301 127.078 116.333Z" fill="#999999"/>
<path d="M140.95 118.867C141.077 118.891 141.199 118.808 141.223 118.681C141.247 118.553 141.164 118.431 141.037 118.407C140.91 118.383 140.787 118.466 140.763 118.594C140.739 118.721 140.823 118.844 140.95 118.867Z" fill="#999999"/>
<path d="M154.829 121.365C154.893 121.377 154.954 121.335 154.966 121.272C154.978 121.208 154.936 121.147 154.873 121.135C154.809 121.123 154.748 121.165 154.736 121.229C154.724 121.292 154.766 121.353 154.829 121.365Z" fill="#999999"/>
<path d="M168.702 123.896C168.723 123.9 168.743 123.886 168.747 123.865C168.751 123.844 168.737 123.824 168.716 123.82C168.695 123.816 168.675 123.83 168.67 123.851C168.667 123.872 168.681 123.892 168.702 123.896Z" fill="#999999"/>
<path d="M-0.439918 107.745C0.302787 107.885 1.0185 107.396 1.15845 106.653C1.29848 105.91 0.809847 105.194 0.0671421 105.054C-0.675563 104.914 -1.39088 105.403 -1.53092 106.147C-1.67128 106.889 -1.18262 107.606 -0.439918 107.745Z" fill="#999999"/>
<path d="M13.4397 110.235C14.1188 110.363 14.7729 109.916 14.901 109.237C15.029 108.557 14.5824 107.903 13.9033 107.775C13.2242 107.647 12.5701 108.094 12.442 108.773C12.314 109.453 12.7605 110.107 13.4397 110.235Z" fill="#999999"/>
<path d="M27.3169 112.733C27.9325 112.849 28.5255 112.444 28.6414 111.828C28.7575 111.212 28.3527 110.619 27.7371 110.503C27.1216 110.387 26.529 110.792 26.4129 111.408C26.2966 112.023 26.7014 112.617 27.3169 112.733Z" fill="#999999"/>
<path d="M41.1854 115.268C41.7584 115.376 42.3105 114.998 42.4185 114.425C42.5265 113.852 42.1496 113.3 41.5766 113.192C41.004 113.084 40.4515 113.461 40.3434 114.034C40.2355 114.607 40.6128 115.16 41.1854 115.268Z" fill="#999999"/>
<path d="M55.0646 117.762C55.574 117.858 56.0645 117.523 56.1605 117.013C56.2566 116.503 55.9214 116.012 55.4123 115.916C54.9029 115.82 54.4124 116.155 54.3163 116.665C54.2202 117.175 54.5555 117.666 55.0646 117.762Z" fill="#999999"/>
<path d="M68.9438 120.259C69.3897 120.343 69.8187 120.049 69.9026 119.604C69.9867 119.158 69.6936 118.728 69.2481 118.644C68.8026 118.56 68.3733 118.854 68.2892 119.3C68.2049 119.745 68.498 120.175 68.9438 120.259Z" fill="#999999"/>
<path d="M82.8162 122.79C83.2192 122.866 83.6076 122.6 83.6836 122.197C83.7596 121.794 83.4944 121.405 83.0915 121.329C82.6881 121.253 82.2997 121.518 82.2237 121.922C82.1477 122.325 82.4129 122.714 82.8162 122.79Z" fill="#999999"/>
<path d="M96.6938 125.284C97.0332 125.348 97.3605 125.124 97.4245 124.785C97.4885 124.445 97.2651 124.117 96.9257 124.053C96.5863 123.989 96.2586 124.213 96.1946 124.553C96.1305 124.893 96.3545 125.22 96.6938 125.284Z" fill="#999999"/>
<path d="M110.566 127.823C110.863 127.879 111.149 127.683 111.205 127.386C111.261 127.088 111.065 126.802 110.769 126.746C110.471 126.69 110.185 126.886 110.129 127.183C110.073 127.48 110.269 127.767 110.566 127.823Z" fill="#999999"/>
<path d="M124.445 130.32C124.678 130.364 124.903 130.21 124.947 129.977C124.991 129.743 124.838 129.518 124.604 129.474C124.371 129.43 124.146 129.584 124.102 129.818C124.058 130.051 124.211 130.276 124.445 130.32Z" fill="#999999"/>
<path d="M138.324 132.809C138.493 132.841 138.657 132.729 138.689 132.56C138.721 132.39 138.609 132.227 138.44 132.195C138.27 132.163 138.107 132.274 138.075 132.444C138.043 132.614 138.154 132.777 138.324 132.809Z" fill="#999999"/>
<path d="M152.195 135.344C152.322 135.368 152.444 135.284 152.468 135.157C152.492 135.03 152.409 134.907 152.282 134.883C152.155 134.859 152.032 134.943 152.008 135.07C151.984 135.198 152.068 135.32 152.195 135.344Z" fill="#999999"/>
<path d="M166.074 137.842C166.138 137.854 166.199 137.812 166.211 137.748C166.223 137.685 166.181 137.623 166.118 137.611C166.054 137.6 165.993 137.642 165.981 137.705C165.969 137.768 166.011 137.83 166.074 137.842Z" fill="#999999"/>
<path d="M179.947 140.373C179.968 140.377 179.988 140.363 179.992 140.342C179.996 140.321 179.982 140.3 179.961 140.296C179.94 140.292 179.92 140.306 179.916 140.328C179.912 140.349 179.926 140.369 179.947 140.373Z" fill="#999999"/>
<path d="M10.8006 124.223C11.5433 124.362 12.2591 123.873 12.3991 123.13C12.5391 122.387 12.0505 121.671 11.3078 121.531C10.5651 121.391 9.84935 121.88 9.70932 122.623C9.56921 123.367 10.0583 124.083 10.8006 124.223Z" fill="#999999"/>
<path d="M24.6799 126.716C25.359 126.844 26.0132 126.397 26.1412 125.717C26.2692 125.037 25.8227 124.383 25.1435 124.255C24.4644 124.127 23.8103 124.574 23.6823 125.254C23.5542 125.933 24.0008 126.588 24.6799 126.716Z" fill="#999999"/>
<path d="M38.559 129.21C39.1746 129.326 39.7672 128.921 39.8832 128.305C39.9992 127.689 39.5944 127.095 38.9793 126.979C38.3637 126.863 37.7712 127.269 37.6551 127.885C37.5391 128.501 37.9439 129.094 38.559 129.21Z" fill="#999999"/>
<path d="M52.4315 131.748C53.0045 131.856 53.5566 131.479 53.6646 130.905C53.7726 130.332 53.3957 129.78 52.8227 129.672C52.2497 129.564 51.6976 129.941 51.5896 130.514C51.4816 131.088 51.8585 131.64 52.4315 131.748Z" fill="#999999"/>
<path d="M66.3107 134.238C66.8202 134.334 67.3106 133.999 67.4067 133.489C67.5027 132.979 67.1679 132.488 66.6584 132.392C66.149 132.296 65.6585 132.632 65.5625 133.142C65.4661 133.651 65.8013 134.142 66.3107 134.238Z" fill="#999999"/>
<path d="M80.188 136.736C80.6338 136.82 81.0628 136.526 81.1468 136.08C81.2308 135.634 80.9377 135.205 80.4922 135.121C80.0464 135.037 79.6174 135.33 79.5335 135.776C79.4494 136.222 79.7425 136.652 80.188 136.736Z" fill="#999999"/>
<path d="M94.0604 139.27C94.4633 139.346 94.8517 139.081 94.9278 138.677C95.0038 138.274 94.7386 137.885 94.3356 137.809C93.9323 137.733 93.5439 137.999 93.4679 138.402C93.3918 138.806 93.657 139.194 94.0604 139.27Z" fill="#999999"/>
<path d="M107.94 141.764C108.279 141.828 108.607 141.604 108.671 141.265C108.735 140.925 108.511 140.598 108.172 140.534C107.832 140.47 107.505 140.694 107.441 141.033C107.377 141.373 107.6 141.7 107.94 141.764Z" fill="#999999"/>
<path d="M121.811 144.299C122.108 144.355 122.394 144.159 122.45 143.862C122.506 143.565 122.311 143.278 122.013 143.222C121.717 143.166 121.43 143.362 121.374 143.659C121.318 143.956 121.513 144.243 121.811 144.299Z" fill="#999999"/>
<path d="M135.69 146.793C135.924 146.837 136.149 146.683 136.193 146.45C136.237 146.216 136.083 145.991 135.85 145.947C135.616 145.903 135.391 146.056 135.347 146.29C135.303 146.524 135.457 146.749 135.69 146.793Z" fill="#999999"/>
<path d="M149.569 149.286C149.738 149.318 149.902 149.206 149.934 149.036C149.966 148.866 149.854 148.703 149.685 148.671C149.515 148.639 149.352 148.751 149.32 148.92C149.288 149.09 149.4 149.254 149.569 149.286Z" fill="#999999"/>
<path d="M163.441 151.824C163.569 151.848 163.691 151.764 163.715 151.637C163.739 151.51 163.655 151.388 163.528 151.364C163.401 151.34 163.278 151.424 163.254 151.551C163.231 151.678 163.314 151.8 163.441 151.824Z" fill="#999999"/>
<path d="M177.316 154.318C177.379 154.33 177.441 154.288 177.453 154.225C177.465 154.161 177.422 154.1 177.359 154.088C177.296 154.076 177.234 154.118 177.222 154.181C177.211 154.245 177.253 154.306 177.316 154.318Z" fill="#999999"/>
<path d="M191.187 156.849C191.208 156.853 191.229 156.84 191.233 156.818C191.237 156.797 191.223 156.777 191.201 156.773C191.18 156.769 191.16 156.783 191.156 156.804C191.152 156.825 191.166 156.845 191.187 156.849Z" fill="#999999"/>
<path d="M8.17441 138.164C8.95963 138.312 9.71627 137.795 9.86432 137.009C10.0124 136.223 9.49571 135.467 8.71048 135.319C7.92525 135.171 7.16911 135.687 7.02106 136.473C6.87301 137.259 7.38918 138.016 8.17441 138.164Z" fill="#999999"/>
<path d="M22.0458 140.695C22.7885 140.835 23.5042 140.346 23.6442 139.603C23.7842 138.859 23.2956 138.143 22.5529 138.003C21.8102 137.863 21.0945 138.353 20.9544 139.096C20.8144 139.839 21.3031 140.555 22.0458 140.695Z" fill="#999999"/>
<path d="M35.925 143.192C36.6042 143.32 37.2587 142.873 37.3867 142.194C37.5148 141.514 37.0678 140.86 36.3886 140.732C35.7095 140.604 35.0554 141.051 34.9274 141.73C34.7993 142.41 35.2463 143.065 35.925 143.192Z" fill="#999999"/>
<path d="M49.8042 145.69C50.4198 145.806 51.0124 145.401 51.1284 144.785C51.2445 144.169 50.8396 143.576 50.2244 143.46C49.6089 143.344 49.0163 143.749 48.9003 144.365C48.7842 144.981 49.1887 145.574 49.8042 145.69Z" fill="#999999"/>
<path d="M63.6766 148.225C64.2496 148.333 64.8017 147.956 64.9097 147.382C65.0177 146.809 64.6408 146.257 64.0678 146.149C63.4948 146.041 62.9426 146.418 62.8347 146.991C62.7266 147.565 63.1035 148.117 63.6766 148.225Z" fill="#999999"/>
<path d="M77.5562 150.719C78.0657 150.815 78.5561 150.479 78.6522 149.97C78.7483 149.46 78.4134 148.969 77.904 148.873C77.3945 148.777 76.9036 149.112 76.8076 149.622C76.7119 150.132 77.0472 150.623 77.5562 150.719Z" fill="#999999"/>
<path d="M91.4336 153.212C91.8795 153.296 92.3084 153.002 92.3924 152.557C92.4764 152.111 92.1832 151.681 91.7378 151.597C91.2919 151.513 90.8626 151.807 90.7786 152.253C90.6946 152.698 90.9877 153.128 91.4336 153.212Z" fill="#999999"/>
<path d="M105.305 155.751C105.708 155.827 106.097 155.561 106.173 155.158C106.249 154.754 105.984 154.366 105.581 154.29C105.177 154.214 104.789 154.479 104.713 154.883C104.637 155.286 104.902 155.675 105.305 155.751Z" fill="#999999"/>
<path d="M119.185 158.241C119.524 158.305 119.852 158.081 119.916 157.741C119.98 157.401 119.756 157.074 119.416 157.01C119.077 156.946 118.75 157.17 118.686 157.51C118.622 157.849 118.845 158.177 119.185 158.241Z" fill="#999999"/>
<path d="M133.056 160.775C133.353 160.831 133.639 160.636 133.695 160.338C133.751 160.041 133.555 159.755 133.258 159.699C132.962 159.643 132.675 159.838 132.619 160.136C132.563 160.433 132.759 160.719 133.056 160.775Z" fill="#999999"/>
<path d="M146.935 163.273C147.169 163.317 147.393 163.163 147.437 162.93C147.481 162.696 147.328 162.471 147.094 162.427C146.861 162.383 146.636 162.537 146.592 162.77C146.548 163.004 146.702 163.229 146.935 163.273Z" fill="#999999"/>
<path d="M160.809 165.766C160.979 165.798 161.142 165.686 161.174 165.516C161.206 165.347 161.094 165.183 160.925 165.152C160.756 165.12 160.592 165.231 160.56 165.401C160.528 165.57 160.64 165.734 160.809 165.766Z" fill="#999999"/>
<path d="M174.682 168.301C174.809 168.325 174.931 168.241 174.955 168.114C174.979 167.986 174.896 167.864 174.769 167.84C174.641 167.816 174.519 167.9 174.495 168.027C174.471 168.155 174.555 168.277 174.682 168.301Z" fill="#999999"/>
<path d="M188.561 170.799C188.624 170.811 188.685 170.769 188.697 170.705C188.709 170.642 188.668 170.58 188.604 170.569C188.541 170.557 188.48 170.599 188.468 170.662C188.455 170.726 188.497 170.787 188.561 170.799Z" fill="#999999"/>
<path d="M202.432 173.33C202.453 173.334 202.474 173.32 202.478 173.299C202.482 173.278 202.468 173.257 202.447 173.253C202.426 173.249 202.405 173.263 202.401 173.284C202.397 173.305 202.411 173.326 202.432 173.33Z" fill="#999999"/>
<path d="M5.54033 152.147C6.38913 152.307 7.20689 151.748 7.36693 150.898C7.52697 150.049 6.96865 149.231 6.11984 149.071C5.27104 148.911 4.45321 149.47 4.29325 150.319C4.13321 151.169 4.69152 151.987 5.54033 152.147Z" fill="#999999"/>
<path d="M19.4195 154.644C20.2048 154.792 20.9614 154.275 21.1094 153.489C21.2575 152.704 20.7408 151.947 19.9556 151.799C19.1704 151.651 18.4142 152.168 18.2662 152.954C18.1177 153.739 18.6343 154.496 19.4195 154.644Z" fill="#999999"/>
<path d="M33.2918 157.18C34.0345 157.319 34.7503 156.83 34.8903 156.087C35.0303 155.344 34.5417 154.628 33.799 154.488C33.0563 154.348 32.3406 154.837 32.2005 155.58C32.0605 156.324 32.5491 157.04 33.2918 157.18Z" fill="#999999"/>
<path d="M47.1711 159.669C47.8503 159.797 48.5044 159.349 48.6324 158.67C48.7605 157.991 48.3135 157.336 47.6348 157.208C46.956 157.08 46.3015 157.527 46.1735 158.207C46.0455 158.886 46.492 159.541 47.1711 159.669Z" fill="#999999"/>
<path d="M61.0503 162.167C61.6659 162.283 62.2585 161.877 62.3745 161.261C62.4906 160.645 62.0856 160.052 61.4705 159.936C60.855 159.82 60.2624 160.226 60.1464 160.841C60.03 161.457 60.4348 162.051 61.0503 162.167Z" fill="#999999"/>
<path d="M74.9217 164.702C75.4947 164.81 76.0468 164.432 76.1548 163.859C76.2629 163.285 75.8859 162.733 75.3129 162.625C74.7399 162.517 74.1878 162.895 74.0798 163.468C73.9717 164.041 74.3487 164.594 74.9217 164.702Z" fill="#999999"/>
<path d="M88.8003 167.196C89.3094 167.291 89.8003 166.956 89.8963 166.446C89.9924 165.936 89.6575 165.446 89.1481 165.35C88.6387 165.254 88.1478 165.589 88.0517 166.099C87.9557 166.608 88.2909 167.1 88.8003 167.196Z" fill="#999999"/>
<path d="M102.679 169.692C103.124 169.776 103.553 169.483 103.637 169.037C103.722 168.591 103.428 168.162 102.983 168.078C102.537 167.994 102.108 168.287 102.024 168.733C101.94 169.179 102.233 169.608 102.679 169.692Z" fill="#999999"/>
<path d="M116.55 172.223C116.954 172.299 117.342 172.034 117.418 171.63C117.494 171.227 117.229 170.838 116.825 170.762C116.423 170.687 116.034 170.952 115.958 171.355C115.882 171.759 116.147 172.147 116.55 172.223Z" fill="#999999"/>
<path d="M130.427 174.718C130.767 174.782 131.093 174.558 131.158 174.218C131.222 173.878 130.998 173.551 130.659 173.487C130.319 173.423 129.992 173.647 129.928 173.986C129.864 174.326 130.087 174.654 130.427 174.718Z" fill="#999999"/>
<path d="M144.297 177.256C144.594 177.312 144.88 177.116 144.936 176.819C144.992 176.522 144.797 176.235 144.5 176.179C144.203 176.124 143.916 176.319 143.861 176.616C143.805 176.913 144 177.2 144.297 177.256Z" fill="#999999"/>
<path d="M158.176 179.746C158.41 179.79 158.635 179.636 158.679 179.402C158.723 179.169 158.569 178.944 158.335 178.9C158.102 178.856 157.877 179.01 157.833 179.243C157.789 179.476 157.943 179.702 158.176 179.746Z" fill="#999999"/>
<path d="M172.055 182.242C172.225 182.274 172.388 182.163 172.42 181.993C172.452 181.824 172.341 181.66 172.171 181.628C172.002 181.596 171.838 181.708 171.806 181.877C171.774 182.047 171.886 182.21 172.055 182.242Z" fill="#999999"/>
<path d="M185.927 184.778C186.054 184.802 186.177 184.718 186.201 184.591C186.225 184.463 186.141 184.341 186.014 184.317C185.886 184.293 185.764 184.376 185.74 184.504C185.716 184.631 185.799 184.754 185.927 184.778Z" fill="#999999"/>
<path d="M199.806 187.275C199.869 187.287 199.93 187.245 199.942 187.182C199.954 187.118 199.912 187.057 199.849 187.045C199.785 187.033 199.725 187.075 199.713 187.138C199.701 187.202 199.742 187.263 199.806 187.275Z" fill="#999999"/>
<path d="M213.678 189.807C213.699 189.811 213.72 189.797 213.723 189.776C213.727 189.754 213.714 189.734 213.693 189.73C213.672 189.726 213.651 189.74 213.647 189.761C213.643 189.782 213.657 189.803 213.678 189.807Z" fill="#999999"/>
<path d="M2.90616 166.13C3.81855 166.302 4.69792 165.701 4.86994 164.788C5.04196 163.875 4.44159 162.995 3.5292 162.823C2.61682 162.651 1.73745 163.252 1.56543 164.165C1.3934 165.078 1.99377 165.958 2.90616 166.13Z" fill="#999999"/>
<path d="M16.7859 168.623C17.6347 168.783 18.4524 168.224 18.6124 167.375C18.7725 166.526 18.2142 165.707 17.3654 165.547C16.5166 165.388 15.6983 165.947 15.5384 166.796C15.3784 167.645 15.9371 168.463 16.7859 168.623Z" fill="#999999"/>
<path d="M30.6646 171.121C31.4499 171.269 32.2065 170.752 32.3546 169.966C32.5026 169.18 31.9859 168.424 31.2007 168.276C30.4155 168.128 29.6593 168.645 29.5113 169.43C29.3633 170.216 29.8798 170.973 30.6646 171.121Z" fill="#999999"/>
<path d="M44.537 173.656C45.2797 173.796 45.9954 173.307 46.1354 172.564C46.2755 171.82 45.7868 171.104 45.0441 170.964C44.3014 170.824 43.5857 171.314 43.4456 172.057C43.3056 172.8 43.7943 173.516 44.537 173.656Z" fill="#999999"/>
<path d="M58.4162 176.149C59.0953 176.277 59.7495 175.83 59.8775 175.151C60.0055 174.471 59.5589 173.817 58.8799 173.689C58.2008 173.561 57.5466 174.008 57.4186 174.687C57.2906 175.367 57.7372 176.022 58.4162 176.149Z" fill="#999999"/>
<path d="M72.294 178.647C72.9095 178.763 73.5021 178.357 73.6181 177.742C73.7341 177.126 73.3292 176.533 72.7141 176.417C72.0985 176.301 71.5055 176.706 71.3896 177.322C71.2736 177.938 71.6788 178.531 72.294 178.647Z" fill="#999999"/>
<path d="M86.1658 181.178C86.7384 181.286 87.2909 180.909 87.3989 180.335C87.507 179.762 87.1301 179.21 86.5571 179.102C85.984 178.994 85.432 179.371 85.3239 179.945C85.2159 180.518 85.5928 181.07 86.1658 181.178Z" fill="#999999"/>
<path d="M100.045 183.672C100.555 183.768 101.045 183.433 101.141 182.923C101.238 182.413 100.903 181.922 100.393 181.826C99.8837 181.73 99.3929 182.065 99.2968 182.575C99.2008 183.085 99.5356 183.576 100.045 183.672Z" fill="#999999"/>
<path d="M113.92 186.169C114.366 186.253 114.796 185.959 114.88 185.514C114.964 185.068 114.67 184.638 114.225 184.554C113.779 184.47 113.35 184.764 113.266 185.21C113.182 185.655 113.475 186.085 113.92 186.169Z" fill="#999999"/>
<path d="M127.792 188.704C128.196 188.78 128.584 188.515 128.66 188.111C128.736 187.708 128.471 187.319 128.068 187.243C127.665 187.167 127.276 187.433 127.2 187.836C127.124 188.24 127.389 188.628 127.792 188.704Z" fill="#999999"/>
<path d="M141.67 191.198C142.009 191.262 142.337 191.038 142.401 190.698C142.465 190.359 142.242 190.031 141.902 189.967C141.562 189.903 141.235 190.127 141.171 190.467C141.107 190.806 141.33 191.134 141.67 191.198Z" fill="#999999"/>
<path d="M155.542 193.733C155.839 193.789 156.125 193.593 156.181 193.296C156.237 192.998 156.042 192.712 155.745 192.656C155.448 192.6 155.162 192.796 155.106 193.093C155.05 193.39 155.245 193.677 155.542 193.733Z" fill="#999999"/>
<path d="M169.422 196.226C169.655 196.27 169.88 196.117 169.924 195.883C169.968 195.649 169.815 195.424 169.581 195.38C169.348 195.336 169.123 195.49 169.079 195.724C169.035 195.957 169.188 196.182 169.422 196.226Z" fill="#999999"/>
<path d="M183.301 198.719C183.47 198.751 183.633 198.639 183.665 198.47C183.697 198.3 183.586 198.137 183.416 198.105C183.247 198.073 183.083 198.184 183.052 198.354C183.02 198.524 183.131 198.687 183.301 198.719Z" fill="#999999"/>
<path d="M197.172 201.255C197.299 201.279 197.421 201.195 197.445 201.067C197.469 200.94 197.386 200.817 197.259 200.793C197.131 200.769 197.009 200.853 196.985 200.981C196.961 201.108 197.045 201.231 197.172 201.255Z" fill="#999999"/>
<path d="M211.051 203.748C211.115 203.76 211.176 203.718 211.188 203.654C211.2 203.591 211.158 203.53 211.095 203.518C211.031 203.506 210.97 203.548 210.958 203.611C210.946 203.675 210.988 203.736 211.051 203.748Z" fill="#999999"/>
<path d="M224.923 206.283C224.944 206.287 224.965 206.273 224.969 206.252C224.973 206.231 224.959 206.21 224.938 206.206C224.916 206.202 224.896 206.217 224.892 206.238C224.888 206.259 224.902 206.279 224.923 206.283Z" fill="#999999"/>
<path d="M0.279863 180.076C1.23477 180.256 2.15505 179.627 2.33509 178.671C2.51513 177.715 1.88682 176.795 0.931912 176.615C-0.0229949 176.435 -0.942863 177.064 -1.1229 178.02C-1.30294 178.975 -0.675043 179.896 0.279863 180.076Z" fill="#999999"/>
<path d="M14.1523 182.607C15.0647 182.778 15.9439 182.178 16.116 181.264C16.2881 180.351 15.6881 179.472 14.7753 179.3C13.8625 179.128 12.9836 179.728 12.8115 180.642C12.6394 181.555 13.2395 182.435 14.1523 182.607Z" fill="#999999"/>
<path d="M28.6384 185.115C29.4848 184.942 30.0306 184.115 29.8574 183.268C29.6841 182.421 28.8576 181.875 28.0111 182.049C27.1647 182.223 26.6189 183.05 26.7922 183.896C26.9654 184.743 27.792 185.289 28.6384 185.115Z" fill="#999999"/>
<path d="M41.9107 187.598C42.696 187.745 43.4526 187.228 43.6006 186.443C43.7486 185.657 43.232 184.9 42.4468 184.752C41.6616 184.604 40.9054 185.121 40.7573 185.907C40.6093 186.693 41.1255 187.45 41.9107 187.598Z" fill="#999999"/>
<path d="M55.7821 190.129C56.5248 190.269 57.2405 189.78 57.3805 189.036C57.5206 188.293 57.0319 187.577 56.2892 187.437C55.5465 187.297 54.8308 187.786 54.6908 188.529C54.5507 189.273 55.039 189.989 55.7821 190.129Z" fill="#999999"/>
<path d="M69.6604 192.626C70.3395 192.754 70.9937 192.306 71.1217 191.627C71.2496 190.948 70.8031 190.293 70.124 190.165C69.4449 190.037 68.7907 190.485 68.6627 191.164C68.5348 191.843 68.9817 192.498 69.6604 192.626Z" fill="#999999"/>
<path d="M83.5362 195.123C84.1517 195.239 84.7443 194.834 84.8603 194.218C84.9763 193.602 84.5714 193.009 83.9563 192.894C83.3407 192.778 82.7477 193.183 82.6317 193.799C82.5158 194.414 82.9206 195.007 83.5362 195.123Z" fill="#999999"/>
<path d="M97.408 197.659C97.9806 197.767 98.5327 197.389 98.6407 196.816C98.7488 196.242 98.3718 195.69 97.7992 195.582C97.2262 195.474 96.6741 195.852 96.5661 196.425C96.4581 196.998 96.835 197.551 97.408 197.659Z" fill="#999999"/>
<path d="M111.287 200.152C111.797 200.248 112.288 199.913 112.384 199.403C112.48 198.893 112.145 198.403 111.635 198.307C111.126 198.211 110.635 198.546 110.539 199.056C110.443 199.565 110.778 200.056 111.287 200.152Z" fill="#999999"/>
<path d="M125.165 202.646C125.61 202.73 126.04 202.436 126.124 201.991C126.208 201.545 125.914 201.115 125.469 201.031C125.023 200.947 124.594 201.24 124.51 201.687C124.426 202.133 124.719 202.562 125.165 202.646Z" fill="#999999"/>
<path d="M139.036 205.181C139.44 205.257 139.828 204.991 139.904 204.588C139.98 204.184 139.715 203.796 139.312 203.72C138.909 203.644 138.52 203.909 138.444 204.313C138.368 204.716 138.634 205.105 139.036 205.181Z" fill="#999999"/>
<path d="M152.916 207.674C153.255 207.738 153.583 207.515 153.647 207.175C153.711 206.835 153.487 206.508 153.148 206.444C152.809 206.38 152.481 206.604 152.417 206.943C152.354 207.283 152.577 207.61 152.916 207.674Z" fill="#999999"/>
<path d="M166.788 210.209C167.085 210.265 167.371 210.069 167.427 209.772C167.483 209.475 167.287 209.189 166.99 209.133C166.693 209.077 166.407 209.272 166.351 209.569C166.295 209.867 166.49 210.153 166.788 210.209Z" fill="#999999"/>
<path d="M180.667 212.707C180.9 212.751 181.125 212.597 181.169 212.364C181.213 212.13 181.059 211.905 180.826 211.861C180.592 211.817 180.368 211.971 180.324 212.204C180.28 212.438 180.433 212.663 180.667 212.707Z" fill="#999999"/>
<path d="M194.546 215.199C194.715 215.231 194.878 215.12 194.91 214.95C194.942 214.78 194.831 214.617 194.661 214.585C194.492 214.553 194.329 214.665 194.297 214.834C194.265 215.004 194.376 215.167 194.546 215.199Z" fill="#999999"/>
<path d="M208.418 217.734C208.545 217.758 208.668 217.675 208.692 217.547C208.716 217.42 208.632 217.298 208.505 217.274C208.378 217.25 208.255 217.334 208.231 217.461C208.207 217.588 208.291 217.71 208.418 217.734Z" fill="#999999"/>
<path d="M222.295 220.232C222.359 220.244 222.42 220.203 222.432 220.139C222.444 220.076 222.402 220.014 222.339 220.002C222.275 219.99 222.214 220.032 222.202 220.096C222.19 220.159 222.232 220.22 222.295 220.232Z" fill="#999999"/>
<path d="M236.167 222.764C236.189 222.768 236.209 222.754 236.213 222.733C236.217 222.712 236.203 222.691 236.182 222.687C236.161 222.683 236.14 222.697 236.136 222.718C236.132 222.739 236.146 222.76 236.167 222.764Z" fill="#999999"/>
<path d="M-2.35415 194.054C-1.33526 194.246 -0.354247 193.575 -0.162219 192.556C0.0298849 191.536 -0.64024 190.555 -1.65873 190.363C-2.67721 190.171 -3.65861 190.842 -3.85064 191.861C-4.04259 192.88 -3.37264 193.862 -2.35415 194.054Z" fill="#999999"/>
<path d="M11.525 196.552C12.4799 196.732 13.4002 196.103 13.5802 195.148C13.7602 194.192 13.1319 193.271 12.177 193.091C11.2221 192.911 10.3023 193.54 10.1222 194.496C9.94169 195.452 10.5701 196.372 11.525 196.552Z" fill="#999999"/>
<path d="M25.3974 199.087C26.3102 199.259 27.1891 198.658 27.3612 197.745C27.5333 196.831 26.9332 195.952 26.0204 195.78C25.108 195.608 24.2287 196.209 24.0566 197.122C23.885 198.036 24.485 198.915 25.3974 199.087Z" fill="#999999"/>
<path d="M39.2767 201.58C40.1254 201.74 40.9432 201.181 41.1033 200.332C41.2633 199.482 40.705 198.664 39.8562 198.504C39.0074 198.344 38.1896 198.903 38.0296 199.753C37.8696 200.602 38.4279 201.42 39.2767 201.58Z" fill="#999999"/>
<path d="M53.1514 204.078C53.9366 204.226 54.6928 203.709 54.8408 202.923C54.9889 202.138 54.4723 201.381 53.6875 201.233C52.9022 201.085 52.1456 201.602 51.9976 202.388C51.8496 203.173 52.3661 203.93 53.1514 204.078Z" fill="#999999"/>
<path d="M67.0223 206.609C67.765 206.749 68.4807 206.26 68.6208 205.517C68.7608 204.773 68.2722 204.057 67.5295 203.917C66.7867 203.778 66.071 204.267 65.931 205.01C65.7909 205.754 66.2796 206.469 67.0223 206.609Z" fill="#999999"/>
<path d="M80.902 209.103C81.5811 209.231 82.2353 208.783 82.3633 208.104C82.4913 207.424 82.0448 206.77 81.3656 206.642C80.6865 206.514 80.0319 206.961 79.9039 207.641C79.776 208.32 80.2229 208.975 80.902 209.103Z" fill="#999999"/>
<path d="M94.7813 211.6C95.3964 211.716 95.9894 211.31 96.1054 210.695C96.2214 210.079 95.8165 209.486 95.2014 209.37C94.5858 209.254 93.9928 209.659 93.8769 210.275C93.7609 210.891 94.1657 211.484 94.7813 211.6Z" fill="#999999"/>
<path d="M108.653 214.135C109.226 214.243 109.778 213.866 109.886 213.292C109.994 212.719 109.617 212.167 109.044 212.059C108.471 211.951 107.919 212.328 107.811 212.902C107.703 213.475 108.08 214.027 108.653 214.135Z" fill="#999999"/>
<path d="M122.53 216.629C123.04 216.725 123.53 216.39 123.626 215.88C123.722 215.37 123.388 214.879 122.878 214.783C122.369 214.687 121.878 215.023 121.782 215.533C121.686 216.042 122.021 216.533 122.53 216.629Z" fill="#999999"/>
<path d="M136.41 219.126C136.855 219.21 137.285 218.916 137.369 218.471C137.453 218.025 137.159 217.595 136.714 217.511C136.268 217.427 135.839 217.721 135.755 218.167C135.671 218.612 135.964 219.042 136.41 219.126Z" fill="#999999"/>
<path d="M150.282 221.661C150.685 221.737 151.073 221.471 151.149 221.068C151.225 220.665 150.96 220.276 150.557 220.2C150.154 220.124 149.766 220.39 149.689 220.793C149.614 221.196 149.879 221.585 150.282 221.661Z" fill="#999999"/>
<path d="M164.161 224.151C164.501 224.215 164.828 223.991 164.892 223.651C164.956 223.311 164.732 222.984 164.393 222.921C164.054 222.857 163.726 223.08 163.662 223.42C163.598 223.76 163.822 224.087 164.161 224.151Z" fill="#999999"/>
<path d="M178.032 226.689C178.329 226.745 178.615 226.55 178.671 226.253C178.727 225.955 178.532 225.669 178.235 225.613C177.938 225.557 177.652 225.753 177.596 226.05C177.54 226.347 177.735 226.633 178.032 226.689Z" fill="#999999"/>
<path d="M191.912 229.183C192.145 229.227 192.37 229.074 192.414 228.84C192.458 228.606 192.304 228.381 192.071 228.337C191.838 228.293 191.613 228.447 191.569 228.681C191.525 228.914 191.679 229.139 191.912 229.183Z" fill="#999999"/>
<path d="M205.791 231.676C205.96 231.708 206.124 231.596 206.156 231.427C206.187 231.257 206.076 231.094 205.907 231.062C205.737 231.03 205.574 231.141 205.542 231.311C205.51 231.481 205.621 231.644 205.791 231.676Z" fill="#999999"/>
<path d="M219.661 234.211C219.788 234.235 219.911 234.152 219.935 234.024C219.959 233.897 219.875 233.774 219.748 233.75C219.621 233.726 219.498 233.81 219.474 233.938C219.45 234.065 219.534 234.187 219.661 234.211Z" fill="#999999"/>
<path d="M233.54 236.709C233.604 236.721 233.665 236.679 233.677 236.616C233.689 236.552 233.647 236.491 233.584 236.479C233.52 236.467 233.459 236.508 233.447 236.572C233.435 236.635 233.477 236.697 233.54 236.709Z" fill="#999999"/>
<path d="M247.409 239.24C247.431 239.244 247.451 239.23 247.455 239.209C247.459 239.188 247.445 239.167 247.424 239.163C247.403 239.159 247.382 239.174 247.379 239.195C247.374 239.216 247.388 239.236 247.409 239.24Z" fill="#999999"/>
<path d="M8.89229 210.539C9.91118 210.731 10.8922 210.06 11.0843 209.041C11.2764 208.021 10.6063 207.039 9.58779 206.848C8.5693 206.656 7.58748 207.326 7.39546 208.346C7.20343 209.365 7.8738 210.347 8.89229 210.539Z" fill="#999999"/>
<path d="M22.7667 213.029C23.7216 213.208 24.6418 212.58 24.8218 211.624C25.0019 210.669 24.3736 209.748 23.4186 209.568C22.4637 209.388 21.5435 210.017 21.3634 210.973C21.1834 211.928 21.8118 212.849 22.7667 213.029Z" fill="#999999"/>
<path d="M36.6376 215.564C37.55 215.735 38.4293 215.135 38.6014 214.221C38.7734 213.308 38.173 212.428 37.2607 212.257C36.3483 212.085 35.469 212.685 35.2969 213.599C35.1248 214.512 35.7252 215.392 36.6376 215.564Z" fill="#999999"/>
<path d="M50.5168 218.061C51.3656 218.221 52.1839 217.662 52.3439 216.812C52.5039 215.963 51.9452 215.145 51.0964 214.985C50.2476 214.825 49.4298 215.384 49.2698 216.233C49.1094 217.083 49.668 217.901 50.5168 218.061Z" fill="#999999"/>
<path d="M64.3965 220.555C65.1817 220.703 65.9379 220.186 66.0859 219.4C66.234 218.614 65.7174 217.857 64.9326 217.709C64.1473 217.561 63.3907 218.078 63.2427 218.864C63.0946 219.65 63.6113 220.407 64.3965 220.555Z" fill="#999999"/>
<path d="M78.2684 223.09C79.0111 223.23 79.7268 222.74 79.8669 221.997C80.0069 221.254 79.5183 220.538 78.7756 220.398C78.0329 220.258 77.3171 220.747 77.1771 221.49C77.0371 222.234 77.5257 222.95 78.2684 223.09Z" fill="#999999"/>
<path d="M92.1477 225.583C92.8268 225.711 93.4809 225.264 93.609 224.584C93.737 223.905 93.2904 223.25 92.6113 223.122C91.9322 222.994 91.2781 223.441 91.15 224.121C91.0216 224.801 91.4681 225.455 92.1477 225.583Z" fill="#999999"/>
<path d="M106.025 228.077C106.641 228.193 107.233 227.787 107.349 227.172C107.466 226.556 107.061 225.963 106.445 225.847C105.83 225.731 105.237 226.136 105.121 226.752C105.004 227.368 105.409 227.961 106.025 228.077Z" fill="#999999"/>
<path d="M119.897 230.612C120.47 230.72 121.022 230.342 121.13 229.769C121.238 229.196 120.861 228.643 120.288 228.535C119.715 228.427 119.163 228.805 119.055 229.378C118.947 229.952 119.324 230.504 119.897 230.612Z" fill="#999999"/>
<path d="M133.777 233.105C134.286 233.201 134.776 232.866 134.873 232.356C134.968 231.847 134.633 231.356 134.124 231.26C133.615 231.164 133.124 231.499 133.028 232.009C132.932 232.519 133.267 233.009 133.777 233.105Z" fill="#999999"/>
<path d="M147.656 235.603C148.102 235.687 148.531 235.393 148.615 234.947C148.699 234.501 148.405 234.072 147.96 233.988C147.515 233.904 147.085 234.197 147.001 234.643C146.917 235.089 147.21 235.519 147.656 235.603Z" fill="#999999"/>
<path d="M161.527 238.138C161.931 238.214 162.319 237.948 162.395 237.545C162.471 237.141 162.206 236.753 161.802 236.677C161.399 236.601 161.011 236.866 160.935 237.27C160.859 237.673 161.124 238.062 161.527 238.138Z" fill="#999999"/>
<path d="M175.406 240.631C175.746 240.695 176.073 240.472 176.137 240.132C176.201 239.792 175.978 239.465 175.638 239.401C175.299 239.337 174.972 239.561 174.908 239.9C174.844 240.24 175.067 240.567 175.406 240.631Z" fill="#999999"/>
<path d="M189.278 243.166C189.576 243.222 189.862 243.026 189.918 242.729C189.974 242.432 189.778 242.146 189.481 242.09C189.184 242.034 188.898 242.229 188.842 242.526C188.786 242.824 188.982 243.11 189.278 243.166Z" fill="#999999"/>
<path d="M203.158 245.664C203.391 245.708 203.616 245.554 203.66 245.321C203.704 245.087 203.551 244.862 203.317 244.818C203.084 244.774 202.859 244.928 202.815 245.161C202.771 245.395 202.924 245.62 203.158 245.664Z" fill="#999999"/>
<path d="M217.032 248.153C217.202 248.185 217.365 248.073 217.397 247.903C217.429 247.734 217.318 247.57 217.148 247.538C216.979 247.506 216.815 247.618 216.783 247.788C216.751 247.957 216.863 248.121 217.032 248.153Z" fill="#999999"/>
<path d="M230.903 250.691C231.03 250.715 231.153 250.632 231.177 250.504C231.201 250.377 231.117 250.255 230.99 250.231C230.863 250.207 230.74 250.291 230.716 250.418C230.692 250.545 230.776 250.667 230.903 250.691Z" fill="#999999"/>
<path d="M244.782 253.182C244.846 253.194 244.907 253.152 244.919 253.088C244.931 253.025 244.89 252.963 244.826 252.951C244.762 252.939 244.701 252.981 244.689 253.045C244.677 253.109 244.719 253.17 244.782 253.182Z" fill="#999999"/>
<path d="M258.655 255.717C258.676 255.721 258.696 255.707 258.7 255.686C258.704 255.665 258.69 255.644 258.669 255.64C258.648 255.636 258.628 255.65 258.624 255.671C258.62 255.692 258.634 255.713 258.655 255.717Z" fill="#999999"/>
<path d="M6.25772 224.518C7.34019 224.722 8.38321 224.009 8.58722 222.927C8.79131 221.843 8.07921 220.8 6.99674 220.596C5.91427 220.392 4.87166 221.105 4.66756 222.188C4.46355 223.271 5.17525 224.314 6.25772 224.518Z" fill="#999999"/>
<path d="M20.1321 227.012C21.151 227.204 22.132 226.533 22.324 225.514C22.5161 224.494 21.8461 223.512 20.8276 223.32C19.8091 223.128 18.8277 223.799 18.6356 224.819C18.4436 225.838 19.1136 226.82 20.1321 227.012Z" fill="#999999"/>
<path d="M34.0118 229.509C34.9667 229.689 35.8869 229.06 36.0669 228.105C36.247 227.149 35.6187 226.228 34.6638 226.048C33.7089 225.869 32.7886 226.498 32.6085 227.453C32.4285 228.409 33.0569 229.329 34.0118 229.509Z" fill="#999999"/>
<path d="M47.8826 232.044C48.7954 232.216 49.6744 231.615 49.8464 230.702C50.0185 229.789 49.4186 228.909 48.5058 228.737C47.5934 228.565 46.714 229.166 46.5419 230.08C46.37 230.992 46.9699 231.872 47.8826 232.044Z" fill="#999999"/>
<path d="M61.7619 234.534C62.6107 234.694 63.4285 234.135 63.5885 233.285C63.7486 232.436 63.1899 231.617 62.3415 231.458C61.4927 231.298 60.675 231.857 60.5148 232.706C60.3548 233.556 60.9131 234.374 61.7619 234.534Z" fill="#999999"/>
<path d="M75.6416 237.031C76.4269 237.179 77.1831 236.662 77.331 235.877C77.4791 235.091 76.9625 234.334 76.1777 234.186C75.3925 234.038 74.6358 234.555 74.4878 235.341C74.3397 236.127 74.8564 236.883 75.6416 237.031Z" fill="#999999"/>
<path d="M89.5135 239.566C90.2562 239.706 90.972 239.217 91.112 238.474C91.252 237.731 90.7634 237.014 90.0207 236.874C89.278 236.735 88.5622 237.224 88.4222 237.967C88.2823 238.71 88.7704 239.426 89.5135 239.566Z" fill="#999999"/>
<path d="M103.391 242.06C104.07 242.188 104.724 241.741 104.853 241.061C104.981 240.381 104.534 239.727 103.854 239.599C103.175 239.471 102.521 239.918 102.393 240.598C102.265 241.277 102.712 241.932 103.391 242.06Z" fill="#999999"/>
<path d="M117.27 244.557C117.886 244.673 118.479 244.268 118.595 243.652C118.711 243.036 118.306 242.443 117.691 242.327C117.075 242.211 116.482 242.617 116.366 243.233C116.25 243.848 116.655 244.441 117.27 244.557Z" fill="#999999"/>
<path d="M131.142 247.092C131.715 247.2 132.268 246.823 132.376 246.25C132.484 245.676 132.107 245.124 131.534 245.016C130.961 244.908 130.409 245.285 130.3 245.859C130.193 246.432 130.569 246.984 131.142 247.092Z" fill="#999999"/>
<path d="M145.022 249.586C145.531 249.682 146.022 249.347 146.118 248.837C146.214 248.327 145.879 247.836 145.369 247.74C144.86 247.644 144.369 247.979 144.273 248.49C144.178 248.999 144.513 249.49 145.022 249.586Z" fill="#999999"/>
<path d="M158.901 252.079C159.346 252.163 159.776 251.87 159.86 251.424C159.944 250.978 159.651 250.548 159.205 250.464C158.759 250.38 158.33 250.674 158.246 251.12C158.162 251.566 158.455 251.996 158.901 252.079Z" fill="#999999"/>
<path d="M172.772 254.614C173.175 254.69 173.564 254.425 173.64 254.021C173.716 253.618 173.45 253.229 173.048 253.153C172.644 253.077 172.256 253.343 172.18 253.746C172.104 254.15 172.369 254.538 172.772 254.614Z" fill="#999999"/>
<path d="M186.647 257.108C186.986 257.172 187.313 256.949 187.377 256.609C187.441 256.269 187.218 255.941 186.878 255.878C186.539 255.814 186.212 256.037 186.148 256.377C186.084 256.717 186.307 257.044 186.647 257.108Z" fill="#999999"/>
<path d="M200.519 259.643C200.816 259.699 201.102 259.504 201.158 259.206C201.214 258.909 201.019 258.622 200.722 258.566C200.425 258.51 200.138 258.706 200.082 259.003C200.026 259.3 200.222 259.587 200.519 259.643Z" fill="#999999"/>
<path d="M214.398 262.14C214.631 262.184 214.856 262.031 214.9 261.797C214.944 261.563 214.791 261.338 214.558 261.294C214.324 261.25 214.099 261.404 214.055 261.638C214.011 261.871 214.165 262.096 214.398 262.14Z" fill="#999999"/>
<path d="M228.277 264.633C228.447 264.665 228.61 264.554 228.642 264.384C228.674 264.215 228.563 264.051 228.393 264.019C228.223 263.987 228.06 264.099 228.028 264.268C227.996 264.438 228.107 264.601 228.277 264.633Z" fill="#999999"/>
<path d="M242.148 267.168C242.275 267.192 242.398 267.109 242.422 266.981C242.446 266.854 242.362 266.731 242.235 266.707C242.108 266.683 241.985 266.767 241.961 266.895C241.937 267.022 242.021 267.144 242.148 267.168Z" fill="#999999"/>
<path d="M256.028 269.662C256.091 269.674 256.152 269.632 256.164 269.569C256.176 269.505 256.134 269.444 256.071 269.432C256.007 269.42 255.946 269.462 255.934 269.525C255.922 269.589 255.964 269.65 256.028 269.662Z" fill="#999999"/>
<path d="M269.9 272.197C269.921 272.201 269.942 272.187 269.946 272.166C269.95 272.145 269.935 272.124 269.914 272.121C269.893 272.117 269.873 272.13 269.869 272.152C269.864 272.173 269.879 272.193 269.9 272.197Z" fill="#999999"/>
<path d="M3.62709 238.459C4.75168 238.671 5.83552 237.931 6.04756 236.805C6.25966 235.68 5.51956 234.596 4.39497 234.384C3.27039 234.172 2.18652 234.912 1.97442 236.038C1.76238 237.164 2.50251 238.248 3.62709 238.459Z" fill="#999999"/>
<path d="M17.498 240.995C18.5805 241.198 19.6231 240.486 19.8271 239.403C20.0312 238.319 19.3194 237.276 18.237 237.072C17.1545 236.868 16.1119 237.581 15.9079 238.664C15.7043 239.747 16.4159 240.791 17.498 240.995Z" fill="#999999"/>
<path d="M31.3773 243.488C32.3958 243.68 33.3776 243.009 33.5696 241.99C33.7617 240.97 33.0916 239.989 32.0727 239.797C31.0542 239.605 30.0728 240.276 29.8808 241.295C29.6888 242.314 30.3588 243.296 31.3773 243.488Z" fill="#999999"/>
<path d="M45.2569 245.986C46.2118 246.165 47.132 245.537 47.3121 244.581C47.4922 243.625 46.8638 242.705 45.9089 242.525C44.954 242.345 44.0338 242.974 43.8537 243.93C43.6737 244.885 44.302 245.806 45.2569 245.986Z" fill="#999999"/>
<path d="M59.1288 248.521C60.0411 248.693 60.9205 248.092 61.0925 247.179C61.2646 246.265 60.6647 245.386 59.7519 245.214C58.8395 245.042 57.9601 245.643 57.788 246.556C57.616 247.469 58.2164 248.349 59.1288 248.521Z" fill="#999999"/>
<path d="M73.0084 251.014C73.8572 251.174 74.675 250.615 74.835 249.766C74.9951 248.917 74.4364 248.098 73.588 247.938C72.7388 247.778 71.9211 248.337 71.7609 249.187C71.6009 250.036 72.1592 250.854 73.0084 251.014Z" fill="#999999"/>
<path d="M86.8877 253.512C87.6729 253.66 88.4292 253.142 88.5771 252.357C88.7252 251.571 88.209 250.814 87.4238 250.666C86.6386 250.518 85.8819 251.036 85.7339 251.821C85.5859 252.607 86.1025 253.364 86.8877 253.512Z" fill="#999999"/>
<path d="M100.758 256.046C101.501 256.186 102.217 255.697 102.357 254.954C102.497 254.211 102.008 253.495 101.265 253.355C100.523 253.215 99.8074 253.704 99.6673 254.447C99.527 255.19 100.016 255.906 100.758 256.046Z" fill="#999999"/>
<path d="M114.637 258.536C115.316 258.664 115.97 258.217 116.098 257.537C116.226 256.858 115.78 256.203 115.101 256.075C114.421 255.947 113.767 256.395 113.639 257.074C113.511 257.754 113.958 258.408 114.637 258.536Z" fill="#999999"/>
<path d="M128.516 261.034C129.132 261.15 129.725 260.745 129.841 260.129C129.957 259.513 129.552 258.92 128.936 258.804C128.321 258.688 127.728 259.093 127.612 259.709C127.496 260.324 127.901 260.918 128.516 261.034Z" fill="#999999"/>
<path d="M142.385 263.568C142.958 263.676 143.51 263.299 143.618 262.726C143.726 262.153 143.349 261.6 142.776 261.492C142.203 261.384 141.651 261.762 141.543 262.335C141.435 262.908 141.812 263.461 142.385 263.568Z" fill="#999999"/>
<path d="M156.267 266.062C156.776 266.158 157.267 265.823 157.363 265.313C157.459 264.803 157.124 264.313 156.615 264.217C156.105 264.121 155.615 264.456 155.519 264.966C155.422 265.476 155.758 265.966 156.267 266.062Z" fill="#999999"/>
<path d="M170.141 268.56C170.587 268.644 171.016 268.35 171.1 267.905C171.184 267.458 170.891 267.029 170.445 266.945C170 266.861 169.571 267.154 169.486 267.601C169.402 268.046 169.695 268.476 170.141 268.56Z" fill="#999999"/>
<path d="M184.014 271.095C184.416 271.171 184.805 270.905 184.881 270.502C184.957 270.098 184.692 269.71 184.289 269.634C183.885 269.558 183.497 269.823 183.421 270.227C183.345 270.63 183.61 271.019 184.014 271.095Z" fill="#999999"/>
<path d="M197.893 273.585C198.232 273.649 198.56 273.425 198.624 273.086C198.688 272.746 198.464 272.418 198.125 272.354C197.786 272.29 197.458 272.514 197.394 272.854C197.33 273.194 197.554 273.521 197.893 273.585Z" fill="#999999"/>
<path d="M211.764 276.123C212.061 276.179 212.347 275.983 212.403 275.686C212.459 275.389 212.263 275.103 211.967 275.047C211.669 274.991 211.383 275.186 211.327 275.484C211.271 275.78 211.466 276.067 211.764 276.123Z" fill="#999999"/>
<path d="M225.643 278.617C225.877 278.661 226.101 278.507 226.145 278.274C226.189 278.04 226.036 277.815 225.802 277.771C225.569 277.727 225.344 277.881 225.3 278.115C225.256 278.347 225.409 278.573 225.643 278.617Z" fill="#999999"/>
<path d="M239.522 281.114C239.692 281.146 239.855 281.034 239.887 280.865C239.919 280.695 239.808 280.531 239.638 280.499C239.469 280.467 239.305 280.579 239.273 280.749C239.241 280.918 239.353 281.082 239.522 281.114Z" fill="#999999"/>
<path d="M253.394 283.644C253.522 283.668 253.644 283.585 253.668 283.458C253.692 283.331 253.608 283.208 253.481 283.184C253.354 283.16 253.232 283.244 253.208 283.371C253.184 283.498 253.267 283.62 253.394 283.644Z" fill="#999999"/>
<path d="M267.272 286.143C267.335 286.155 267.396 286.113 267.408 286.049C267.42 285.985 267.379 285.924 267.315 285.912C267.252 285.9 267.191 285.942 267.178 286.006C267.166 286.069 267.208 286.131 267.272 286.143Z" fill="#999999"/>
<path d="M281.144 288.674C281.165 288.678 281.186 288.664 281.19 288.643C281.194 288.621 281.18 288.601 281.159 288.597C281.137 288.593 281.117 288.607 281.113 288.628C281.109 288.649 281.123 288.67 281.144 288.674Z" fill="#999999"/>
<path d="M0.992924 252.443C2.1815 252.667 3.32614 251.884 3.55023 250.694C3.77425 249.505 2.99249 248.36 1.80432 248.136C0.616158 247.912 -0.529299 248.695 -0.753319 249.884C-0.977415 251.073 -0.195242 252.219 0.992924 252.443Z" fill="#999999"/>
<path d="M14.8722 254.94C15.9968 255.152 17.0806 254.411 17.2928 253.286C17.5048 252.16 16.7647 251.076 15.6401 250.864C14.5155 250.652 13.4316 251.393 13.2196 252.518C13.0075 253.644 13.7476 254.728 14.8722 254.94Z" fill="#999999"/>
<path d="M28.7431 257.475C29.8256 257.679 30.8682 256.966 31.0722 255.883C31.2763 254.8 30.5646 253.757 29.4821 253.553C28.3996 253.349 27.357 254.062 27.153 255.145C26.949 256.228 27.6607 257.271 28.7431 257.475Z" fill="#999999"/>
<path d="M42.6224 259.968C43.6409 260.16 44.6227 259.489 44.8147 258.47C45.0068 257.451 44.3367 256.469 43.3178 256.277C42.2989 256.085 41.318 256.756 41.1259 257.775C40.9335 258.794 41.6035 259.776 42.6224 259.968Z" fill="#999999"/>
<path d="M56.502 262.462C57.4569 262.642 58.3768 262.013 58.5569 261.057C58.7369 260.102 58.1089 259.181 57.154 259.002C56.1991 258.822 55.2789 259.45 55.0989 260.406C54.9188 261.361 55.5471 262.282 56.502 262.462Z" fill="#999999"/>
<path d="M70.3739 264.998C71.2863 265.169 72.1656 264.568 72.3377 263.655C72.5097 262.742 71.9094 261.862 70.997 261.69C70.0842 261.518 69.2052 262.119 69.0332 263.032C68.8611 263.946 69.4611 264.826 70.3739 264.998Z" fill="#999999"/>
<path d="M84.2535 267.495C85.1023 267.655 85.9201 267.096 86.0802 266.246C86.2403 265.397 85.6819 264.578 84.8331 264.419C83.9843 264.259 83.1662 264.817 83.0061 265.667C82.846 266.517 83.4043 267.335 84.2535 267.495Z" fill="#999999"/>
<path d="M98.1305 269.988C98.9157 270.136 99.6723 269.619 99.8204 268.833C99.9684 268.047 99.4518 267.291 98.6665 267.143C97.8817 266.995 97.1252 267.512 96.9771 268.297C96.8287 269.083 97.3452 269.84 98.1305 269.988Z" fill="#999999"/>
<path d="M112.003 272.523C112.745 272.663 113.461 272.174 113.601 271.431C113.741 270.687 113.253 269.971 112.51 269.832C111.767 269.692 111.052 270.181 110.911 270.924C110.771 271.668 111.26 272.383 112.003 272.523Z" fill="#999999"/>
<path d="M125.882 275.017C126.561 275.145 127.215 274.698 127.343 274.018C127.471 273.338 127.025 272.684 126.346 272.556C125.667 272.428 125.012 272.875 124.884 273.555C124.756 274.234 125.203 274.889 125.882 275.017Z" fill="#999999"/>
<path d="M139.757 277.51C140.373 277.626 140.966 277.221 141.082 276.605C141.198 275.989 140.793 275.396 140.178 275.28C139.562 275.164 138.969 275.57 138.853 276.185C138.737 276.801 139.142 277.395 139.757 277.51Z" fill="#999999"/>
<path d="M153.63 280.045C154.203 280.153 154.755 279.776 154.863 279.202C154.971 278.629 154.594 278.077 154.021 277.969C153.448 277.861 152.896 278.238 152.788 278.811C152.68 279.385 153.057 279.937 153.63 280.045Z" fill="#999999"/>
<path d="M167.507 282.539C168.017 282.635 168.507 282.3 168.603 281.79C168.699 281.28 168.365 280.789 167.855 280.693C167.346 280.597 166.855 280.932 166.759 281.442C166.663 281.952 166.998 282.443 167.507 282.539Z" fill="#999999"/>
<path d="M181.386 285.036C181.832 285.12 182.261 284.827 182.345 284.381C182.429 283.935 182.136 283.505 181.69 283.422C181.245 283.338 180.816 283.631 180.732 284.077C180.648 284.523 180.941 284.953 181.386 285.036Z" fill="#999999"/>
<path d="M195.259 287.571C195.662 287.647 196.05 287.382 196.126 286.978C196.202 286.575 195.937 286.186 195.534 286.11C195.131 286.034 194.742 286.3 194.666 286.703C194.59 287.107 194.855 287.495 195.259 287.571Z" fill="#999999"/>
<path d="M209.138 290.065C209.477 290.129 209.805 289.906 209.869 289.566C209.933 289.226 209.709 288.899 209.37 288.835C209.03 288.771 208.703 288.994 208.639 289.334C208.575 289.674 208.798 290.001 209.138 290.065Z" fill="#999999"/>
<path d="M223.009 292.6C223.306 292.656 223.592 292.46 223.648 292.163C223.704 291.866 223.508 291.579 223.212 291.523C222.915 291.467 222.628 291.663 222.572 291.96C222.516 292.257 222.712 292.544 223.009 292.6Z" fill="#999999"/>
<path d="M236.888 295.097C237.122 295.141 237.346 294.988 237.391 294.754C237.435 294.52 237.281 294.295 237.047 294.251C236.814 294.208 236.589 294.361 236.545 294.595C236.501 294.828 236.655 295.053 236.888 295.097Z" fill="#999999"/>
<path d="M250.766 297.587C250.936 297.618 251.099 297.507 251.131 297.337C251.163 297.167 251.051 297.004 250.882 296.972C250.713 296.94 250.549 297.052 250.517 297.221C250.485 297.391 250.597 297.555 250.766 297.587Z" fill="#999999"/>
<path d="M264.637 300.121C264.765 300.145 264.887 300.061 264.911 299.934C264.935 299.807 264.852 299.685 264.724 299.661C264.597 299.637 264.475 299.72 264.451 299.847C264.427 299.974 264.51 300.097 264.637 300.121Z" fill="#999999"/>
<path d="M278.517 302.62C278.581 302.632 278.642 302.59 278.654 302.526C278.666 302.462 278.624 302.401 278.561 302.389C278.497 302.377 278.436 302.419 278.424 302.483C278.412 302.547 278.454 302.608 278.517 302.62Z" fill="#999999"/>
<path d="M292.389 305.15C292.41 305.154 292.431 305.14 292.435 305.119C292.439 305.098 292.425 305.078 292.404 305.074C292.383 305.07 292.362 305.083 292.358 305.104C292.354 305.126 292.368 305.146 292.389 305.15Z" fill="#999999"/>
<path d="M-1.63968 266.426C-0.387533 266.662 0.81913 265.837 1.05521 264.584C1.2913 263.331 0.467394 262.124 -0.784757 261.888C-2.03691 261.652 -3.2431 262.477 -3.47918 263.73C-3.71534 264.983 -2.89183 266.19 -1.63968 266.426Z" fill="#999999"/>
<path d="M12.2376 268.919C13.4262 269.143 14.5709 268.36 14.795 267.171C15.019 265.982 14.2372 264.836 13.049 264.612C11.8609 264.389 10.7158 265.171 10.4918 266.36C10.2676 267.55 11.0495 268.695 12.2376 268.919Z" fill="#999999"/>
<path d="M26.1172 271.417C27.2418 271.629 28.3257 270.888 28.5378 269.763C28.7498 268.637 28.0098 267.553 26.8852 267.341C25.7606 267.129 24.6767 267.87 24.4646 268.995C24.2526 270.121 24.9926 271.205 26.1172 271.417Z" fill="#999999"/>
<path d="M39.9892 273.952C41.0716 274.156 42.1142 273.443 42.3183 272.36C42.5224 271.276 41.8106 270.233 40.7282 270.029C39.6457 269.825 38.6032 270.538 38.3991 271.621C38.1949 272.705 38.9067 273.748 39.9892 273.952Z" fill="#999999"/>
<path d="M53.8688 276.445C54.8873 276.637 55.8687 275.966 56.0608 274.947C56.2529 273.928 55.5828 272.946 54.5643 272.754C53.5454 272.562 52.564 273.233 52.372 274.252C52.1802 275.272 52.8504 276.253 53.8688 276.445Z" fill="#999999"/>
<path d="M67.7481 278.943C68.703 279.123 69.6229 278.493 69.8029 277.538C69.983 276.582 69.355 275.662 68.4001 275.482C67.4452 275.302 66.525 275.931 66.3449 276.886C66.1649 277.842 66.7932 278.763 67.7481 278.943Z" fill="#999999"/>
<path d="M81.6195 281.478C82.5319 281.65 83.4112 281.049 83.5832 280.135C83.7553 279.222 83.1549 278.343 82.2425 278.171C81.3301 277.999 80.4504 278.6 80.2783 279.513C80.1063 280.426 80.7067 281.306 81.6195 281.478Z" fill="#999999"/>
<path d="M95.4973 283.968C96.3465 284.127 97.1639 283.568 97.324 282.719C97.484 281.869 96.9257 281.051 96.0769 280.891C95.2281 280.731 94.4102 281.291 94.2503 282.14C94.0902 282.989 94.6485 283.808 95.4973 283.968Z" fill="#999999"/>
<path d="M109.373 286.465C110.158 286.613 110.915 286.096 111.063 285.31C111.211 284.524 110.694 283.767 109.909 283.619C109.124 283.471 108.367 283.989 108.219 284.774C108.071 285.56 108.587 286.317 109.373 286.465Z" fill="#999999"/>
<path d="M123.245 289C123.988 289.14 124.703 288.651 124.843 287.907C124.983 287.164 124.495 286.448 123.752 286.308C123.009 286.168 122.294 286.657 122.154 287.401C122.014 288.144 122.502 288.86 123.245 289Z" fill="#999999"/>
<path d="M137.124 291.497C137.803 291.625 138.457 291.178 138.586 290.498C138.714 289.819 138.267 289.164 137.588 289.036C136.909 288.908 136.255 289.355 136.127 290.035C135.999 290.715 136.446 291.369 137.124 291.497Z" fill="#999999"/>
<path d="M151.002 293.991C151.617 294.107 152.21 293.702 152.326 293.086C152.442 292.47 152.037 291.877 151.422 291.761C150.807 291.645 150.214 292.05 150.098 292.666C149.982 293.282 150.386 293.875 151.002 293.991Z" fill="#999999"/>
<path d="M164.874 296.526C165.447 296.634 165.999 296.257 166.107 295.683C166.215 295.11 165.838 294.557 165.265 294.449C164.692 294.341 164.14 294.719 164.032 295.292C163.924 295.866 164.301 296.418 164.874 296.526Z" fill="#999999"/>
<path d="M178.753 299.02C179.263 299.116 179.753 298.781 179.849 298.27C179.945 297.761 179.611 297.27 179.101 297.174C178.592 297.078 178.101 297.413 178.005 297.923C177.909 298.433 178.244 298.924 178.753 299.02Z" fill="#999999"/>
<path d="M192.632 301.513C193.078 301.597 193.507 301.304 193.591 300.857C193.675 300.412 193.382 299.982 192.937 299.898C192.491 299.814 192.062 300.108 191.978 300.553C191.894 301 192.187 301.429 192.632 301.513Z" fill="#999999"/>
<path d="M206.504 304.048C206.907 304.124 207.295 303.858 207.371 303.455C207.447 303.051 207.182 302.663 206.779 302.587C206.376 302.511 205.987 302.776 205.911 303.18C205.835 303.583 206.1 303.972 206.504 304.048Z" fill="#999999"/>
<path d="M220.383 306.542C220.723 306.606 221.049 306.382 221.114 306.042C221.178 305.703 220.954 305.375 220.615 305.311C220.275 305.247 219.948 305.471 219.884 305.81C219.82 306.15 220.043 306.478 220.383 306.542Z" fill="#999999"/>
<path d="M234.255 309.076C234.552 309.132 234.839 308.936 234.895 308.639C234.951 308.342 234.755 308.056 234.458 308C234.16 307.944 233.875 308.139 233.819 308.437C233.762 308.734 233.958 309.02 234.255 309.076Z" fill="#999999"/>
<path d="M248.132 311.574C248.366 311.618 248.591 311.464 248.635 311.23C248.679 310.997 248.525 310.772 248.292 310.728C248.058 310.684 247.833 310.838 247.79 311.071C247.745 311.305 247.899 311.53 248.132 311.574Z" fill="#999999"/>
<path d="M262.011 314.067C262.181 314.099 262.344 313.987 262.376 313.817C262.408 313.648 262.297 313.484 262.127 313.452C261.958 313.42 261.794 313.532 261.762 313.702C261.731 313.871 261.842 314.035 262.011 314.067Z" fill="#999999"/>
<path d="M275.883 316.602C276.01 316.626 276.133 316.542 276.157 316.415C276.181 316.288 276.097 316.165 275.97 316.141C275.843 316.117 275.721 316.2 275.697 316.328C275.673 316.455 275.756 316.578 275.883 316.602Z" fill="#999999"/>
<path d="M289.759 319.1C289.823 319.112 289.884 319.069 289.896 319.006C289.908 318.942 289.866 318.881 289.803 318.869C289.739 318.857 289.678 318.899 289.666 318.963C289.654 319.026 289.696 319.088 289.759 319.1Z" fill="#999999"/>
<path d="M303.631 321.631C303.652 321.635 303.673 321.62 303.677 321.599C303.681 321.578 303.667 321.558 303.646 321.554C303.625 321.55 303.604 321.564 303.6 321.585C303.596 321.606 303.61 321.627 303.631 321.631Z" fill="#999999"/>
<path d="M9.60445 282.906C10.8566 283.142 12.0633 282.317 12.2993 281.064C12.5354 279.811 11.7115 278.604 10.4594 278.369C9.20722 278.133 8.00104 278.957 7.76496 280.21C7.52928 281.463 8.3527 282.67 9.60445 282.906Z" fill="#999999"/>
<path d="M23.4828 285.399C24.6714 285.623 25.8161 284.84 26.0401 283.651C26.2641 282.462 25.4827 281.317 24.2942 281.093C23.106 280.869 21.9609 281.652 21.7369 282.841C21.5129 284.03 22.2947 285.175 23.4828 285.399Z" fill="#999999"/>
<path d="M37.3624 287.893C38.4869 288.105 39.5709 287.365 39.7829 286.239C39.9949 285.114 39.2549 284.029 38.1303 283.817C37.0057 283.605 35.9218 284.346 35.7098 285.472C35.4977 286.598 36.2374 287.681 37.3624 287.893Z" fill="#999999"/>
<path d="M51.2343 290.428C52.3168 290.632 53.3593 289.919 53.5634 288.836C53.7675 287.753 53.0558 286.71 51.9733 286.506C50.8908 286.302 49.8483 287.015 49.6442 288.098C49.4406 289.181 50.1523 290.224 51.2343 290.428Z" fill="#999999"/>
<path d="M65.114 292.922C66.1324 293.114 67.1138 292.443 67.3059 291.424C67.4979 290.405 66.8279 289.422 65.8095 289.23C64.7906 289.038 63.8092 289.709 63.6171 290.729C63.425 291.748 64.0951 292.73 65.114 292.922Z" fill="#999999"/>
<path d="M78.9913 295.419C79.9462 295.599 80.8661 294.97 81.0461 294.014C81.2261 293.059 80.5982 292.139 79.6432 291.959C78.6883 291.779 77.7681 292.407 77.5881 293.363C77.4081 294.319 78.0359 295.239 78.9913 295.419Z" fill="#999999"/>
<path d="M92.8593 297.954C93.7717 298.126 94.6514 297.525 94.8235 296.612C94.9956 295.699 94.3951 294.819 93.4823 294.647C92.57 294.475 91.6906 295.076 91.5186 295.989C91.3465 296.903 91.9469 297.782 92.8593 297.954Z" fill="#999999"/>
<path d="M106.738 300.448C107.587 300.608 108.405 300.049 108.565 299.2C108.725 298.35 108.167 297.531 107.318 297.372C106.469 297.212 105.651 297.771 105.491 298.62C105.331 299.47 105.89 300.288 106.738 300.448Z" fill="#999999"/>
<path d="M120.618 302.945C121.403 303.093 122.16 302.576 122.308 301.79C122.456 301.004 121.939 300.248 121.154 300.1C120.369 299.952 119.612 300.469 119.464 301.255C119.316 302.04 119.833 302.797 120.618 302.945Z" fill="#999999"/>
<path d="M134.49 305.476C135.233 305.616 135.949 305.127 136.089 304.384C136.229 303.641 135.74 302.925 134.997 302.785C134.255 302.645 133.539 303.134 133.399 303.877C133.259 304.62 133.747 305.337 134.49 305.476Z" fill="#999999"/>
<path d="M148.367 307.97C149.047 308.098 149.701 307.65 149.829 306.971C149.957 306.291 149.51 305.637 148.831 305.509C148.152 305.381 147.498 305.828 147.37 306.508C147.242 307.187 147.688 307.842 148.367 307.97Z" fill="#999999"/>
<path d="M162.247 310.468C162.862 310.584 163.455 310.178 163.571 309.562C163.687 308.946 163.282 308.353 162.667 308.237C162.052 308.121 161.459 308.527 161.343 309.143C161.227 309.758 161.631 310.352 162.247 310.468Z" fill="#999999"/>
<path d="M176.119 313.003C176.692 313.11 177.244 312.733 177.352 312.16C177.46 311.586 177.083 311.034 176.51 310.926C175.937 310.818 175.385 311.195 175.277 311.769C175.169 312.342 175.546 312.895 176.119 313.003Z" fill="#999999"/>
<path d="M189.999 315.5C190.508 315.596 190.999 315.26 191.095 314.751C191.191 314.241 190.856 313.75 190.346 313.654C189.837 313.558 189.346 313.893 189.25 314.403C189.154 314.913 189.489 315.404 189.999 315.5Z" fill="#999999"/>
<path d="M203.878 317.994C204.323 318.078 204.753 317.784 204.837 317.338C204.921 316.892 204.628 316.463 204.182 316.379C203.736 316.295 203.307 316.588 203.223 317.034C203.139 317.48 203.432 317.91 203.878 317.994Z" fill="#999999"/>
<path d="M217.749 320.528C218.153 320.604 218.541 320.339 218.617 319.935C218.693 319.532 218.428 319.143 218.025 319.067C217.622 318.991 217.233 319.257 217.157 319.66C217.081 320.063 217.346 320.452 217.749 320.528Z" fill="#999999"/>
<path d="M231.627 323.018C231.967 323.082 232.294 322.858 232.358 322.519C232.422 322.179 232.199 321.852 231.859 321.788C231.52 321.724 231.192 321.947 231.128 322.287C231.064 322.627 231.288 322.954 231.627 323.018Z" fill="#999999"/>
<path d="M245.498 325.554C245.796 325.61 246.082 325.414 246.138 325.116C246.194 324.819 245.999 324.532 245.701 324.476C245.404 324.42 245.118 324.616 245.062 324.914C245.006 325.211 245.201 325.498 245.498 325.554Z" fill="#999999"/>
<path d="M259.377 328.051C259.611 328.095 259.836 327.941 259.88 327.707C259.924 327.474 259.77 327.249 259.537 327.205C259.303 327.161 259.079 327.314 259.035 327.548C258.99 327.781 259.144 328.007 259.377 328.051Z" fill="#999999"/>
<path d="M273.254 330.547C273.423 330.579 273.586 330.467 273.618 330.298C273.65 330.128 273.539 329.965 273.369 329.933C273.2 329.901 273.037 330.013 273.005 330.182C272.973 330.352 273.084 330.515 273.254 330.547Z" fill="#999999"/>
<path d="M287.126 333.078C287.253 333.102 287.376 333.018 287.4 332.891C287.424 332.764 287.34 332.642 287.213 332.618C287.086 332.594 286.963 332.677 286.939 332.804C286.915 332.931 286.999 333.054 287.126 333.078Z" fill="#999999"/>
<path d="M301.003 335.576C301.067 335.588 301.128 335.546 301.14 335.483C301.152 335.419 301.11 335.358 301.046 335.346C300.983 335.334 300.922 335.376 300.91 335.44C300.898 335.503 300.94 335.564 301.003 335.576Z" fill="#999999"/>
<path d="M314.876 338.108C314.897 338.111 314.917 338.097 314.921 338.076C314.925 338.055 314.911 338.035 314.89 338.031C314.869 338.027 314.848 338.041 314.844 338.062C314.84 338.083 314.855 338.104 314.876 338.108Z" fill="#999999"/>
<path d="M6.97764 296.848C8.27216 297.092 9.51945 296.239 9.76352 294.944C10.0076 293.648 9.15603 292.4 7.86151 292.156C6.56699 291.913 5.31971 292.765 5.07564 294.061C4.83157 295.356 5.68313 296.604 6.97764 296.848Z" fill="#999999"/>
<path d="M20.8496 299.383C22.1017 299.619 23.308 298.794 23.5441 297.541C23.7801 296.288 22.9566 295.081 21.7045 294.845C20.4523 294.609 19.2462 295.434 19.0101 296.687C18.774 297.94 19.5974 299.147 20.8496 299.383Z" fill="#999999"/>
<path d="M34.7289 301.88C35.9171 302.104 37.0625 301.321 37.2866 300.132C37.5106 298.943 36.7288 297.797 35.5402 297.573C34.3517 297.349 33.207 298.132 32.983 299.321C32.7586 300.51 33.5403 301.656 34.7289 301.88Z" fill="#999999"/>
<path d="M48.6085 304.374C49.733 304.586 50.817 303.845 51.029 302.72C51.241 301.594 50.501 300.51 49.3764 300.298C48.2518 300.086 47.1679 300.827 46.9559 301.952C46.7438 303.078 47.4839 304.162 48.6085 304.374Z" fill="#999999"/>
<path d="M62.475 306.909C63.5575 307.113 64.6 306.4 64.8041 305.317C65.0082 304.234 64.2964 303.19 63.2139 302.986C62.1315 302.783 61.0885 303.495 60.8844 304.578C60.6803 305.662 61.3925 306.705 62.475 306.909Z" fill="#999999"/>
<path d="M76.3538 309.402C77.3723 309.594 78.3537 308.923 78.5458 307.904C78.7378 306.885 78.0678 305.903 77.0493 305.711C76.0304 305.519 75.0494 306.19 74.8574 307.209C74.6649 308.228 75.335 309.21 76.3538 309.402Z" fill="#999999"/>
<path d="M90.233 311.896C91.1883 312.076 92.1082 311.447 92.2882 310.491C92.4683 309.536 91.8404 308.615 90.8851 308.435C89.9302 308.255 89.0103 308.884 88.8302 309.84C88.6498 310.795 89.2777 311.716 90.233 311.896Z" fill="#999999"/>
<path d="M104.105 314.431C105.018 314.603 105.897 314.002 106.069 313.089C106.241 312.176 105.641 311.296 104.728 311.124C103.816 310.952 102.937 311.553 102.765 312.466C102.593 313.379 103.193 314.259 104.105 314.431Z" fill="#999999"/>
<path d="M117.985 316.924C118.833 317.084 119.651 316.525 119.811 315.676C119.971 314.826 119.413 314.008 118.564 313.848C117.715 313.688 116.898 314.247 116.738 315.097C116.578 315.946 117.136 316.764 117.985 316.924Z" fill="#999999"/>
<path d="M131.862 319.422C132.647 319.57 133.404 319.053 133.552 318.267C133.7 317.481 133.183 316.724 132.398 316.576C131.613 316.428 130.857 316.946 130.709 317.731C130.561 318.517 131.077 319.274 131.862 319.422Z" fill="#999999"/>
<path d="M145.734 321.957C146.477 322.097 147.193 321.608 147.333 320.864C147.473 320.121 146.984 319.405 146.241 319.265C145.499 319.125 144.783 319.614 144.643 320.358C144.503 321.101 144.992 321.817 145.734 321.957Z" fill="#999999"/>
<path d="M159.614 324.45C160.293 324.578 160.947 324.131 161.075 323.451C161.203 322.772 160.756 322.117 160.077 321.989C159.398 321.862 158.744 322.309 158.616 322.988C158.488 323.668 158.934 324.322 159.614 324.45Z" fill="#999999"/>
<path d="M173.493 326.944C174.109 327.06 174.701 326.654 174.817 326.039C174.933 325.423 174.528 324.83 173.913 324.714C173.298 324.598 172.705 325.003 172.589 325.619C172.473 326.234 172.878 326.828 173.493 326.944Z" fill="#999999"/>
<path d="M187.364 329.479C187.937 329.587 188.489 329.21 188.597 328.636C188.705 328.063 188.328 327.51 187.755 327.403C187.182 327.295 186.63 327.672 186.522 328.245C186.414 328.819 186.791 329.371 187.364 329.479Z" fill="#999999"/>
<path d="M201.244 331.973C201.753 332.069 202.244 331.733 202.34 331.223C202.436 330.714 202.101 330.223 201.591 330.127C201.082 330.031 200.591 330.366 200.495 330.876C200.399 331.386 200.734 331.877 201.244 331.973Z" fill="#999999"/>
<path d="M215.123 334.47C215.568 334.554 215.998 334.26 216.082 333.814C216.166 333.369 215.873 332.939 215.427 332.855C214.981 332.771 214.552 333.065 214.468 333.51C214.384 333.956 214.677 334.386 215.123 334.47Z" fill="#999999"/>
<path d="M228.994 337.005C229.398 337.081 229.786 336.816 229.862 336.412C229.938 336.009 229.673 335.62 229.27 335.544C228.867 335.468 228.478 335.734 228.402 336.137C228.326 336.541 228.592 336.929 228.994 337.005Z" fill="#999999"/>
<path d="M242.869 339.499C243.209 339.562 243.536 339.339 243.6 338.999C243.664 338.66 243.441 338.332 243.101 338.268C242.762 338.204 242.434 338.428 242.37 338.768C242.306 339.107 242.53 339.435 242.869 339.499Z" fill="#999999"/>
<path d="M256.741 342.034C257.038 342.09 257.324 341.894 257.38 341.597C257.436 341.299 257.241 341.013 256.944 340.957C256.646 340.901 256.36 341.097 256.304 341.394C256.248 341.692 256.443 341.978 256.741 342.034Z" fill="#999999"/>
<path d="M270.619 344.531C270.853 344.575 271.078 344.421 271.122 344.187C271.166 343.954 271.012 343.729 270.779 343.685C270.546 343.641 270.321 343.795 270.277 344.028C270.233 344.262 270.386 344.487 270.619 344.531Z" fill="#999999"/>
<path d="M284.499 347.02C284.668 347.052 284.832 346.94 284.864 346.77C284.895 346.601 284.784 346.437 284.615 346.405C284.445 346.374 284.282 346.485 284.25 346.655C284.218 346.824 284.329 346.988 284.499 347.02Z" fill="#999999"/>
<path d="M4.34422 310.83C5.70225 311.086 7.01074 310.192 7.26679 308.833C7.52284 307.474 6.62948 306.164 5.27144 305.909C3.9134 305.653 2.60494 306.547 2.34889 307.906C2.09284 309.265 2.98618 310.574 4.34422 310.83Z" fill="#999999"/>
<path d="M18.2228 313.324C19.5174 313.568 20.7645 312.716 21.0086 311.42C21.2527 310.125 20.4013 308.877 19.1066 308.633C17.812 308.389 16.5649 309.241 16.3208 310.537C16.0767 311.833 16.9285 313.081 18.2228 313.324Z" fill="#999999"/>
<path d="M32.0948 315.859C33.3469 316.095 34.5531 315.27 34.7892 314.017C35.0253 312.764 34.2018 311.558 32.9496 311.322C31.6975 311.086 30.4913 311.91 30.2552 313.163C30.0191 314.416 30.8426 315.623 32.0948 315.859Z" fill="#999999"/>
<path d="M45.9691 318.352C47.1573 318.576 48.3024 317.794 48.5264 316.605C48.7505 315.415 47.9686 314.27 46.7805 314.046C45.5919 313.822 44.4473 314.605 44.2232 315.794C43.9992 316.983 44.7806 318.128 45.9691 318.352Z" fill="#999999"/>
<path d="M59.8487 320.85C60.9733 321.062 62.0572 320.321 62.2692 319.196C62.4813 318.071 61.7412 316.986 60.6166 316.774C59.4921 316.562 58.4081 317.303 58.1961 318.429C57.9841 319.554 58.7241 320.639 59.8487 320.85Z" fill="#999999"/>
<path d="M73.7211 323.385C74.8031 323.589 75.8461 322.877 76.0502 321.793C76.2543 320.71 75.5421 319.667 74.46 319.463C73.3775 319.259 72.3346 319.972 72.1305 321.055C71.9264 322.138 72.6386 323.181 73.7211 323.385Z" fill="#999999"/>
<path d="M87.599 325.882C88.6179 326.074 89.5993 325.404 89.7913 324.384C89.9833 323.365 89.3133 322.383 88.2944 322.191C87.2759 321.999 86.2945 322.67 86.1025 323.689C85.9105 324.709 86.5805 325.69 87.599 325.882Z" fill="#999999"/>
<path d="M101.478 328.373C102.433 328.552 103.353 327.923 103.533 326.968C103.713 326.012 103.085 325.092 102.13 324.912C101.175 324.732 100.255 325.361 100.075 326.316C99.8953 327.272 100.523 328.193 101.478 328.373Z" fill="#999999"/>
<path d="M115.351 330.911C116.263 331.083 117.142 330.482 117.314 329.569C117.486 328.656 116.886 327.776 115.974 327.604C115.061 327.432 114.182 328.033 114.01 328.946C113.838 329.86 114.438 330.739 115.351 330.911Z" fill="#999999"/>
<path d="M129.228 333.401C130.076 333.561 130.895 333.002 131.055 332.153C131.215 331.303 130.657 330.485 129.807 330.325C128.959 330.165 128.141 330.724 127.981 331.574C127.821 332.423 128.379 333.242 129.228 333.401Z" fill="#999999"/>
<path d="M143.107 335.898C143.892 336.046 144.649 335.53 144.797 334.744C144.945 333.958 144.428 333.201 143.643 333.053C142.858 332.905 142.102 333.422 141.954 334.208C141.806 334.994 142.322 335.75 143.107 335.898Z" fill="#999999"/>
<path d="M156.979 338.433C157.722 338.573 158.438 338.084 158.578 337.341C158.718 336.598 158.229 335.882 157.486 335.742C156.744 335.602 156.028 336.091 155.888 336.834C155.748 337.577 156.236 338.293 156.979 338.433Z" fill="#999999"/>
<path d="M170.859 340.931C171.538 341.059 172.192 340.611 172.32 339.932C172.448 339.252 172.001 338.598 171.322 338.47C170.643 338.342 169.989 338.789 169.861 339.469C169.733 340.148 170.18 340.803 170.859 340.931Z" fill="#999999"/>
<path d="M184.738 343.424C185.354 343.54 185.946 343.135 186.062 342.519C186.178 341.904 185.774 341.31 185.158 341.194C184.543 341.078 183.95 341.484 183.834 342.099C183.718 342.715 184.123 343.308 184.738 343.424Z" fill="#999999"/>
<path d="M198.61 345.96C199.183 346.067 199.735 345.69 199.843 345.117C199.951 344.543 199.574 343.991 199.001 343.883C198.428 343.775 197.876 344.152 197.768 344.726C197.66 345.299 198.037 345.851 198.61 345.96Z" fill="#999999"/>
<path d="M212.484 348.453C212.993 348.549 213.484 348.214 213.58 347.704C213.676 347.194 213.341 346.703 212.831 346.607C212.322 346.511 211.831 346.847 211.735 347.356C211.639 347.866 211.974 348.357 212.484 348.453Z" fill="#999999"/>
<path d="M1.71005 324.813C3.13188 325.081 4.50212 324.145 4.7702 322.722C5.03827 321.299 4.10304 319.929 2.6808 319.661C1.25897 319.393 -0.11085 320.329 -0.378926 321.752C-0.646596 323.175 0.288221 324.545 1.71005 324.813Z" fill="#999999"/>
<path d="M15.5893 327.311C16.9474 327.566 18.2558 326.672 18.5119 325.313C18.7679 323.954 17.8746 322.645 16.5166 322.389C15.1585 322.133 13.85 323.028 13.594 324.387C13.338 325.746 14.2313 327.055 15.5893 327.311Z" fill="#999999"/>
<path d="M29.464 329.805C30.7587 330.049 32.0058 329.196 32.2498 327.901C32.4939 326.606 31.6425 325.357 30.3478 325.113C29.0536 324.87 27.8061 325.722 27.562 327.018C27.3179 328.313 28.1693 329.561 29.464 329.805Z" fill="#999999"/>
<path d="M43.3354 332.34C44.5875 332.575 45.7937 331.751 46.0298 330.498C46.2659 329.245 45.4424 328.038 44.1902 327.802C42.9381 327.566 41.7314 328.391 41.4954 329.644C41.2597 330.897 42.0837 332.104 43.3354 332.34Z" fill="#999999"/>
<path d="M57.2142 334.833C58.4024 335.057 59.5474 334.274 59.7715 333.085C59.9956 331.896 59.2138 330.75 58.0256 330.526C56.837 330.303 55.6924 331.085 55.4684 332.274C55.2443 333.464 56.0256 334.609 57.2142 334.833Z" fill="#999999"/>
<path d="M71.0938 337.327C72.2184 337.539 73.3019 336.798 73.514 335.673C73.726 334.547 72.9863 333.463 71.8618 333.251C70.7368 333.039 69.6533 333.78 69.4412 334.905C69.2291 336.031 69.9688 337.115 71.0938 337.327Z" fill="#999999"/>
<path d="M84.9658 339.862C86.0483 340.066 87.0912 339.353 87.2953 338.27C87.4993 337.187 86.7872 336.143 85.7047 335.94C84.6227 335.736 83.5797 336.448 83.3756 337.531C83.1716 338.615 83.8837 339.658 84.9658 339.862Z" fill="#999999"/>
<path d="M98.8454 342.355C99.8643 342.547 100.845 341.877 101.037 340.857C101.23 339.837 100.559 338.856 99.5409 338.664C98.5224 338.472 97.5406 339.143 97.3486 340.162C97.157 341.181 97.8269 342.164 98.8454 342.355Z" fill="#999999"/>
<path d="M112.724 344.853C113.679 345.033 114.599 344.404 114.779 343.448C114.959 342.493 114.331 341.572 113.376 341.392C112.421 341.212 111.501 341.841 111.321 342.797C111.141 343.753 111.769 344.673 112.724 344.853Z" fill="#999999"/>
<path d="M126.596 347.388C127.508 347.56 128.387 346.959 128.559 346.046C128.731 345.133 128.131 344.253 127.219 344.081C126.306 343.909 125.427 344.51 125.255 345.423C125.083 346.337 125.683 347.216 126.596 347.388Z" fill="#999999"/>
<path d="M140.474 349.882C141.323 350.042 142.141 349.482 142.301 348.633C142.461 347.783 141.902 346.965 141.054 346.805C140.205 346.645 139.387 347.204 139.227 348.054C139.067 348.903 139.625 349.722 140.474 349.882Z" fill="#999999"/>
<path d="M-0.919753 338.755C0.544522 339.031 1.95535 338.067 2.23143 336.602C2.50751 335.136 1.54429 333.725 0.0800133 333.449C-1.38426 333.173 -2.79509 334.137 -3.07117 335.602C-3.34725 337.068 -2.38403 338.479 -0.919753 338.755Z" fill="#999999"/>
<path d="M12.9522 341.29C14.374 341.558 15.7438 340.622 16.0119 339.199C16.28 337.776 15.3448 336.405 13.923 336.137C12.5012 335.869 11.1313 336.806 10.8632 338.229C10.5951 339.652 11.5303 341.022 12.9522 341.29Z" fill="#999999"/>
<path d="M26.8295 343.788C28.1877 344.043 29.496 343.149 29.7521 341.79C30.0081 340.431 29.115 339.122 27.7568 338.866C26.3985 338.61 25.0902 339.504 24.8342 340.864C24.5777 342.222 25.4712 343.532 26.8295 343.788Z" fill="#999999"/>
<path d="M40.7091 346.281C42.0034 346.525 43.2509 345.673 43.495 344.377C43.7391 343.082 42.8876 341.834 41.593 341.59C40.2987 341.346 39.0512 342.198 38.8071 343.494C38.563 344.79 39.4148 346.038 40.7091 346.281Z" fill="#999999"/>
<path d="M54.5814 348.817C55.8336 349.052 57.0397 348.228 57.2758 346.975C57.5119 345.722 56.6885 344.515 55.4363 344.279C54.1842 344.043 52.9775 344.868 52.7414 346.121C52.5058 347.374 53.3293 348.581 54.5814 348.817Z" fill="#999999"/>
<path d="M68.4608 351.313C69.6489 351.537 70.794 350.755 71.018 349.566C71.2421 348.376 70.4603 347.231 69.2721 347.007C68.0835 346.783 66.9385 347.566 66.7145 348.755C66.4904 349.944 67.2722 351.089 68.4608 351.313Z" fill="#999999"/>
<path d="M-3.55424 352.738C-2.02631 353.026 -0.553964 352.02 -0.265961 350.491C0.0221193 348.962 -0.983101 347.489 -2.51103 347.201C-4.03896 346.913 -5.51091 347.919 -5.79899 349.448C-6.08699 350.977 -5.08217 352.45 -3.55424 352.738Z" fill="#999999"/>
<path d="M284.45 193.777C268.792 192.588 255.539 192.872 238.698 193.928C214.946 195.418 200.046 196.996 199.345 198.573C198.644 200.151 189.222 234.201 189.222 234.201V242.878L199.75 242.9C199.75 242.9 245.885 241.52 257.629 241.695C262.366 241.766 268.6 241.908 274.353 242.052C274.55 238.826 274.848 235.159 275.246 233.5C276.034 230.216 284.438 193.83 284.45 193.777Z" fill="#E5E5E5"/>
<path d="M347.423 299.764C345.057 294.308 340.981 296.741 340.981 296.741C340.981 296.741 337.366 299.304 337.234 311.268L324.482 312.777C324.62 316.975 325.47 321.936 326.848 323.462C328.689 325.499 334.736 325.138 339.403 325.204C344.071 325.269 345.056 324.546 346.503 322.541C347.949 320.536 348.77 316.329 348.77 316.329C348.77 316.329 349.789 305.22 347.423 299.764ZM346.547 316.899C345.062 319.757 343.128 321.676 340.981 316.855C338.834 312.035 339.754 303.577 342.383 302.087C345.013 300.597 346.897 303.445 347.467 307.477C348.036 311.509 347.746 314.588 346.547 316.899Z" fill="#1F201D"/>
<path d="M342.383 302.081C339.754 303.571 338.833 312.029 340.981 316.85C343.128 321.67 345.062 319.752 346.546 316.893C347.746 314.583 348.036 311.503 347.467 307.471C346.897 303.44 345.012 300.591 342.383 302.081Z" fill="#D1D3D4"/>
<path d="M294.207 302.029C293.46 309.759 292.557 314.62 292.557 314.62L324.591 308.967C324.591 308.967 325.537 300.736 327.741 296.187L294.207 302.029Z" fill="#1F201D"/>
<path d="M368.896 289.639C368.886 289.639 368.879 289.425 368.873 289.02L346.909 292.846L346.963 292.926C346.963 292.926 349.329 292.926 351.498 303.969L361.786 304.134L361.851 297.034L356.527 296.607L356.428 294.504L362.246 294.537L365.303 304.528L368.524 304.199C368.524 304.199 369.071 289.639 368.896 289.639Z" fill="#1F201D"/>
<path d="M346.962 292.925L346.909 292.845L327.741 296.184C325.536 300.732 324.59 308.964 324.59 308.964C324.469 310.042 324.436 311.365 324.482 312.773L337.233 311.264C337.365 299.301 340.98 296.737 340.98 296.737C340.98 296.737 345.056 294.305 347.422 299.761C349.789 305.217 348.77 316.326 348.77 316.326C348.77 316.326 349.394 316.26 350.38 316.129C351.366 315.997 351.794 314.683 351.695 312.513C351.596 310.344 351.498 303.968 351.498 303.968C349.329 292.925 346.962 292.925 346.962 292.925Z" fill="#535256"/>
<path d="M368.918 213.059C368.655 207.669 367.997 206.091 366.025 205.894C364.053 205.697 331.646 199.583 305.353 196.034C297.703 195.001 290.875 194.267 284.45 193.779C284.438 193.832 276.035 230.218 275.246 233.502C274.848 235.161 274.551 238.828 274.354 242.054C282.864 242.267 290.321 242.486 290.321 242.486L299.568 242.475L299.442 301.115L368.873 289.02C368.769 282.033 369.166 218.153 368.918 213.059Z" fill="#C2C3C4"/>
<path d="M290.321 242.484C290.321 242.484 294.441 255.061 295.098 276.227C295.406 286.149 294.867 295.204 294.207 302.025L299.442 301.113L299.568 242.473L290.321 242.484Z" fill="#9B9DA2"/>
<path d="M295.098 276.227C294.441 255.06 290.321 242.483 290.321 242.483C290.321 242.483 280.294 242.189 270.225 241.95L268.498 245.112C268.498 245.112 260.785 263.781 257.805 268.952C255.729 272.554 253.908 275.601 251.365 277.12L251.365 277.12C251.247 277.19 251.128 277.257 251.007 277.321C248.893 278.519 237.815 284.984 229.006 293.668C224.233 298.373 221.272 305.188 219.49 310.934C219.495 310.934 219.499 310.934 219.504 310.934C235.201 311.215 248.536 309.908 252.054 309.525C252.627 308.773 253.235 308.074 253.883 307.45C261.114 300.482 266.175 301.994 269.462 306.99C272.749 311.986 272.529 323.862 272.529 323.862L291.11 318.515L292.556 314.615C292.556 314.615 295.756 297.393 295.098 276.227Z" fill="#D7D7D8"/>
<path d="M257.629 241.695C245.885 241.519 199.75 242.9 199.75 242.9L199.651 244.609C199.651 244.609 217.312 243.798 239.048 243.973C260.784 244.149 268.497 245.113 268.497 245.113L270.224 241.951C265.74 241.844 261.248 241.749 257.629 241.695Z" fill="#C2C3C4"/>
<path d="M251.006 277.321C249.989 277.856 248.857 278.154 247.55 278.154C242.729 278.154 177.017 276.27 177.017 276.27L174.848 278.023C174.848 278.023 171.955 280.389 169.589 285.122C167.222 289.855 165.82 295.245 165.82 295.245C165.82 295.245 166.565 296.516 168.975 296.779C171.386 297.042 173.051 296.998 173.051 296.998C173.051 296.998 172.174 299.233 172.218 302.082C172.262 304.93 172.7 306.245 172.7 306.245C172.7 306.245 166.094 306.383 162.824 305.608C163.117 306.433 163.399 306.957 163.399 306.957C163.399 306.957 163.3 308.042 172.109 308.239C180.915 308.436 201.153 310.604 219.49 310.934C221.272 305.188 224.233 298.373 229.005 293.668C237.814 284.984 248.893 278.519 251.006 277.321Z" fill="#E5E5E5"/>
<path d="M172.7 306.245C172.7 306.245 172.262 304.93 172.218 302.082C172.175 299.233 173.051 296.999 173.051 296.999C173.051 296.999 171.386 297.042 168.975 296.779C166.565 296.516 165.82 295.246 165.82 295.246C165.82 295.246 163.41 296.999 162.446 300.198C161.851 302.171 162.353 304.28 162.824 305.608C166.095 306.383 172.7 306.245 172.7 306.245Z" fill="#535256"/>
<path d="M247.55 278.153C252.37 278.153 254.825 274.121 257.805 268.95C260.784 263.779 268.497 245.11 268.497 245.11C268.497 245.11 260.784 244.146 239.048 243.971C217.312 243.795 199.651 244.606 199.651 244.606C199.651 244.606 197.154 247.63 194.886 251.41C192.618 255.189 180.676 273.639 180.676 273.639C180.676 273.639 179.559 273.989 179.383 273.617C179.208 273.244 179.23 268.358 179.055 266.342C178.879 264.326 178.113 264.239 176.403 264.239C174.694 264.239 173.621 264.107 173.445 265.838C173.27 267.569 173.424 269.98 173.402 273.398C173.38 276.816 174.848 278.021 174.848 278.021L177.017 276.268C177.017 276.268 242.729 278.153 247.55 278.153Z" fill="#424242"/>
<path d="M219.504 310.938C201.164 310.609 180.917 308.44 172.109 308.243C163.301 308.046 163.399 306.961 163.399 306.961C163.399 306.961 161 309.163 161 310.543C161 311.924 161.953 313.436 161.953 313.436V317.018L166.522 326.944L170.597 327.536L193.21 329.146C193.21 329.146 205.239 329.738 219.241 330.329C233.242 330.921 244.22 330.527 244.22 330.527C244.22 330.527 246.236 317.178 252.054 309.529C248.536 309.912 235.201 311.219 219.504 310.938Z" fill="#9B9DA2"/>
<path d="M174.64 335.422C177.105 337.46 183.35 338.084 187.557 336.277C191.764 334.469 193.21 329.145 193.21 329.145L170.598 327.534C170.926 329.671 172.175 333.384 174.64 335.422Z" fill="#1F201D"/>
<path d="M269.461 306.991C266.175 301.996 261.113 300.484 253.882 307.452C252.347 308.931 251.029 310.823 249.903 312.885C254.469 307.475 263.414 307.255 266.701 314.288C269.987 321.322 268.147 332.54 268.147 332.54C268.147 332.54 271.127 331.488 271.696 329.56C272.266 327.632 272.529 323.863 272.529 323.863C272.529 323.863 272.748 311.987 269.461 306.991Z" fill="#535256"/>
<path d="M266.701 314.288C263.415 307.255 254.47 307.475 249.904 312.885C245.73 320.533 244.22 330.524 244.22 330.524C244.22 330.524 243.913 332.803 244.308 335.038C244.702 337.273 245.666 340.647 247.77 343.277C249.873 345.906 251.714 346.257 256.009 345.731C260.303 345.205 262.407 345.599 264.817 341.743C267.227 337.887 268.147 332.54 268.147 332.54C268.147 332.54 269.988 321.321 266.701 314.288ZM265.001 332.628C263.897 337.361 261.574 340.253 259.558 340.472C256.16 340.841 253.379 335.126 254.299 326.273C255.22 317.421 258.945 314.967 262.363 317.29C265.781 319.612 266.105 327.895 265.001 332.628Z" fill="#1F201D"/>
<path d="M262.363 317.291C258.944 314.969 255.219 317.423 254.299 326.275C253.379 335.127 256.159 340.843 259.558 340.474C261.574 340.255 263.896 337.362 265.001 332.629C266.105 327.897 265.781 319.614 262.363 317.291Z" fill="#D1D3D4"/>
<path d="M179.603 320.008V314.026L203.135 315.209V321.815L179.603 320.008Z" fill="#1F201D"/>
<path d="M176.469 300.2L213.763 301.559C213.763 301.559 212.755 306.686 210.038 307.431C207.321 308.176 183.744 306.598 180.983 306.555C178.222 306.511 176.206 304.451 176.469 300.2Z" fill="#1F201D"/>
<path d="M214.771 308.243C214.771 308.243 215.462 303.839 216.349 301.439C217.237 299.04 217.401 298.974 217.401 298.974C217.401 298.974 229.2 299.204 233.604 298.383C238.009 297.561 238.83 297.495 238.83 297.495C238.83 297.495 240.737 298.876 240.506 302.425C240.276 305.975 237.647 308.267 232.848 308.912C228.05 309.557 214.771 308.736 214.771 308.736V308.243Z" fill="#535256"/>
<path d="M258.418 277.477C258.418 277.477 268.114 255.751 270.546 250.953C272.978 246.154 272.748 245.563 276.857 245.595C280.965 245.628 285.238 245.333 286.092 248.784C286.947 252.235 286.684 267.814 286.815 273.204C286.947 278.594 284.909 277.586 281.096 278.156C277.284 278.726 257.958 278.989 257.958 278.989L258.418 277.477Z" fill="#424242"/>
<path d="M290.081 290.866H287.542C287.275 290.866 287.06 290.65 287.06 290.384V281.641C287.06 281.375 287.275 281.159 287.542 281.159H290.081C290.347 281.159 290.563 281.375 290.563 281.641V290.384C290.563 290.65 290.347 290.866 290.081 290.866Z" fill="#424242"/>
<path d="M313.181 233.307C312.401 232.316 311.443 231.727 310.329 231.562L305.522 230.851V263.307L310.274 262.96C311.378 262.879 312.33 262.37 313.11 261.454C313.904 260.522 314.514 259.183 314.927 257.474C315.331 255.806 315.538 253.803 315.545 251.512L315.57 243.538C315.577 241.232 315.381 239.196 314.985 237.48C314.58 235.719 313.974 234.315 313.181 233.307ZM312.224 255.519C311.799 256.43 311.169 256.907 310.345 256.932L308.45 256.99L308.468 237.488L310.374 237.688C311.202 237.775 311.834 238.304 312.257 239.256C312.676 240.198 312.876 241.488 312.873 243.202L312.853 251.649C312.85 253.352 312.644 254.616 312.224 255.519Z" fill="#626363"/>
<path d="M318.803 262.334L326.558 261.766L326.593 256.431L321.251 256.595L321.28 250.631L325.852 250.698L325.886 245.293L321.307 245.029L321.337 238.836L326.703 239.399L326.738 233.989L318.924 232.833L318.803 262.334Z" fill="#626363"/>
<path d="M331.485 234.692L329.41 234.385L329.211 261.572L335.834 261.088L335.88 256.146L331.313 256.286L331.485 234.692Z" fill="#626363"/>
<path d="M337.823 260.944L339.608 260.814L339.87 235.935L338.076 235.669L337.823 260.944Z" fill="#626363"/>
<path d="M344.927 252.075L343.501 236.47L341.688 236.201L344.124 260.481L345.519 260.379L348.335 237.185L346.68 236.94L344.927 252.075Z" fill="#626363"/>
<path d="M349.439 260.091L354.105 259.749L354.168 255.582L350.943 255.681L351.008 251.069L353.762 251.11L353.824 246.9L351.068 246.741L351.135 241.96L354.367 242.299L354.43 238.087L349.748 237.394L349.439 260.091Z" fill="#626363"/>
<path d="M359.372 250.556C359.659 250.045 359.889 249.309 360.058 248.368C360.224 247.443 360.318 246.365 360.338 245.162C360.359 243.959 360.302 242.868 360.168 241.916C360.033 240.945 359.828 240.169 359.558 239.609C359.291 239.055 358.971 238.746 358.609 238.692L356.061 238.315L355.73 259.631L357.004 259.538L357.135 251.295L357.999 251.307L359.077 259.386L360.462 259.285L359.283 250.705C359.313 250.658 359.343 250.608 359.372 250.556ZM359.04 243.794C359.084 244.155 359.102 244.581 359.094 245.062C359.087 245.543 359.054 245.965 358.999 246.316C358.947 246.645 358.881 246.887 358.795 247.056C358.708 247.228 358.612 247.309 358.5 247.303L357.2 247.23L357.273 242.591L358.574 242.728C358.689 242.74 358.783 242.836 358.862 243.02C358.941 243.204 359 243.457 359.04 243.794Z" fill="#626363"/>
<path d="M364.404 239.562L363.278 246.826L362.394 239.264L361.111 239.075L362.647 251.152L362.506 259.134L363.608 259.053L363.749 251.169L365.596 239.738L364.404 239.562Z" fill="#626363"/>
</g>
</g>
<defs>
<clipPath id="clip0_333_1797">
<rect width="375" height="347" fill="white"/>
</clipPath>
<clipPath id="clip1_333_1797">
<rect width="535" height="357" fill="white" transform="translate(13.0977) rotate(10.6696)"/>
</clipPath>
</defs>
</svg>
