<svg width="22" height="22" viewBox="0 0 22 22" fill="none" xmlns="http://www.w3.org/2000/svg">
<path d="M10.6944 22C16.6008 22 21.3889 17.0751 21.3889 11C21.3889 4.92487 16.6008 0 10.6944 0C4.78807 0 0 4.92487 0 11C0 17.0751 4.78807 22 10.6944 22Z" fill="#FFB801"/>
<path fill-rule="evenodd" clip-rule="evenodd" d="M7.36134 6.9707C7.38985 6.97084 7.4135 6.99391 7.41407 7.02246L7.50978 11.8145C7.51095 11.8711 7.58818 11.8859 7.61036 11.834L9.62696 7.00293C9.63517 6.98357 9.65379 6.9708 9.67481 6.9707H11.7031C11.7409 6.9707 11.7667 7.00929 11.752 7.04395L9.48927 12.2715L5.89063 20.7793L8.01759 14.3408C8.01825 14.3388 8.01961 14.3369 8.02052 14.335C8.03691 14.3001 8.01118 14.2598 7.97267 14.2598H5.5752C5.54671 14.2596 5.52398 14.2365 5.52345 14.208L5.38673 7.02441C5.38617 6.99498 5.41003 6.9707 5.43946 6.9707H7.36134ZM7.45704 14.71L6.31251 17.4141L7.10841 14.707L7.45704 14.71ZM12.6963 7.87793C12.6751 7.94627 12.7392 8.01109 12.8076 7.99023C13.2298 7.86172 13.7398 7.79785 14.3379 7.79785C15.7466 7.79788 16.3073 8.20085 16.0166 9.01562L15.6035 10.1729C15.5909 10.2083 15.5572 10.2323 15.5195 10.2324H13.8106C13.7482 10.2324 13.7047 10.1697 13.7266 10.1113L14.1631 8.94727C14.2143 8.81008 14.137 8.74127 13.9307 8.74121C13.6901 8.74121 13.5204 8.86973 13.4209 9.12695C13.42 9.12939 13.4187 9.13226 13.418 9.13477L13.2861 9.58301C13.2857 9.58455 13.2848 9.58638 13.2842 9.58789C13.1861 9.84942 13.3049 10.1547 13.6416 10.5049C14.285 11.1371 14.6834 11.5836 14.832 11.8389C14.9814 12.0954 14.9984 12.3875 14.8818 12.7158L14.541 13.6758C14.1791 14.6949 13.1494 15.2118 11.457 15.2119C9.82472 15.2119 9.19648 14.7419 9.56837 13.8135L10.2305 12.1602C10.2441 12.1264 10.2771 12.1046 10.3135 12.1045H12.0586C12.121 12.1048 12.1639 12.1672 12.1416 12.2256L11.5313 13.8203C11.4649 13.9938 11.5675 14.0811 11.8379 14.0811C12.0987 14.081 12.2611 13.9957 12.3252 13.8252L12.6611 12.9297C12.7627 12.6589 12.6473 12.3427 12.3164 11.9824C11.6724 11.3197 11.2879 10.8794 11.1592 10.6553C11.031 10.4324 11.0204 10.1886 11.126 9.9248L11.4424 9.13574C11.4572 9.09877 11.4734 9.06276 11.4902 9.02734C11.6364 8.72653 14.669 1.50873 14.6719 1.50195L12.6963 7.87793ZM13.7031 7.40625L13.3555 7.49121L14.6416 3.86914L13.7031 7.40625Z" fill="white"/>
</svg>
