<svg width="191" height="191" viewBox="0 0 191 191" fill="none" xmlns="http://www.w3.org/2000/svg">
<circle cx="94.5146" cy="95.1177" r="82" fill="#E30612" fill-opacity="0.13"/>
<g filter="url(#filter0_d_484_88904)">
<circle cx="95.1176" cy="95.1176" r="65.1176" fill="#E30612" fill-opacity="0.4" shape-rendering="crispEdges"/>
</g>
<path fill-rule="evenodd" clip-rule="evenodd" d="M94.5146 143.354C67.875 143.354 46.2793 121.758 46.2793 95.1186C46.2793 68.479 67.875 46.8833 94.5146 46.8833C121.154 46.8833 142.75 68.479 142.75 95.1186C142.75 121.758 121.154 143.354 94.5146 143.354Z" fill="#E30612"/>
<path fill-rule="evenodd" clip-rule="evenodd" d="M107.916 101.821C107.775 104.119 107.664 105.942 107.435 107.398C107.2 108.892 106.825 110.135 106.074 111.223C105.387 112.219 104.502 113.059 103.476 113.69C102.355 114.38 101.102 114.682 99.612 114.826L88.3815 114.826C86.8894 114.681 85.6358 114.379 84.5136 113.687C83.487 113.055 82.602 112.214 81.9152 111.217C81.1643 110.127 80.79 108.881 80.5572 107.386C80.3302 105.927 80.2211 104.101 80.0836 101.801L78.8896 81.8259H109.14L107.916 101.821ZM89.4313 106.046C88.6719 106.046 88.0563 105.43 88.0563 104.671V93.6709C88.0563 92.9115 88.6719 92.2959 89.4313 92.2959C90.1907 92.2959 90.8063 92.9115 90.8063 93.6709V104.671C90.8063 105.43 90.1907 106.046 89.4313 106.046ZM99.973 93.6709C99.973 92.9115 99.3573 92.2959 98.598 92.2959C97.8386 92.2959 97.223 92.9115 97.223 93.6709V104.671C97.223 105.43 97.8386 106.046 98.598 106.046C99.3573 106.046 99.973 105.43 99.973 104.671V93.6709Z" fill="white"/>
<path fill-rule="evenodd" clip-rule="evenodd" d="M96.4845 75.4695C97.5206 75.5622 98.4942 75.8783 99.3304 76.5019C99.9488 76.9631 100.378 77.5277 100.745 78.1391C101.085 78.7057 101.428 79.4121 101.816 80.2135L102.599 81.8274H110.514C111.527 81.8274 112.348 82.6482 112.348 83.6607C112.348 84.6732 111.527 85.494 110.514 85.494C99.5141 85.494 88.5148 85.494 77.5145 85.494C76.502 85.494 75.6812 84.6732 75.6812 83.6607C75.6812 82.6482 76.502 81.8274 77.5145 81.8274H85.599L86.2513 80.3964C86.63 79.5655 86.9635 78.8338 87.2985 78.2466C87.6599 77.6132 88.0877 77.0271 88.7136 76.5469C89.5601 75.8976 90.5533 75.5684 91.6126 75.4719C92.4101 75.3993 93.2141 75.4093 94.0145 75.4106C94.951 75.4121 95.7928 75.4076 96.4845 75.4695ZM89.6287 81.8274H98.5239C98.1083 80.9705 97.8425 80.4274 97.6016 80.0261C97.249 79.4388 96.8266 79.1814 96.1578 79.1216C95.6825 79.0791 95.063 79.0774 94.0777 79.0774C93.0679 79.0774 92.4323 79.0791 91.945 79.1235C91.2592 79.1859 90.8316 79.4532 90.4833 80.0636C90.2551 80.4637 90.0066 80.9992 89.6287 81.8274Z" fill="white"/>
<defs>
<filter id="filter0_d_484_88904" x="0" y="0" width="190.235" height="190.235" filterUnits="userSpaceOnUse" color-interpolation-filters="sRGB">
<feFlood flood-opacity="0" result="BackgroundImageFix"/>
<feColorMatrix in="SourceAlpha" type="matrix" values="0 0 0 0 0 0 0 0 0 0 0 0 0 0 0 0 0 0 127 0" result="hardAlpha"/>
<feOffset/>
<feGaussianBlur stdDeviation="15"/>
<feComposite in2="hardAlpha" operator="out"/>
<feColorMatrix type="matrix" values="0 0 0 0 0 0 0 0 0 0.452749 0 0 0 0 0.014373 0 0 0 0.1 0"/>
<feBlend mode="normal" in2="BackgroundImageFix" result="effect1_dropShadow_484_88904"/>
<feBlend mode="normal" in="SourceGraphic" in2="effect1_dropShadow_484_88904" result="shape"/>
</filter>
</defs>
</svg>
