<svg width="20" height="20" viewBox="0 0 20 20" fill="none" xmlns="http://www.w3.org/2000/svg">
<path d="M17.5375 7.13527C17.6946 6.2898 18.0493 4.60487 18.2125 3.76027C18.2205 3.71985 18.2205 3.67824 18.2124 3.63782C18.2044 3.5974 18.1884 3.55897 18.1655 3.52472C18.1426 3.49048 18.1131 3.46108 18.0788 3.43823C18.0445 3.41537 18.0061 3.3995 17.9656 3.39152L15.2688 2.8509C15.2115 2.84037 15.1525 2.84591 15.0982 2.86689C15.0439 2.88787 14.9965 2.92348 14.9612 2.96976C14.926 3.01604 14.9042 3.07119 14.8983 3.12909C14.8925 3.18699 14.9028 3.24537 14.9281 3.29777L15.2875 4.01965L14.6781 4.54465C14.6342 4.58317 14.6018 4.6332 14.5848 4.6891C14.5677 4.745 14.5666 4.80456 14.5815 4.86106C14.5965 4.91757 14.6269 4.96879 14.6693 5.00895C14.7118 5.04911 14.7646 5.07663 14.8219 5.0884L17.2116 5.56634L16.953 6.86336C13.5885 5.49889 7.09581 5.47083 3.55719 6.67667L3.33639 5.56675L5.72813 5.0884C5.78495 5.076 5.83725 5.04816 5.87926 5.00795C5.92127 4.96773 5.95137 4.9167 5.96623 4.86047C5.9811 4.80424 5.98015 4.745 5.9635 4.68928C5.94686 4.63355 5.91515 4.5835 5.87188 4.54465L5.2625 4.01965L5.62187 3.29777C5.64691 3.24536 5.65701 3.18705 5.65105 3.12927C5.64508 3.07149 5.6233 3.01647 5.58808 2.97027C5.55287 2.92407 5.50559 2.88849 5.45146 2.86742C5.39732 2.84636 5.33843 2.84064 5.28125 2.8509L2.58125 3.39152C2.54097 3.3996 2.50268 3.41558 2.4686 3.43851C2.43452 3.46145 2.40531 3.49091 2.38265 3.52518C2.36 3.55945 2.34434 3.59787 2.33659 3.63822C2.32885 3.67856 2.32915 3.72004 2.3375 3.76027C2.50027 4.54343 2.805 6.11633 2.96371 6.89729C1.91071 7.34363 1.24972 7.92265 1.25 8.6259V12.0259C2.81037 12.9925 4.48149 13.2611 7.5781 13.5697C8.23827 12.9609 9.10344 12.6228 10.0015 12.6228C10.8996 12.6228 11.7648 12.9608 12.425 13.5696C15.0781 13.3665 17.05 12.8884 18.125 12.3665C18.3486 12.2637 18.5585 12.1335 18.75 11.979V8.6259C18.75 8.04152 18.2937 7.54465 17.5375 7.13527ZM14.075 6.94152C14.9923 7.07687 15.8898 7.32356 16.7474 7.67614L14.6477 9.10762C14.2064 8.85015 13.7298 8.65874 13.2331 8.5395C13.2358 8.53949 14.0695 6.93662 14.075 6.94152ZM10.5095 6.62902C11.4826 6.64218 12.4541 6.71314 13.4189 6.84154L12.6007 8.39948C11.9107 8.26917 11.2114 8.19393 10.5095 8.17448V6.62902ZM6.975 6.79152C7.941 6.68226 8.91233 6.62697 9.88449 6.6259V8.16385C9.13915 8.16752 8.39529 8.23048 7.65995 8.35214L6.975 6.79152ZM6.32947 6.87619L7.0327 8.47792C6.45094 8.59738 5.89151 8.8073 5.37477 9.10003L3.45375 7.59129C4.38116 7.24158 5.34629 7.00158 6.32947 6.87619ZM4.66398 10.0083C2.73353 9.4833 1.34161 8.75583 2.82581 7.89298L4.89202 9.51558C4.77347 9.65657 4.69474 9.82668 4.66398 10.0083ZM14.7367 10.1479C12.375 10.7175 7.63447 10.7161 5.27188 10.1508C5.26426 9.99483 5.42011 9.83395 5.5545 9.73356C6.71672 8.77213 10.7703 8.55328 12.7042 9.05431C13.3266 9.1608 13.9214 9.39076 14.4536 9.73066C14.5838 9.83437 14.7415 9.99064 14.7367 10.1479ZM15.35 10.0071C15.3122 9.8356 15.237 9.67451 15.1298 9.53539L17.3624 8.01332C18.5352 8.8253 17.1532 9.5116 15.35 10.0071Z" fill="#808080"/>
<path d="M1.875 13.0777C1.66104 12.9876 1.45237 12.8853 1.25 12.7715V14.3309C1.25 15.6434 3.55625 16.5215 6.42187 16.9184V16.2934C6.40331 15.529 6.63001 14.7789 7.06875 14.1527C5.13125 13.9777 3.1875 13.6277 1.875 13.0777Z" fill="#808080"/>
<path d="M12.9375 14.1539C13.5295 14.9516 13.6207 15.9444 13.5781 16.9196C16.4437 16.5227 18.75 15.6445 18.75 14.332V12.7227C17.1519 13.6161 15.1493 13.9155 12.9375 14.1539Z" fill="#808080"/>
<path d="M10.0002 13.2461C9.59816 13.2476 9.2006 13.3308 8.83166 13.4906C8.46271 13.6504 8.13007 13.8835 7.85392 14.1757C7.57777 14.4679 7.36386 14.8132 7.22517 15.1906C7.08648 15.568 7.0259 15.9696 7.0471 16.3711V16.993C9.00986 17.2101 10.9906 17.2101 12.9533 16.993V16.3711C12.9735 15.9698 12.9122 15.5686 12.7732 15.1917C12.6341 14.8148 12.4202 14.4699 12.1442 14.1779C11.8683 13.8859 11.536 13.6528 11.1676 13.4926C10.7991 13.3325 10.402 13.2486 10.0002 13.2461Z" fill="#808080"/>
</svg>
