<svg width="32" height="32" viewBox="0 0 32 32" fill="none" xmlns="http://www.w3.org/2000/svg">
<path d="M31.5 0.5V25.7979L28.7588 28.6465L25.7979 31.5H0.5V6.20703L6.20703 0.5H31.5Z" stroke="#FFC32A"/>
<path d="M23.5375 13.1344C23.6946 12.2889 24.0493 10.604 24.2125 9.75937C24.2205 9.71895 24.2205 9.67734 24.2124 9.63692C24.2044 9.5965 24.1884 9.55807 24.1655 9.52382C24.1426 9.48958 24.1131 9.46018 24.0788 9.43733C24.0445 9.41447 24.0061 9.3986 23.9656 9.39062L21.2688 8.85C21.2115 8.83947 21.1525 8.84501 21.0982 8.86599C21.0439 8.88697 20.9965 8.92258 20.9612 8.96886C20.926 9.01514 20.9042 9.07029 20.8983 9.12819C20.8925 9.18609 20.9028 9.24447 20.9281 9.29687L21.2875 10.0187L20.6781 10.5437C20.6342 10.5823 20.6018 10.6323 20.5848 10.6882C20.5677 10.7441 20.5666 10.8037 20.5815 10.8602C20.5965 10.9167 20.6269 10.9679 20.6693 11.008C20.7118 11.0482 20.7646 11.0757 20.8219 11.0875L23.2116 11.5654L22.953 12.8625C19.5885 11.498 13.0958 11.4699 9.55719 12.6758L9.33639 11.5658L11.7281 11.0875C11.7849 11.0751 11.8372 11.0473 11.8793 11.007C11.9213 10.9668 11.9514 10.9158 11.9662 10.8596C11.9811 10.8033 11.9802 10.7441 11.9635 10.6884C11.9469 10.6327 11.9151 10.5826 11.8719 10.5437L11.2625 10.0187L11.6219 9.29687C11.6469 9.24446 11.657 9.18615 11.651 9.12837C11.6451 9.07059 11.6233 9.01557 11.5881 8.96937C11.5529 8.92317 11.5056 8.88759 11.4515 8.86652C11.3973 8.84546 11.3384 8.83974 11.2812 8.85L8.58125 9.39062C8.54097 9.3987 8.50268 9.41468 8.4686 9.43761C8.43452 9.46055 8.40531 9.49001 8.38265 9.52428C8.36 9.55855 8.34434 9.59697 8.33659 9.63732C8.32885 9.67766 8.32915 9.71914 8.3375 9.75937C8.50027 10.5425 8.805 12.1154 8.96371 12.8964C7.91071 13.3427 7.24972 13.9218 7.25 14.625V18.025C8.81037 18.9916 10.4815 19.2602 13.5781 19.5688C14.2383 18.96 15.1034 18.6219 16.0015 18.6219C16.8996 18.6219 17.7648 18.9599 18.425 19.5687C21.0781 19.3656 23.05 18.8875 24.125 18.3656C24.3486 18.2628 24.5585 18.1326 24.75 17.9781V14.625C24.75 14.0406 24.2937 13.5437 23.5375 13.1344ZM20.075 12.9406C20.9923 13.076 21.8898 13.3227 22.7474 13.6752L20.6477 15.1067C20.2064 14.8492 19.7298 14.6578 19.2331 14.5386C19.2358 14.5386 20.0695 12.9357 20.075 12.9406ZM16.5095 12.6281C17.4826 12.6413 18.4541 12.7122 19.4189 12.8406L18.6007 14.3986C17.9107 14.2683 17.2114 14.193 16.5095 14.1736V12.6281ZM12.975 12.7906C13.941 12.6814 14.9123 12.6261 15.8845 12.625V14.1629C15.1392 14.1666 14.3953 14.2296 13.6599 14.3512L12.975 12.7906ZM12.3295 12.8753L13.0327 14.477C12.4509 14.5965 11.8915 14.8064 11.3748 15.0991L9.45375 13.5904C10.3812 13.2407 11.3463 13.0007 12.3295 12.8753ZM10.664 16.0074C8.73353 15.4824 7.34161 14.7549 8.82581 13.8921L10.892 15.5147C10.7735 15.6557 10.6947 15.8258 10.664 16.0074ZM20.7367 16.147C18.375 16.7166 13.6345 16.7152 11.2719 16.1499C11.2643 15.9939 11.4201 15.833 11.5545 15.7327C12.7167 14.7712 16.7703 14.5524 18.7042 15.0534C19.3266 15.1599 19.9214 15.3899 20.4536 15.7298C20.5838 15.8335 20.7415 15.9897 20.7367 16.147ZM21.35 16.0062C21.3122 15.8347 21.237 15.6736 21.1298 15.5345L23.3624 14.0124C24.5352 14.8244 23.1532 15.5107 21.35 16.0062Z" fill="#808080"/>
<path d="M7.875 19.0777C7.66104 18.9876 7.45237 18.8853 7.25 18.7715V20.3309C7.25 21.6434 9.55625 22.5215 12.4219 22.9184V22.2934C12.4033 21.529 12.63 20.7789 13.0687 20.1527C11.1312 19.9777 9.1875 19.6277 7.875 19.0777Z" fill="#808080"/>
<path d="M18.9375 20.1531C19.5295 20.9508 19.6207 21.9437 19.5781 22.9188C22.4437 22.5219 24.75 21.6438 24.75 20.3313V18.7219C23.1519 19.6153 21.1493 19.9147 18.9375 20.1531Z" fill="#808080"/>
<path d="M16 19.2469C15.5979 19.2484 15.2004 19.3316 14.8314 19.4914C14.4625 19.6512 14.1298 19.8842 13.8537 20.1765C13.5775 20.4687 13.3636 20.814 13.2249 21.1914C13.0863 21.5687 13.0257 21.9704 13.0469 22.3719V22.9937C15.0096 23.2109 16.9904 23.2109 18.9531 22.9937V22.3719C18.9733 21.9706 18.912 21.5694 18.773 21.1925C18.6339 20.8155 18.4199 20.4707 18.144 20.1787C17.868 19.8867 17.5358 19.6535 17.1673 19.4934C16.7989 19.3333 16.4018 19.2494 16 19.2469Z" fill="#808080"/>
</svg>
