<svg width="22" height="22" viewBox="0 0 22 22" fill="none" xmlns="http://www.w3.org/2000/svg">
<path d="M13.7668 8.64724L14.2507 9.62313C14.3167 9.75898 14.4927 9.88928 14.6412 9.91423L15.5183 10.0612C16.0793 10.1554 16.2113 10.5658 15.807 10.9705L15.1251 11.6581C15.0096 11.7745 14.9464 11.9991 14.9821 12.1599L15.1774 13.011C15.3313 13.6847 14.9766 13.9453 14.3855 13.5932L13.5633 13.1025C13.4148 13.0138 13.1701 13.0138 13.0189 13.1025L12.1967 13.5932C11.6083 13.9453 11.2508 13.682 11.4048 13.011L11.6 12.1599C11.6358 11.9991 11.5725 11.7745 11.457 11.6581L10.7751 10.9705C10.3736 10.5658 10.5029 10.1554 11.0638 10.0612L11.941 9.91423C12.0867 9.88928 12.2627 9.75898 12.3287 9.62313L12.8126 8.64724C13.0766 8.11771 13.5056 8.11771 13.7668 8.64724Z" stroke="#808080" stroke-width="1.5" stroke-linecap="round" stroke-linejoin="round"/>
<path d="M7.33318 15.584L7.33318 18.7923" stroke="#808080" stroke-width="1.5" stroke-linecap="round" stroke-linejoin="round"/>
<path d="M7.33318 3.20898V6.41732" stroke="#808080" stroke-width="1.5" stroke-linecap="round" stroke-linejoin="round"/>
<path d="M20.1667 8.13969C20.1053 6.72612 19.9335 5.80588 19.452 5.07792C19.175 4.65912 18.8309 4.29485 18.4353 4.00161C17.3659 3.20898 15.8574 3.20898 12.8404 3.20898H9.16031C6.1433 3.20898 4.6348 3.20898 3.56549 4.00161C3.16988 4.29485 2.82578 4.65912 2.54877 5.07792C2.06732 5.8058 1.89545 6.72591 1.8341 8.13921C1.8236 8.38089 2.03178 8.56575 2.25987 8.56575C3.53017 8.56575 4.55995 9.65589 4.55995 11.0007C4.55995 12.3454 3.53017 13.4355 2.25987 13.4355C2.03178 13.4355 1.8236 13.6204 1.8341 13.8621C1.89545 15.2754 2.06732 16.1955 2.54877 16.9234C2.82578 17.3422 3.16988 17.7064 3.56549 17.9997C4.6348 18.7923 6.1433 18.7923 9.16031 18.7923H12.8404C15.8574 18.7923 17.3659 18.7923 18.4353 17.9997C18.8309 17.7064 19.175 17.3422 19.452 16.9234C19.9335 16.1954 20.1053 15.2752 20.1667 13.8616V8.13969Z" stroke="#808080" stroke-width="1.5" stroke-linejoin="round"/>
</svg>
