<svg width="20" height="20" viewBox="0 0 20 20" fill="none" xmlns="http://www.w3.org/2000/svg">
<path d="M11.2497 1.66406H7.08301C6.39265 1.66406 5.83301 2.2237 5.83301 2.91406C5.83301 3.60442 6.39265 4.16406 7.08301 4.16406H11.2497C11.94 4.16406 12.4997 3.60442 12.4997 2.91406C12.4997 2.2237 11.94 1.66406 11.2497 1.66406Z" stroke="#020202" stroke-width="1.5" stroke-linecap="round" stroke-linejoin="round"/>
<path d="M5.83301 12.4974H8.69017M5.83301 9.16406H12.4997" stroke="#020202" stroke-width="1.5" stroke-linecap="round" stroke-linejoin="round"/>
<path d="M15.8333 9.99698V7.89959C15.8333 5.5426 15.8333 4.3641 15.1011 3.63187C14.5667 3.09745 13.7946 2.95307 12.5 2.91406M9.16667 18.3303H7.5C5.14298 18.3303 3.96447 18.3303 3.23224 17.5981C2.50001 16.8658 2.50001 15.6873 2.5 13.3303L2.50001 7.89964C2.50001 5.5426 2.5 4.3641 3.23223 3.63186C3.76664 3.09745 4.53876 2.95307 5.83325 2.91406" stroke="#020202" stroke-width="1.5" stroke-linecap="round" stroke-linejoin="round"/>
<path d="M13.1142 18.0439L11.667 18.3333L11.9564 16.8861C12.0152 16.5921 12.1597 16.3221 12.3717 16.1102L15.7596 12.7223C16.056 12.4259 16.5367 12.4259 16.8332 12.7223L17.278 13.1671C17.5744 13.4636 17.5744 13.9443 17.278 14.2407L13.8901 17.6286C13.6782 17.8406 13.4082 17.9851 13.1142 18.0439Z" stroke="#020202" stroke-width="1.5" stroke-linecap="round" stroke-linejoin="round"/>
</svg>
