<svg width="22" height="22" viewBox="0 0 22 22" fill="none" xmlns="http://www.w3.org/2000/svg">
<path d="M15.5833 10.8201C15.5833 10.5032 15.5833 10.3448 15.6309 10.2037C15.7695 9.79338 16.1349 9.63425 16.5009 9.46751C16.9124 9.28005 17.1181 9.18637 17.322 9.16987C17.5534 9.15115 17.7853 9.20103 17.9831 9.31204C18.2453 9.45917 18.4282 9.73884 18.6155 9.96627C19.4803 11.0166 19.9126 11.5418 20.0708 12.121C20.1985 12.5883 20.1985 13.0771 20.0708 13.5444C19.8401 14.3891 19.111 15.0972 18.5714 15.7526C18.2954 16.0879 18.1573 16.2555 17.9831 16.3533C17.7853 16.4643 17.5534 16.5142 17.322 16.4955C17.1181 16.479 16.9124 16.3853 16.5009 16.1979C16.1349 16.0311 15.7695 15.872 15.6309 15.4617C15.5833 15.3205 15.5833 15.1621 15.5833 14.8452V10.8201Z" stroke="#808080" stroke-width="1.5"/>
<path d="M6.41659 10.8202C6.41659 10.4213 6.40538 10.0627 6.08284 9.78217C5.96552 9.68015 5.80998 9.60929 5.49892 9.46757C5.08743 9.28021 4.88168 9.18652 4.67782 9.17002C4.06617 9.12052 3.7371 9.53797 3.38437 9.96642C2.51961 11.0167 2.08722 11.5419 1.92901 12.121C1.80133 12.5885 1.80133 13.0772 1.92901 13.5445C2.15977 14.3892 2.88881 15.0973 3.42844 15.7528C3.7686 16.1659 4.09354 16.5429 4.67782 16.4957C4.88168 16.4792 5.08743 16.3854 5.49892 16.198C5.80998 16.0563 5.96552 15.9854 6.08284 15.8834C6.40538 15.6029 6.41659 15.2444 6.41659 14.8454V10.8202Z" stroke="#808080" stroke-width="1.5"/>
<path d="M18.3334 9.62565V8.25065C18.3334 4.70683 15.0502 1.83398 11.0001 1.83398C6.94999 1.83398 3.66675 4.70683 3.66675 8.25065V9.62565" stroke="#808080" stroke-width="1.5"/>
<path d="M18.3333 16.041C18.3333 20.166 14.6667 20.166 11 20.166" stroke="#808080" stroke-width="1.5"/>
</svg>
