<svg width="18" height="18" viewBox="0 0 18 18" fill="none" xmlns="http://www.w3.org/2000/svg">
<path d="M5.25098 6.37891L7.45749 7.68346C8.74388 8.44403 9.25808 8.44403 10.5445 7.68346L12.751 6.37891" stroke="#808080" stroke-width="1.5" stroke-linecap="round" stroke-linejoin="round"/>
<path d="M1.51085 10.1028C1.55988 12.402 1.5844 13.5515 2.43274 14.4031C3.28108 15.2547 4.46177 15.2843 6.82315 15.3436C8.2785 15.3802 9.71955 15.3802 11.1749 15.3436C13.5363 15.2843 14.7169 15.2547 15.5653 14.4031C16.4137 13.5515 16.4382 12.402 16.4872 10.1028C16.503 9.36352 16.503 8.62867 16.4872 7.88939C16.4382 5.59024 16.4137 4.44066 15.5653 3.58909C14.7169 2.73752 13.5363 2.70785 11.1749 2.64852C9.71955 2.61195 8.2785 2.61195 6.82314 2.64851C4.46177 2.70784 3.28108 2.7375 2.43274 3.58908C1.58439 4.44065 1.55988 5.59023 1.51084 7.88939C1.49508 8.62867 1.49509 9.36352 1.51085 10.1028Z" stroke="#808080" stroke-width="1.5" stroke-linecap="round" stroke-linejoin="round"/>
</svg>
