<svg width="22" height="22" viewBox="0 0 22 22" fill="none" xmlns="http://www.w3.org/2000/svg">
<path d="M18.5208 3.09741C18.0462 2.44873 17.2907 2.06544 16.487 2.06526L5.51469 2.06348C4.71042 2.06337 3.95382 2.44732 3.47904 3.09651L2.02527 5.08472L2.01722 5.09635C1.6757 5.58496 1.33805 6.19829 1.20529 6.84016C1.06849 7.50203 1.14286 8.25365 1.71554 8.86776L1.82564 8.97875C2.38779 9.52259 3.16389 9.85516 4.01437 9.85516C4.96593 9.85516 5.8326 9.43414 6.4045 8.76392C6.95086 9.42992 7.78001 9.85516 8.7087 9.85516C9.63059 9.85516 10.4539 9.43588 11.0004 8.77823C11.5469 9.43588 12.3701 9.85516 13.292 9.85516C14.2201 9.85516 15.0481 9.43001 15.5944 8.7648C16.1663 9.43579 17.0341 9.8569 17.9864 9.8569C18.8935 9.8569 19.7167 9.47823 20.2852 8.86865L20.3864 8.75227C20.866 8.16117 20.9229 7.46168 20.7946 6.84106C20.6783 6.27959 20.4066 5.74028 20.1116 5.28703L19.9835 5.09814L19.9755 5.08651L18.5208 3.09741Z" fill="#FFB801"/>
<path d="M6.39208 10.2847C7.052 10.7337 7.84956 10.9989 8.70881 10.999C9.55717 10.9989 10.3449 10.7402 10.9995 10.3017C11.6545 10.7406 12.4433 10.9989 13.2921 10.999L13.5312 10.9919C14.2983 10.9478 15.0079 10.6917 15.6053 10.2856C16.2906 10.7392 17.1144 11.0008 17.9865 11.0009L18.2156 10.9945C18.6562 10.9715 19.0817 10.8818 19.4796 10.7359V17.4157C19.4796 18.8077 18.3508 19.9363 16.9588 19.9365H5.04214C3.65003 19.9364 2.52041 18.8078 2.52041 17.4157V10.7341C2.98718 10.9053 3.49173 10.999 4.01448 10.999L4.25528 10.9928C5.03684 10.9495 5.77109 10.6952 6.39208 10.2847ZM14.2616 15.1276C14.0095 14.8439 13.5751 14.8184 13.2912 15.0703C12.8146 15.4935 11.9904 15.8132 10.9995 15.8134C10.0086 15.8134 9.18381 15.4935 8.70702 15.0703C8.42319 14.8183 7.9888 14.844 7.73664 15.1276C7.48456 15.4115 7.51015 15.8459 7.79393 16.098C8.57077 16.7877 9.74297 17.1884 10.9995 17.1884C12.256 17.1882 13.4277 16.7877 14.2043 16.098C14.4879 15.8459 14.5134 15.4115 14.2616 15.1276Z" fill="#FFB801"/>
</svg>
