<svg width="20" height="20" viewBox="0 0 20 20" fill="none" xmlns="http://www.w3.org/2000/svg">
<path d="M3.55643 15.704C3.74383 17.0958 4.89669 18.1863 6.29963 18.2508C7.48015 18.305 8.67934 18.3333 9.99992 18.3333C11.3205 18.3333 12.5197 18.305 13.7002 18.2508C15.1031 18.1863 16.256 17.0958 16.4434 15.704C16.5657 14.7956 16.6666 13.8647 16.6666 12.9167C16.6666 11.9686 16.5657 11.0378 16.4434 10.1294C16.256 8.73752 15.1031 7.64707 13.7002 7.58258C12.5197 7.52831 11.3205 7.5 9.99992 7.5C8.67934 7.5 7.48015 7.52831 6.29963 7.58258C4.89669 7.64707 3.74383 8.73752 3.55643 10.1294C3.43412 11.0378 3.33325 11.9686 3.33325 12.9167C3.33325 13.8647 3.43412 14.7956 3.55643 15.704Z" stroke="#020202" stroke-width="1.5"/>
<path d="M6.25 7.50008V5.41675C6.25 3.34568 7.92893 1.66675 10 1.66675C12.0711 1.66675 13.75 3.34568 13.75 5.41675V7.50008" stroke="#020202" stroke-width="1.5" stroke-linecap="round" stroke-linejoin="round"/>
<path d="M9.99683 12.9167H10.0043" stroke="#020202" stroke-width="2" stroke-linecap="round" stroke-linejoin="round"/>
</svg>
