<svg width="20" height="20" viewBox="0 0 20 20" fill="none" xmlns="http://www.w3.org/2000/svg">
<g clip-path="url(#clip0_433_18163)">
<path d="M10.0034 9.16406H10.0109M6.67383 9.16406H6.6813" stroke="#020202" stroke-width="1.5" stroke-linecap="round" stroke-linejoin="round"/>
<path d="M18.278 6.66667C18.286 6.86356 18.2933 7.07161 18.3011 7.29192C18.3224 7.89733 18.3337 8.52433 18.3337 9.16667C18.3337 9.809 18.3224 10.436 18.3011 11.0414C18.2313 13.0193 18.1964 14.0083 17.3919 14.8188C16.5875 15.6293 15.5706 15.6728 13.5367 15.7598C12.9252 15.786 12.2918 15.8056 11.6414 15.8179C11.0238 15.8296 10.715 15.8355 10.4437 15.9388C10.1723 16.0422 9.94407 16.2379 9.48741 16.6294L7.67118 18.1868C7.56093 18.2813 7.42048 18.3333 7.27525 18.3333C6.93932 18.3333 6.66699 18.061 6.66699 17.7251V15.7682C6.59901 15.7655 6.53128 15.7628 6.46382 15.7598C4.43007 15.6728 3.4132 15.6293 2.60872 14.8187C1.80423 14.0082 1.76934 13.0193 1.69957 11.0414C1.67821 10.436 1.66699 9.809 1.66699 9.16667C1.66699 8.52433 1.67821 7.89733 1.69957 7.29192C1.76934 5.31403 1.80423 4.32508 2.60872 3.51454C3.4132 2.70401 4.43008 2.6605 6.46383 2.57349C7.57963 2.52575 8.76774 2.5 10.0003 2.5C10.8583 2.5 11.6948 2.51248 12.5003 2.53617" stroke="#020202" stroke-width="1.5" stroke-linecap="round" stroke-linejoin="round"/>
<path d="M14.3633 6.79129L12.916 7.08073L13.2054 5.63351C13.2643 5.33956 13.4088 5.06959 13.6207 4.85761L16.5919 1.88643C16.8883 1.58994 17.3691 1.58994 17.6656 1.88643L18.1103 2.33116C18.4068 2.62766 18.4068 3.10836 18.1103 3.40486L15.1391 6.37604C14.9272 6.58801 14.6572 6.7325 14.3633 6.79129Z" stroke="#020202" stroke-width="1.5" stroke-linecap="round" stroke-linejoin="round"/>
</g>
<defs>
<clipPath id="clip0_433_18163">
<rect width="20" height="20" fill="white"/>
</clipPath>
</defs>
</svg>
