<svg width="22" height="22" viewBox="0 0 22 22" fill="none" xmlns="http://www.w3.org/2000/svg">
<path d="M9.625 7.33398H16.9583M9.625 11.0007H11.9167M16.9583 11.0007H14.6667M9.625 14.6673H11.9167M16.9583 14.6673H14.6667" stroke="#9B9B9B" stroke-width="1.5" stroke-linecap="round" stroke-linejoin="round"/>
<path d="M6.41536 6.875H5.4987C3.77021 6.875 2.90597 6.875 2.369 7.41197C1.83203 7.94894 1.83203 8.81318 1.83203 10.5417V16.5C1.83203 17.7657 2.85805 18.7917 4.1237 18.7917C5.38935 18.7917 6.41536 17.7657 6.41536 16.5V6.875Z" stroke="#9B9B9B" stroke-width="1.5" stroke-linecap="round" stroke-linejoin="round"/>
<path d="M14.6667 3.20898H10.0833C9.23086 3.20898 8.80462 3.20898 8.45491 3.30269C7.50591 3.55697 6.76466 4.29823 6.51037 5.24723C6.41667 5.59694 6.41667 6.02318 6.41667 6.87565V16.5007C6.41667 17.7663 5.39065 18.7923 4.125 18.7923H14.6667C17.2594 18.7923 18.5558 18.7923 19.3612 17.9869C20.1667 17.1814 20.1667 15.885 20.1667 13.2923V8.70898C20.1667 6.11626 20.1667 4.8199 19.3612 4.01444C18.5558 3.20898 17.2594 3.20898 14.6667 3.20898Z" stroke="#9B9B9B" stroke-width="1.5" stroke-linecap="round" stroke-linejoin="round"/>
</svg>
