<svg width="20" height="20" viewBox="0 0 20 20" fill="none" xmlns="http://www.w3.org/2000/svg">
<path d="M5.83301 15C4.3089 15.3431 3.33301 15.8703 3.33301 16.4614C3.33301 17.4953 6.31777 18.3333 9.99967 18.3333C13.6816 18.3333 16.6663 17.4953 16.6663 16.4614C16.6663 15.8703 15.6904 15.3431 14.1663 15" stroke="#020202" stroke-width="1.5" stroke-linecap="round"/>
<path d="M12.0837 7.4974C12.0837 8.64798 11.1509 9.58073 10.0003 9.58073C8.84974 9.58073 7.91699 8.64798 7.91699 7.4974C7.91699 6.3468 8.84974 5.41406 10.0003 5.41406C11.1509 5.41406 12.0837 6.3468 12.0837 7.4974Z" stroke="#020202" stroke-width="1.5" stroke-linecap="round"/>
<path d="M11.0482 14.5754C10.7671 14.8461 10.3914 14.9974 10.0005 14.9974C9.60949 14.9974 9.23383 14.8461 8.95274 14.5754C6.37891 12.0814 2.92965 9.29531 4.61175 5.2505C5.52124 3.0635 7.70444 1.66406 10.0005 1.66406C12.2965 1.66406 14.4797 3.0635 15.3892 5.2505C17.0692 9.29023 13.6283 12.09 11.0482 14.5754Z" stroke="#020202" stroke-width="1.5" stroke-linecap="round"/>
</svg>
