<svg width="20" height="20" viewBox="0 0 20 20" fill="none" xmlns="http://www.w3.org/2000/svg">
<g clip-path="url(#clip0_293_25879)">
<path d="M10.0039 9.16602H10.0114M6.67432 9.16602H6.68179" stroke="#020202" stroke-width="1.5" stroke-linecap="round" stroke-linejoin="round"/>
<path d="M18.2777 6.66667C18.2857 6.86356 18.2931 7.07161 18.3008 7.29192C18.3222 7.89733 18.3334 8.52433 18.3334 9.16667C18.3334 9.809 18.3222 10.436 18.3008 11.0414C18.2311 13.0193 18.1962 14.0083 17.3917 14.8188C16.5872 15.6293 15.5703 15.6728 13.5365 15.7598C12.9249 15.786 12.2916 15.8056 11.6412 15.8179C11.0236 15.8296 10.7147 15.8355 10.4434 15.9388C10.1721 16.0422 9.94383 16.2379 9.48716 16.6294L7.67094 18.1868C7.56069 18.2813 7.42024 18.3333 7.27501 18.3333C6.93907 18.3333 6.66675 18.061 6.66675 17.7251V15.7682C6.59876 15.7655 6.53104 15.7628 6.46357 15.7598C4.42982 15.6728 3.41296 15.6293 2.60847 14.8187C1.80399 14.0082 1.7691 13.0193 1.69932 11.0414C1.67796 10.436 1.66675 9.809 1.66675 9.16667C1.66675 8.52433 1.67796 7.89733 1.69932 7.29192C1.7691 5.31403 1.80399 4.32508 2.60847 3.51454C3.41296 2.70401 4.42983 2.6605 6.46358 2.57349C7.57939 2.52575 8.7675 2.5 10.0001 2.5C10.8581 2.5 11.6946 2.51248 12.5001 2.53617" stroke="#020202" stroke-width="1.5" stroke-linecap="round" stroke-linejoin="round"/>
<path d="M14.3638 6.79324L12.9165 7.08268L13.2059 5.63547C13.2648 5.34152 13.4093 5.07154 13.6212 4.85957L16.5924 1.88838C16.8888 1.59189 17.3696 1.59189 17.6661 1.88838L18.1108 2.33312C18.4073 2.62961 18.4073 3.11032 18.1108 3.40681L15.1396 6.37799C14.9277 6.58997 14.6577 6.73445 14.3638 6.79324Z" stroke="#020202" stroke-width="1.5" stroke-linecap="round" stroke-linejoin="round"/>
</g>
<defs>
<clipPath id="clip0_293_25879">
<rect width="20" height="20" fill="white"/>
</clipPath>
</defs>
</svg>
