<svg width="22" height="22" viewBox="0 0 22 22" fill="none" xmlns="http://www.w3.org/2000/svg">
<path fill-rule="evenodd" clip-rule="evenodd" d="M10.9999 2.93816C6.54712 2.93816 2.93742 6.54785 2.93742 11.0007C2.93742 15.4535 6.54712 19.0632 10.9999 19.0632C15.4527 19.0632 19.0625 15.4535 19.0625 11.0007C19.0625 6.54785 15.4527 2.93816 10.9999 2.93816ZM1.14575 11.0007C1.14575 5.55835 5.55761 1.14648 10.9999 1.14648C16.4423 1.14648 20.8541 5.55835 20.8541 11.0007C20.8541 16.443 16.4423 20.8548 10.9999 20.8548C5.55761 20.8548 1.14575 16.443 1.14575 11.0007Z" fill="#FFB801"/>
<path d="M7.79166 8.70833C7.79166 6.93642 9.22808 5.5 11 5.5C12.7719 5.5 14.2083 6.93642 14.2083 8.70833C14.2083 10.4802 12.7719 11.9167 11 11.9167C9.22808 11.9167 7.79166 10.4802 7.79166 8.70833Z" fill="#FFB801"/>
<path d="M4.95808 16.1773C5.89651 14.535 7.64297 13.5215 9.53442 13.5215H12.4648C14.3563 13.5215 16.1028 14.535 17.0412 16.1773L17.9754 17.9607C16.1915 19.7486 13.7248 20.8547 10.9997 20.8547C8.27456 20.8547 5.8078 19.7485 4.02393 17.9607L4.95808 16.1773Z" fill="#FFB801"/>
</svg>
