<svg width="22" height="22" viewBox="0 0 22 22" fill="none" xmlns="http://www.w3.org/2000/svg">
<path d="M5.34229 6.1875H6.24951C6.7196 6.1875 7.1007 6.58423 7.1007 7.07362V7.95973H5.39831C4.57175 7.95973 4.03744 7.96161 3.64376 8.01671C3.27457 8.06838 3.15885 8.15181 3.09405 8.21927C3.02926 8.28671 2.94912 8.40718 2.89948 8.79152C2.84655 9.20134 2.84475 9.75757 2.84475 10.618V16.3777C2.84475 17.1119 3.58007 17.7069 4.28522 17.7069C4.99037 17.7069 5.72569 17.1119 5.72569 16.3777H7.1007C7.1007 18.0906 5.76688 19.4792 4.12153 19.4792C2.47618 19.4792 1.14237 18.0906 1.14237 16.3777V10.5597C1.14232 9.77416 1.14228 9.09738 1.21228 8.55538C1.2873 7.97452 1.45647 7.41773 1.89029 6.96611C2.32411 6.5145 2.85895 6.33839 3.41693 6.26029C3.93757 6.18742 4.58771 6.18746 5.34229 6.1875Z" fill="#FFB801"/>
<path fill-rule="evenodd" clip-rule="evenodd" d="M17.7759 2.62737C16.9812 2.52052 15.9707 2.52054 14.7171 2.52056L9.97727 2.52053C9.22753 2.52028 8.71586 2.52012 8.27708 2.63769C7.09083 2.95554 6.16426 3.88211 5.84641 5.06837C5.72883 5.50714 5.72901 6.01878 5.72926 6.76857L5.72927 16.4997C5.72927 17.3856 5.01107 18.1038 4.12511 18.1038C3.74541 18.1038 3.43761 18.4117 3.43761 18.7913C3.43761 19.1711 3.74541 19.4788 4.12511 19.4788H14.7171C15.9707 19.4789 16.9812 19.4789 17.7759 19.3721C18.601 19.2611 19.2957 19.0238 19.8475 18.4721C20.3992 17.9203 20.6365 17.2256 20.7475 16.4005C20.8543 15.6057 20.8543 14.5953 20.8543 13.3417V8.65776C20.8543 7.40414 20.8543 6.39368 20.7475 5.59895C20.6365 4.77385 20.3992 4.07914 19.8475 3.52738C19.2957 2.97562 18.601 2.7383 17.7759 2.62737ZM9.62509 6.64551C9.2454 6.64551 8.93761 6.95332 8.93761 7.33301C8.93761 7.7127 9.2454 8.02051 9.62509 8.02051H16.9584C17.3381 8.02051 17.6459 7.7127 17.6459 7.33301C17.6459 6.95332 17.3381 6.64551 16.9584 6.64551H9.62509ZM9.62509 10.3122C9.2454 10.3122 8.93761 10.62 8.93761 10.9997C8.93761 11.3794 9.2454 11.6872 9.62509 11.6872H11.9168C12.2964 11.6872 12.6043 11.3794 12.6043 10.9997C12.6043 10.62 12.2964 10.3122 11.9168 10.3122H9.62509ZM14.6668 10.3122C14.2871 10.3122 13.9793 10.62 13.9793 10.9997C13.9793 11.3794 14.2871 11.6872 14.6668 11.6872H16.9584C17.3381 11.6872 17.6459 11.3794 17.6459 10.9997C17.6459 10.62 17.3381 10.3122 16.9584 10.3122H14.6668ZM9.62509 13.9788C9.2454 13.9788 8.93761 14.2867 8.93761 14.6663C8.93761 15.046 9.2454 15.3538 9.62509 15.3538H11.9168C12.2964 15.3538 12.6043 15.046 12.6043 14.6663C12.6043 14.2867 12.2964 13.9788 11.9168 13.9788H9.62509ZM14.6668 13.9788C14.2871 13.9788 13.9793 14.2867 13.9793 14.6663C13.9793 15.046 14.2871 15.3538 14.6668 15.3538H16.9584C17.3381 15.3538 17.6459 15.046 17.6459 14.6663C17.6459 14.2867 17.3381 13.9788 16.9584 13.9788H14.6668Z" fill="#FFB801"/>
</svg>
