<svg width="32" height="32" viewBox="0 0 32 32" fill="none" xmlns="http://www.w3.org/2000/svg">
<path d="M31.5 0.5V25.7979L28.7588 28.6465L25.7979 31.5H0.5V6.20703L6.20703 0.5H31.5Z" fill="white" stroke="#FFC32A"/>
<path d="M22.25 10.582L21.7336 18.9363C21.6016 21.0707 21.5357 22.1379 21.0007 22.9053C20.7361 23.2846 20.3956 23.6048 20.0006 23.8454C19.2017 24.332 18.1325 24.332 15.9939 24.332C13.8526 24.332 12.7819 24.332 11.9825 23.8444C11.5873 23.6034 11.2467 23.2827 10.9822 22.9027C10.4474 22.1342 10.3829 21.0654 10.2538 18.928L9.75 10.582" stroke="#E30612" stroke-width="1.5" stroke-linecap="round"/>
<path d="M8.5 10.5846H23.5M19.3797 10.5846L18.8109 9.41108C18.433 8.63152 18.244 8.24174 17.9181 7.99864C17.8458 7.94472 17.7693 7.89675 17.6892 7.85522C17.3283 7.66797 16.8951 7.66797 16.0287 7.66797C15.1407 7.66797 14.6967 7.66797 14.3297 7.86307C14.2484 7.90631 14.1708 7.95622 14.0977 8.01228C13.768 8.26522 13.5839 8.66926 13.2155 9.47735L12.7108 10.5846" stroke="#E30612" stroke-width="1.5" stroke-linecap="round"/>
<path d="M13.9165 19.75V14.75" stroke="#E30612" stroke-width="1.5" stroke-linecap="round"/>
<path d="M18.0835 19.75V14.75" stroke="#E30612" stroke-width="1.5" stroke-linecap="round"/>
</svg>
