<svg width="40" height="40" viewBox="0 0 40 40" fill="none" xmlns="http://www.w3.org/2000/svg">
<path d="M39.5 0.5V32.2979L36.0371 35.8965L32.2979 39.5H0.5V7.70703L7.70703 0.5H39.5Z" fill="white" stroke="#FFC32A"/>
<circle cx="25" cy="27" r="2" stroke="#020202" stroke-width="1.5"/>
<circle cx="15" cy="27" r="2" stroke="#020202" stroke-width="1.5"/>
<path d="M10 17V21.947C10 24.329 10 25.52 10.7322 26.26C11.2191 26.752 11.9033 26.9169 13 26.9722M20.4271 13C21.3404 13.2999 22.0564 14.0235 22.3532 14.9465C22.5 15.4032 22.5 15.9675 22.5 17.0961C22.5 17.8485 22.5 18.2247 22.5979 18.5292C22.7957 19.1445 23.2731 19.6269 23.882 19.8269C24.1832 19.9258 24.5555 19.9258 25.3 19.9258H30V21.947C30 24.329 30 25.52 29.2678 26.26C28.7809 26.752 28.0967 26.9169 27 26.9722M17 27H23" stroke="#020202" stroke-width="1.5" stroke-linecap="round" stroke-linejoin="round"/>
<path d="M22.5 15H24.3212C25.7766 15 26.5042 15 27.0964 15.3537C27.6886 15.7074 28.0336 16.3481 28.7236 17.6295L30 20" stroke="#020202" stroke-width="1.5" stroke-linecap="round" stroke-linejoin="round"/>
<path d="M15.3265 16L16.8131 14.8258C17.6044 14.2008 18 13.8883 18 13.5M15.3265 11L16.8131 12.1742C17.6044 12.7992 18 13.1117 18 13.5M18 13.5L10 13.5" stroke="#F48E35" stroke-width="1.5" stroke-linecap="round" stroke-linejoin="round"/>
</svg>
