<svg width="32" height="32" viewBox="0 0 32 32" fill="none" xmlns="http://www.w3.org/2000/svg">
<path d="M31.5 0.5V25.7979L28.7588 28.6465L25.7979 31.5H0.5V6.20703L6.20703 0.5H31.5Z" stroke="#FFC32A"/>
<g clip-path="url(#clip0_136_14528)">
<path d="M12.2373 6.73177C10.9968 7.23473 9.8836 7.97424 8.92907 8.92848C7.97427 9.88299 7.23558 10.9964 6.73234 12.2367C6.24651 13.4349 6 14.7012 6 16C6 17.2986 6.24651 18.5648 6.73234 19.7625C7.23558 21.003 7.97455 22.1165 8.92907 23.0707C9.8836 24.0255 10.9965 24.7644 12.2373 25.2674C13.4356 25.7538 14.7016 25.9994 16.0004 25.9994C17.2993 25.9994 18.565 25.7529 19.7632 25.2674C21.0035 24.7644 22.1172 24.0255 23.0715 23.0707C24.0263 22.1165 24.7653 21.0036 25.2682 19.7625C25.754 18.5648 26 17.2986 26 16C26 14.7012 25.7538 13.4349 25.2682 12.2367C24.7653 10.9964 24.0257 9.88272 23.0715 8.92848C22.1172 7.97424 21.0046 7.23473 19.7632 6.73177C18.565 6.24623 17.2993 6 16.0004 6C14.7016 6 13.4356 6.24623 12.2373 6.73177ZM8.49934 20.2096C8.01766 19.9073 7.57383 19.5591 7.18086 19.149C6.58062 17.46 6.47892 15.6313 6.87659 13.8956C7.06369 13.5267 7.27648 13.1724 7.51718 12.833C7.59152 12.7283 7.66033 12.6191 7.73992 12.5174L9.99663 13.8528C9.99663 13.8704 9.99663 13.8898 9.99663 13.9094C9.99082 15.1231 10.1141 16.328 10.3595 17.5155C10.3603 17.521 10.3611 17.5241 10.3622 17.529L8.6121 20.2732C8.57396 20.2539 8.5361 20.2329 8.49934 20.2096ZM15.2092 24.8487C15.5986 25.0474 15.999 25.2152 16.4105 25.3517C14.6626 25.4277 12.8972 25.0181 11.3367 24.1228L15.1197 24.7968C15.1487 24.8153 15.1783 24.833 15.2092 24.8487ZM15.1954 24.1659L10.7312 23.3703C10.2089 22.736 9.73907 22.0651 9.33531 21.3479C9.23251 21.1655 9.11782 20.9884 9.03077 20.798L10.7793 18.0566C10.818 18.0663 10.8611 18.0765 10.91 18.0895C12.0038 18.3821 13.1169 18.5902 14.2378 18.7533C14.3033 18.7624 14.358 18.7704 14.4047 18.7754L16.5006 22.3992C16.1369 22.9104 15.7691 23.4189 15.3933 23.9218C15.3308 24.0056 15.2645 24.086 15.1954 24.1659ZM22.6227 22.6222C22.2673 22.9778 21.8901 23.2984 21.4952 23.5841C21.4297 23.0607 21.3166 22.5478 21.1572 22.0468L23.3934 17.875C24.0094 17.5945 24.6036 17.2765 25.1552 16.8821C25.2273 16.831 25.2873 16.7738 25.3337 16.7113C25.1718 18.8671 24.2681 20.9771 22.6227 22.6222ZM22.5235 17.2118C22.6067 17.3704 22.6887 17.5307 22.7711 17.6932L20.6111 21.7224C20.5987 21.7251 20.5868 21.7279 20.5743 21.7296C19.4068 21.9476 18.2298 22.0637 17.0428 22.0692L14.8873 18.3421C15.2228 17.7192 15.5552 17.0938 15.8849 16.4681C16.1087 16.0437 16.3287 15.6164 16.5484 15.1895L21.0096 14.7313C21.556 15.5327 22.0736 16.3512 22.5235 17.2118ZM21.6184 12.4326C21.4067 12.9917 21.1801 13.5449 20.9549 14.0993L16.6089 14.5456C16.557 14.477 16.5031 14.4096 16.4464 14.3452C15.9333 13.7641 15.4168 13.1865 14.9011 12.6073C14.9058 12.6014 14.9105 12.597 14.9152 12.5918C14.7071 12.384 14.4984 12.1761 14.2903 11.9678L15.5002 8.32521C15.5837 8.3031 15.6677 8.28459 15.7525 8.27547C16.4102 8.20859 17.0688 8.13287 17.7282 8.09473C18.1319 8.07207 18.5379 8.05908 18.9486 8.0881L21.942 11.4621C21.8389 11.7876 21.7383 12.114 21.6184 12.4326ZM22.6227 9.37727C23.4484 10.2036 24.0879 11.1465 24.54 12.1538C23.9807 11.7688 23.3827 11.4521 22.7539 11.194C22.6561 11.1537 22.5558 11.118 22.4538 11.0829L19.5073 7.76201C19.5278 7.61858 19.5386 7.47488 19.543 7.33007C20.6639 7.78633 21.7146 8.46946 22.6227 9.37727ZM13.0011 7.1557C13.0128 7.16426 13.0183 7.17145 13.0249 7.17338C13.6984 7.40607 14.3111 7.74874 14.8886 8.15525L13.7584 11.5591C13.7526 11.5607 13.747 11.5624 13.7415 11.5649C13.5102 11.6605 13.2745 11.7461 13.0467 11.8498C12.1085 12.2762 11.1938 12.7485 10.3321 13.3147L8.10167 11.9951C8.10499 11.9255 8.11687 11.8548 8.14064 11.7917C8.29042 11.3927 8.43772 10.9914 8.60712 10.6004C8.73756 10.2992 8.88624 10.0082 9.04846 9.72382C9.15458 9.60664 9.26457 9.49058 9.37787 9.37727C10.4371 8.3183 11.689 7.56635 13.0219 7.1217C13.015 7.13248 13.0078 7.14381 13.0011 7.1557Z" fill="#808080"/>
</g>
<defs>
<clipPath id="clip0_136_14528">
<rect width="20" height="20" fill="white" transform="translate(6 6)"/>
</clipPath>
</defs>
</svg>
