<svg width="20" height="20" viewBox="0 0 20 20" fill="none" xmlns="http://www.w3.org/2000/svg">
<g clip-path="url(#clip0_314_19277)">
<path d="M18.3337 9.9974C18.3337 5.39502 14.6027 1.66406 10.0003 1.66406C5.39795 1.66406 1.66699 5.39502 1.66699 9.9974C1.66699 14.5997 5.39795 18.3307 10.0003 18.3307C14.6027 18.3307 18.3337 14.5997 18.3337 9.9974Z" stroke="#020202" stroke-width="1.5" stroke-linejoin="round"/>
<path d="M16.6663 4.74655C15.8874 4.8027 14.8898 5.10426 14.1979 5.9997C12.9484 7.61707 11.6988 7.75203 10.8658 7.2129C9.61626 6.40423 10.6663 5.09436 9.19976 4.38252C8.24395 3.91858 8.11068 2.6561 8.64267 1.66406" stroke="#020202" stroke-width="1.5" stroke-linejoin="round"/>
<path d="M1.66699 9.16406C2.30241 9.71581 3.19238 10.2209 4.24094 10.2209C6.40735 10.2209 6.84063 10.6348 6.84063 12.2906C6.84063 13.9463 6.84063 13.9463 7.27392 15.1881C7.55575 15.9958 7.65426 16.8036 7.09249 17.4974" stroke="#020202" stroke-width="1.5" stroke-linejoin="round"/>
<path d="M18.3337 11.2128C17.5944 10.7868 16.667 10.6116 15.7282 11.2863C13.9317 12.5774 12.6932 11.5076 12.1352 12.5767C11.3141 14.1505 14.2467 14.6452 11.667 18.3359" stroke="#020202" stroke-width="1.5" stroke-linejoin="round"/>
</g>
<defs>
<clipPath id="clip0_314_19277">
<rect width="20" height="20" fill="white"/>
</clipPath>
</defs>
</svg>
