<svg width="22" height="22" viewBox="0 0 22 22" fill="none" xmlns="http://www.w3.org/2000/svg">
<path d="M19.25 6.41675V11.0001M2.75 6.41675C2.75 9.22589 2.75 15.3764 2.75 15.7313C2.75 16.9985 4.53351 17.7519 8.10052 19.2587C9.53351 19.8641 10.25 20.1667 11 20.1667L11 10.4087" stroke="#020202" stroke-width="1.5" stroke-linecap="round" stroke-linejoin="round"/>
<path d="M13.75 17.4167C13.75 17.4167 14.5521 17.4167 15.3542 19.25C15.3542 19.25 17.902 14.6667 20.1667 13.75" stroke="#020202" stroke-width="1.5" stroke-linecap="round" stroke-linejoin="round"/>
<path d="M7.63209 8.88369L4.95432 7.58794C3.48477 6.87685 2.75 6.5213 2.75 5.95825C2.75 5.39521 3.48477 5.03966 4.95432 4.32856L7.63209 3.03282C9.28477 2.23311 10.1111 1.83325 11 1.83325C11.8889 1.83325 12.7152 2.23311 14.3679 3.03282L17.0457 4.32856C18.5152 5.03966 19.25 5.39521 19.25 5.95825C19.25 6.5213 18.5152 6.87685 17.0457 7.58794L14.3679 8.88369C12.7152 9.6834 11.8889 10.0833 11 10.0833C10.1111 10.0833 9.28477 9.6834 7.63209 8.88369Z" stroke="#020202" stroke-width="1.5" stroke-linecap="round" stroke-linejoin="round"/>
<path d="M5.5 11L7.33333 11.9167" stroke="#020202" stroke-width="1.5" stroke-linecap="round" stroke-linejoin="round"/>
<path d="M15.5837 3.66675L6.41699 8.25008" stroke="#020202" stroke-width="1.5" stroke-linecap="round" stroke-linejoin="round"/>
</svg>
