<svg width="191" height="191" viewBox="0 0 191 191" fill="none" xmlns="http://www.w3.org/2000/svg">
<circle cx="94.5146" cy="95.1177" r="82" fill="#FFAA1A" fill-opacity="0.13"/>
<g filter="url(#filter0_d_293_25761)">
<circle cx="95.1176" cy="95.1176" r="65.1176" fill="#FFAA1A" fill-opacity="0.4" shape-rendering="crispEdges"/>
</g>
<path fill-rule="evenodd" clip-rule="evenodd" d="M94.5146 143.354C67.875 143.354 46.2793 121.758 46.2793 95.1186C46.2793 68.479 67.875 46.8833 94.5146 46.8833C121.154 46.8833 142.75 68.479 142.75 95.1186C142.75 121.758 121.154 143.354 94.5146 143.354Z" fill="#FFAA1A"/>
<path fill-rule="evenodd" clip-rule="evenodd" d="M67.4312 95.1178C67.4312 80.4362 79.3329 68.5344 94.0145 68.5344C103.864 68.5344 112.384 73.8913 116.949 81.8296C117.907 83.4951 118.692 85.275 119.278 87.1436C119.509 87.8776 119.376 88.6776 118.921 89.2978C118.466 89.9181 117.742 90.2844 116.973 90.2844H110.931C109.999 90.2844 109.15 89.7484 108.749 88.9069C108.348 88.0654 108.467 87.0684 109.055 86.3448L111.89 82.8512C107.996 77.1179 101.469 73.3678 94.0145 73.3678C82.0023 73.3678 72.2645 83.1056 72.2645 95.1178C72.2645 107.13 82.0022 116.868 94.0145 116.868C95.349 116.868 96.4312 117.95 96.4312 119.284C96.4312 120.619 95.349 121.701 94.0145 121.701C79.3328 121.701 67.4312 109.799 67.4312 95.1178Z" fill="white"/>
<path fill-rule="evenodd" clip-rule="evenodd" d="M94.0148 83.0344C95.3495 83.0344 96.4315 84.1164 96.4315 85.4511V94.1168L100.557 98.2423C101.501 99.186 101.501 100.716 100.557 101.66C99.6133 102.604 98.083 102.604 97.1393 101.66L92.306 96.8266C91.8529 96.3735 91.5981 95.7587 91.5981 95.1178V85.4511C91.5981 84.1164 92.6801 83.0344 94.0148 83.0344Z" fill="white"/>
<path fill-rule="evenodd" clip-rule="evenodd" d="M118.182 92.7009C119.517 92.7009 120.599 93.7829 120.599 95.1176C120.599 96.0055 120.559 96.8839 120.48 97.7518C120.36 99.0809 119.185 100.061 117.856 99.941C116.527 99.8212 115.547 98.6462 115.667 97.3168C115.732 96.5937 115.766 95.86 115.766 95.1176C115.766 93.7829 116.848 92.7009 118.182 92.7009ZM117.355 102.151C118.603 102.622 119.235 104.016 118.764 105.264C118.369 106.314 117.914 107.332 117.405 108.314C116.79 109.499 115.331 109.961 114.146 109.346C112.962 108.731 112.5 107.272 113.114 106.088C113.537 105.274 113.913 104.431 114.241 103.561C114.712 102.312 116.106 101.681 117.355 102.151ZM112.984 111.004C113.962 111.912 114.019 113.441 113.111 114.419C112.301 115.292 111.436 116.11 110.521 116.867C109.493 117.718 107.97 117.574 107.119 116.546C106.268 115.517 106.412 113.994 107.44 113.143C108.19 112.522 108.902 111.85 109.569 111.131C110.477 110.153 112.006 110.096 112.984 111.004ZM105.879 117.33C106.435 118.544 105.902 119.978 104.688 120.534C103.823 120.93 102.933 121.28 102.021 121.58C100.753 121.997 99.3873 121.307 98.97 120.04C98.5526 118.772 99.2421 117.406 100.51 116.989C101.249 116.745 101.972 116.461 102.676 116.139C103.89 115.583 105.324 116.117 105.879 117.33Z" fill="white"/>
<defs>
<filter id="filter0_d_293_25761" x="0" y="0" width="190.235" height="190.235" filterUnits="userSpaceOnUse" color-interpolation-filters="sRGB">
<feFlood flood-opacity="0" result="BackgroundImageFix"/>
<feColorMatrix in="SourceAlpha" type="matrix" values="0 0 0 0 0 0 0 0 0 0 0 0 0 0 0 0 0 0 127 0" result="hardAlpha"/>
<feOffset/>
<feGaussianBlur stdDeviation="15"/>
<feComposite in2="hardAlpha" operator="out"/>
<feColorMatrix type="matrix" values="0 0 0 0 0 0 0 0 0 0.452749 0 0 0 0 0.014373 0 0 0 0.1 0"/>
<feBlend mode="normal" in2="BackgroundImageFix" result="effect1_dropShadow_293_25761"/>
<feBlend mode="normal" in="SourceGraphic" in2="effect1_dropShadow_293_25761" result="shape"/>
</filter>
</defs>
</svg>
