<svg width="191" height="191" viewBox="0 0 191 191" fill="none" xmlns="http://www.w3.org/2000/svg">
<circle cx="94.5146" cy="95.1172" r="82" fill="#E30612" fill-opacity="0.13"/>
<g filter="url(#filter0_d_433_9512)">
<circle cx="95.1176" cy="95.1176" r="65.1176" fill="#E30612" fill-opacity="0.4" shape-rendering="crispEdges"/>
</g>
<path fill-rule="evenodd" clip-rule="evenodd" d="M94.5146 143.353C67.875 143.353 46.2793 121.758 46.2793 95.1181C46.2793 68.4785 67.875 46.8828 94.5146 46.8828C121.154 46.8828 142.75 68.4785 142.75 95.1181C142.75 121.758 121.154 143.353 94.5146 143.353Z" fill="#E30612"/>
<path d="M87.2151 70.4238C89.2789 70.4239 90.952 72.0786 90.952 74.1197V116.072C90.952 118.113 89.2789 119.768 87.2151 119.768C86.8137 119.768 86.4153 119.703 86.0345 119.577L74.0036 115.613C72.3457 115.066 71.2276 113.531 71.2275 111.802V78.3894C71.2276 76.6609 72.3457 75.126 74.0036 74.5792L86.0345 70.6143C86.4153 70.4889 86.8137 70.4238 87.2151 70.4238Z" fill="white"/>
<path d="M104.876 110.59V108.869C104.876 107.601 103.837 106.574 102.555 106.574C101.274 106.574 100.235 107.601 100.235 108.869V110.59H88.632C87.3504 110.59 86.3115 111.618 86.3115 112.885C86.3115 114.153 87.3504 115.18 88.632 115.18H100.235C102.798 115.18 104.876 113.125 104.876 110.59ZM104.876 81.3281V79.6068C104.876 77.0717 102.798 75.0166 100.235 75.0166H88.632C87.3504 75.0166 86.3115 76.0442 86.3115 77.3117C86.3115 78.5792 87.3504 79.6068 88.632 79.6068H100.235V81.3281C100.235 82.5956 101.274 83.6231 102.555 83.6231C103.837 83.6231 104.876 82.5956 104.876 81.3281Z" fill="white"/>
<path d="M107.252 87.7386C108.158 86.8423 109.627 86.8423 110.533 87.7386L116.335 93.4763C116.77 93.9068 117.015 94.4902 117.015 95.0989C117.015 95.7078 116.77 96.2912 116.335 96.7218L110.533 102.459C109.627 103.356 108.158 103.356 107.252 102.459C106.346 101.563 106.346 100.11 107.252 99.214L109.092 97.394H97.2902C96.0086 97.394 94.9697 96.3665 94.9697 95.0989C94.9697 93.8316 96.0086 92.8038 97.2902 92.8038H109.092L107.252 90.9841L107.094 90.8092C106.35 89.9077 106.403 88.5789 107.252 87.7386Z" fill="white"/>
<defs>
<filter id="filter0_d_433_9512" x="0" y="0" width="190.235" height="190.235" filterUnits="userSpaceOnUse" color-interpolation-filters="sRGB">
<feFlood flood-opacity="0" result="BackgroundImageFix"/>
<feColorMatrix in="SourceAlpha" type="matrix" values="0 0 0 0 0 0 0 0 0 0 0 0 0 0 0 0 0 0 127 0" result="hardAlpha"/>
<feOffset/>
<feGaussianBlur stdDeviation="15"/>
<feComposite in2="hardAlpha" operator="out"/>
<feColorMatrix type="matrix" values="0 0 0 0 0 0 0 0 0 0.452749 0 0 0 0 0.014373 0 0 0 0.1 0"/>
<feBlend mode="normal" in2="BackgroundImageFix" result="effect1_dropShadow_433_9512"/>
<feBlend mode="normal" in="SourceGraphic" in2="effect1_dropShadow_433_9512" result="shape"/>
</filter>
</defs>
</svg>
