<svg width="32" height="32" viewBox="0 0 32 32" fill="none" xmlns="http://www.w3.org/2000/svg">
<path d="M31.5 0.5V25.7979L28.7588 28.6465L25.7979 31.5H0.5V6.20703L6.20703 0.5H31.5Z" stroke="#FFC32A"/>
<path d="M18.7661 13.6471L19.25 14.6231C19.316 14.7589 19.492 14.8892 19.6405 14.9141L20.5177 15.0611C21.0786 15.1554 21.2106 15.5657 20.8063 15.9704L20.1244 16.658C20.0089 16.7744 19.9457 16.999 19.9814 17.1598L20.1767 18.0109C20.3307 18.6846 19.9759 18.9453 19.3848 18.5932L18.5626 18.1025C18.4141 18.0137 18.1695 18.0137 18.0182 18.1025L17.196 18.5932C16.6076 18.9453 16.2501 18.6819 16.4041 18.0109L16.5994 17.1598C16.635 16.999 16.5719 16.7744 16.4564 16.658L15.7745 15.9704C15.373 15.5657 15.5022 15.1554 16.0631 15.0611L16.9403 14.9141C17.086 14.8892 17.262 14.7589 17.328 14.6231L17.812 13.6471C18.076 13.1176 18.5049 13.1176 18.7661 13.6471Z" stroke="#808080" stroke-width="1.5" stroke-linecap="round" stroke-linejoin="round"/>
<path d="M12.334 20.584V23.7923" stroke="#808080" stroke-width="1.5" stroke-linecap="round" stroke-linejoin="round"/>
<path d="M12.334 8.20898V11.4173" stroke="#808080" stroke-width="1.5" stroke-linecap="round" stroke-linejoin="round"/>
<path d="M25.1669 13.1397C25.1056 11.7261 24.9337 10.8059 24.4522 10.0779C24.1752 9.65911 23.8312 9.29486 23.4355 9.00161C22.3662 8.20898 20.8577 8.20898 17.8408 8.20898H14.1606C11.1436 8.20898 9.63507 8.20898 8.56576 9.00161C8.17015 9.29486 7.82605 9.65911 7.54903 10.0779C7.06759 10.8058 6.89572 11.7259 6.83437 13.1392C6.82387 13.3809 7.03204 13.5658 7.26014 13.5658C8.53044 13.5658 9.56022 14.6559 9.56022 16.0007C9.56022 17.3454 8.53044 18.4355 7.26014 18.4355C7.03204 18.4355 6.82387 18.6204 6.83437 18.8621C6.89572 20.2754 7.06759 21.1955 7.54903 21.9234C7.82605 22.3422 8.17015 22.7064 8.56576 22.9997C9.63507 23.7923 11.1436 23.7923 14.1606 23.7923H17.8408C20.8577 23.7923 22.3662 23.7923 23.4355 22.9997C23.8312 22.7064 24.1752 22.3422 24.4522 21.9234C24.9337 21.1954 25.1056 20.2752 25.1669 18.8617V13.1397Z" stroke="#808080" stroke-width="1.5" stroke-linecap="round" stroke-linejoin="round"/>
</svg>
