<svg width="40" height="40" viewBox="0 0 40 40" fill="none" xmlns="http://www.w3.org/2000/svg">
<rect width="40" height="40" rx="20" fill="white"/>
<path d="M16.3346 15.416H23.668C25.3964 15.416 26.2607 15.416 26.7977 15.953C27.3346 16.49 27.3346 17.3542 27.3346 19.0827V22.7493C27.3346 25.7742 27.3346 27.2866 26.395 28.2263C25.4552 29.166 23.9428 29.166 20.918 29.166H19.0846C16.0598 29.166 14.5474 29.166 13.6077 28.2263C12.668 27.2866 12.668 25.7742 12.668 22.7493V19.0827C12.668 17.3542 12.668 16.49 13.2049 15.953C13.7419 15.416 14.6062 15.416 16.3346 15.416Z" stroke="#020202" stroke-width="1.5" stroke-linecap="round" stroke-linejoin="round"/>
<path d="M23.6654 17.709C23.6654 14.1652 22.0237 10.834 19.9987 10.834C17.9737 10.834 16.332 14.1652 16.332 17.709" stroke="#020202" stroke-width="1.5" stroke-linecap="round" stroke-linejoin="round"/>
</svg>
