<svg width="20" height="20" viewBox="0 0 20 20" fill="none" xmlns="http://www.w3.org/2000/svg">
<g clip-path="url(#clip0_136_23803)">
<path d="M3.14798 9.95195C2.35796 8.57441 1.9765 7.44956 1.74649 6.30933C1.40631 4.62297 2.1848 2.97566 3.47444 1.92455C4.0195 1.48031 4.64432 1.63209 4.96663 2.21032L5.69428 3.51575C6.27103 4.55046 6.55941 5.06782 6.50221 5.61632C6.44501 6.16481 6.0561 6.61154 5.27827 7.50499L3.14798 9.95195ZM3.14798 9.95195C4.74705 12.7402 7.25649 15.251 10.048 16.852M10.048 16.852C11.4255 17.642 12.5504 18.0234 13.6906 18.2535C15.377 18.5936 17.0243 17.8151 18.0754 16.5255C18.5196 15.9805 18.3679 15.3556 17.7896 15.0333L16.4842 14.3057C15.4495 13.7289 14.9321 13.4405 14.3836 13.4977C13.8351 13.5549 13.3884 13.9439 12.495 14.7217L10.048 16.852Z" stroke="#020202" stroke-width="1.5" stroke-linejoin="round"/>
</g>
<defs>
<clipPath id="clip0_136_23803">
<rect width="20" height="20" fill="white"/>
</clipPath>
</defs>
</svg>
