<svg width="22" height="22" viewBox="0 0 22 22" fill="none" xmlns="http://www.w3.org/2000/svg">
<path fill-rule="evenodd" clip-rule="evenodd" d="M6.55847 2.63236C6.64581 2.7139 6.64581 2.84917 6.64581 3.11972V6.41665C6.64581 6.79634 6.95362 7.10415 7.33331 7.10415C7.71301 7.10415 8.02081 6.79634 8.02081 6.41665V3.06971C8.02081 2.8116 8.02081 2.68254 8.10124 2.60202C8.18166 2.52149 8.31038 2.52134 8.56783 2.52102C8.74462 2.52081 8.92623 2.52081 9.11281 2.52081H9.11818H12.8825C14.3553 2.5208 15.5183 2.52079 16.4445 2.62413C17.3938 2.73007 18.1737 2.95131 18.8447 3.44863C19.3058 3.79051 19.705 4.21371 20.0253 4.69797C20.6168 5.59223 20.7913 6.67637 20.8535 8.10921C20.8539 8.11914 20.8542 8.12908 20.8542 8.13902V13.861C20.8542 13.8709 20.8539 13.8808 20.8535 13.8908C20.7913 15.3236 20.6168 16.4078 20.0253 17.302C19.705 17.7862 19.3058 18.2095 18.8447 18.5513C18.1737 19.0487 17.3938 19.2699 16.4445 19.3758C15.5184 19.4791 14.3554 19.4791 12.8826 19.4791H9.11822H9.11362C8.92675 19.4791 8.74486 19.4791 8.56782 19.479C8.31039 19.4786 8.18166 19.4785 8.10124 19.3979C8.02081 19.3174 8.02081 19.1884 8.02081 18.9302V15.5833C8.02081 15.2036 7.71301 14.8958 7.33331 14.8958C6.95362 14.8958 6.64581 15.2036 6.64581 15.5833V18.8803C6.64581 19.1508 6.64581 19.2861 6.55847 19.3676C6.47113 19.4492 6.33909 19.44 6.07503 19.4219C5.89428 19.4094 5.72149 19.3943 5.55625 19.3758C4.60685 19.2699 3.82698 19.0487 3.15607 18.5513C2.69485 18.2095 2.29564 17.7862 1.97533 17.302C1.38389 16.4079 1.20941 15.3238 1.14722 13.8912C1.1175 13.2069 1.69408 12.7473 2.25984 12.7473C3.11407 12.7473 3.87242 12.0024 3.87242 11C3.87242 9.99751 3.11407 9.25263 2.25984 9.25263C1.69408 9.25263 1.1175 8.7931 1.14722 8.10872C1.20941 6.67613 1.38389 5.59213 1.97533 4.69797C2.29564 4.21371 2.69485 3.79051 3.15607 3.44863C3.82698 2.95131 4.60685 2.73007 5.55625 2.62413C5.72149 2.6057 5.89428 2.59054 6.07502 2.5781C6.33909 2.55992 6.47113 2.55082 6.55847 2.63236ZM14.3824 8.34213C14.2034 7.97964 13.8484 7.56248 13.2903 7.56248C12.733 7.56248 12.3772 7.97874 12.1969 8.34041L12.1963 8.34169L11.746 9.2496L10.9498 9.38298C10.5474 9.45063 10.0665 9.67457 9.90266 10.1918C9.73977 10.7062 10.0003 11.166 10.2865 11.4546L10.9115 12.0847L10.7343 12.8571C10.6435 13.2526 10.6187 13.8746 11.1145 14.2394C11.6136 14.6067 12.2007 14.3916 12.5489 14.1833L13.2906 13.7405L14.0326 14.1835C14.3789 14.3897 14.9675 14.6083 15.4676 14.2407C15.9648 13.8752 15.937 13.2509 15.8472 12.8577L15.6698 12.0847L16.293 11.4562L16.2939 11.4553C16.582 11.1664 16.8436 10.706 16.6792 10.1905C16.5145 9.67393 16.0335 9.45054 15.6318 9.38307L14.8322 9.24915L14.3829 8.34298L14.3824 8.34213Z" fill="#FFB801"/>
</svg>
