<svg width="22" height="22" viewBox="0 0 22 22" fill="none" xmlns="http://www.w3.org/2000/svg">
<path d="M17.8753 16.0417C17.8753 17.3073 16.8493 18.3333 15.5837 18.3333C14.318 18.3333 13.292 17.3073 13.292 16.0417C13.292 14.776 14.318 13.75 15.5837 13.75C16.8493 13.75 17.8753 14.776 17.8753 16.0417Z" stroke="#020202" stroke-width="1.5"/>
<path d="M8.70833 16.0417C8.70833 17.3073 7.68232 18.3333 6.41667 18.3333C5.15101 18.3333 4.125 17.3073 4.125 16.0417C4.125 14.776 5.15101 13.75 6.41667 13.75C7.68232 13.75 8.70833 14.776 8.70833 16.0417Z" stroke="#020202" stroke-width="1.5"/>
<path d="M13.2923 16.0417H8.70898M17.8757 16.0417H18.5752C18.7769 16.0417 18.8777 16.0417 18.9624 16.0312C19.5869 15.9533 20.0789 15.4614 20.1568 14.8368C20.1673 14.7521 20.1673 14.6513 20.1673 14.4496V11.9167C20.1673 8.62605 17.4997 5.95841 14.209 5.95841M13.7507 14.2084V6.41675C13.7507 5.12039 13.7507 4.4722 13.3479 4.06948C12.9452 3.66675 12.297 3.66675 11.0007 3.66675H4.58398C3.28762 3.66675 2.63944 3.66675 2.23671 4.06948C1.83398 4.4722 1.83398 5.12039 1.83398 6.41675V13.7501C1.83398 14.6068 1.83398 15.0352 2.0182 15.3542C2.13888 15.5633 2.31246 15.7369 2.52148 15.8575C2.84055 16.0417 3.26892 16.0417 4.12565 16.0417" stroke="#020202" stroke-width="1.5" stroke-linecap="round" stroke-linejoin="round"/>
</svg>
