<svg width="22" height="22" viewBox="0 0 22 22" fill="none" xmlns="http://www.w3.org/2000/svg">
<path d="M13.7681 8.64724L14.252 9.62313C14.318 9.75898 14.494 9.88928 14.6425 9.91423L15.5196 10.0612C16.0806 10.1554 16.2125 10.5658 15.8083 10.9705L15.1264 11.6581C15.0109 11.7745 14.9477 11.9991 14.9834 12.1599L15.1787 13.011C15.3326 13.6847 14.9779 13.9453 14.3868 13.5932L13.5646 13.1025C13.4161 13.0138 13.1714 13.0138 13.0202 13.1025L12.198 13.5932C11.6096 13.9453 11.2521 13.682 11.4061 13.011L11.6013 12.1599C11.6371 11.9991 11.5738 11.7745 11.4583 11.6581L10.7764 10.9705C10.3749 10.5658 10.5042 10.1554 11.0651 10.0612L11.9423 9.91423C12.088 9.88928 12.264 9.75898 12.33 9.62313L12.8139 8.64724C13.0779 8.11771 13.5068 8.11771 13.7681 8.64724Z" stroke="#9B9B9B" stroke-width="1.5" stroke-linecap="round" stroke-linejoin="round"/>
<path d="M7.33203 15.584L7.33203 18.7923" stroke="#9B9B9B" stroke-width="1.5" stroke-linecap="round" stroke-linejoin="round"/>
<path d="M7.33203 3.20898V6.41732" stroke="#9B9B9B" stroke-width="1.5" stroke-linecap="round" stroke-linejoin="round"/>
<path d="M20.168 8.13969C20.1066 6.72612 19.9348 5.80588 19.4533 5.07792C19.1763 4.65912 18.8322 4.29485 18.4366 4.00161C17.3672 3.20898 15.8587 3.20898 12.8417 3.20898H9.1616C6.1446 3.20898 4.6361 3.20898 3.56679 4.00161C3.17118 4.29485 2.82708 4.65912 2.55007 5.07792C2.06862 5.8058 1.89675 6.72591 1.83539 8.13921C1.8249 8.38089 2.03307 8.56575 2.26117 8.56575C3.53147 8.56575 4.56125 9.65589 4.56125 11.0007C4.56125 12.3454 3.53147 13.4355 2.26117 13.4355C2.03307 13.4355 1.8249 13.6204 1.83539 13.8621C1.89675 15.2754 2.06862 16.1955 2.55007 16.9234C2.82708 17.3422 3.17118 17.7064 3.56679 17.9997C4.6361 18.7923 6.1446 18.7923 9.1616 18.7923H12.8417C15.8587 18.7923 17.3672 18.7923 18.4366 17.9997C18.8322 17.7064 19.1763 17.3422 19.4533 16.9234C19.9348 16.1954 20.1066 15.2752 20.168 13.8616V8.13969Z" stroke="#9B9B9B" stroke-width="1.5" stroke-linejoin="round"/>
</svg>
